{
.appVersion = "3108";
DisplayStrings = (
"/gmacron abcdergomifrdszxfpgijadoarararajajajaiajr",
"/Gmacron",
"/Ldotbelowmacron",
"/Lmacronbelow",
"/Mdotaccent",
"/Tmacronbelow",
"/ldotbelow",
"/ldotbelowmacron",
"/lmacronbelow",
"/Zdotbelow",
"/Mdotbelow/Ndotaccent/Ndotbelow/Nmacronbelow/Rdotbelowmacron/Rmacronbelow/Ydotaccent/Zmacronbelow/mdotaccent/mdotbelow/ndotaccent/ndotbelow/nmacronbelow/rdotbelowmacron/rmacronbelow/dotaccentcomb/ydotaccent/zmacronbelow/candraBinducomb/dieresisbelowcomb/ringbelowcomb/doublemacronbelowcomb",
"#IMSÌÎÏ/A.alt2/H.alt1/N.alt1/M.alt1",
"/Ncaron",
"/N.alt2/Ncommaaccent",
"/Ncommaaccent",
"/Eng",
"/N.alt2",
"/schwa",
"/aturned",
Z,
M,
"/Zeta",
"/Racute",
"/Abrevehookabove",
"/Abrevegrave",
"/Abrevedotbelow",
"/Abreveacute",
"/Abreve",
"/Acaron",
"/Acircumflexacute",
"/Acircumflexdotbelow",
"/Acircumflexgrave",
"/Ecircumflexacute",
"",
"/circumflexcomb_acutecomb",
"/circumflexcomb_gravecomb",
"/brevecomb_hookabovecomb",
"/brevecomb_gravecomb",
"/brevecomb_acutecomb",
"/circumflexcomb_hookabovecomb",
"/circumflexcomb_tildecomb",
"/Ocircumflexdotbelow",
"/Ocaron",
"/circumflexcomb_hookabovecomb/Acircumflexhookabove",
"E/Ecircumflextilde",
"/Ecircumflextilde",
"/Ecircumflexhookabove",
"/Ocircumflexacute",
"/Ecircumflexgrave",
"/Ocircumflexgrave",
"/acircumflexacute",
"/acircumflexgrave",
"/acircumflexhookabove",
"/ecircumflexhookabove",
"/ecircumflexgrave",
"/uhookabove",
"/uhornacute",
"/uhorngrave",
"/uhornhookabove",
"/utilde",
"/uhorntilde",
"/etilde",
"/ohorntilde",
"/ytilde",
"/ocircumflexgrave",
"/ocircumflexhookabove",
"/ocircumflextilde",
"/ecircumflexacute",
"/acircumflextilde",
"/abrevetilde",
"/abreveacute",
"/ecircumflextilde",
"Ò",
"/Utilde",
"/imacron",
"/amacron",
"á",
"ã",
"",
"æ",
"/aemacron"
);
classes = (
{
code = "A B C D E F G H I J K L M N O P Q R S T U V W X Y Z a b c d e f g h i j k l m n o p q r s t u v w x y z";
name = DEFAULT;
},
{

glyphs = (
{
glyphname = .notdef;
lastChange = "2021-12-18 13:03:49 +0000";
layers = (
{
layerId = "D6A4831D-747C-4592-93C0-305F4CD57904";
paths = (
{
closed = 1;
nodes = (
"206 -182 OFFCURVE",
"271 -179 QCURVE",
"294 -175 OFFCURVE",
"347 -169 QCURVE SMOOTH",
"476 -157 OFFCURVE",
"541 -141 QCURVE SMOOTH",
"549 -139 OFFCURVE",
"569 -104 OFFCURVE",
"569 -90 QCURVE SMOOTH",
"569 2 OFFCURVE",
"566 233 OFFCURVE",
"565 278 QCURVE SMOOTH",
"563 368 LINE",
"563 448 LINE SMOOTH",
"563 467 OFFCURVE",
"562 620 OFFCURVE",
"557 684 QCURVE SMOOTH",
"555 712 OFFCURVE",
"534 771 OFFCURVE",
"519 791 QCURVE SMOOTH",
"513 799 OFFCURVE",
"493 809 OFFCURVE",
"482 809 QCURVE SMOOTH",
"472 809 OFFCURVE",
"461 802 QCURVE",
"296 757 OFFCURVE",
"273 744 OFFCURVE",
"265 668 OFFCURVE",
"287 673 OFFCURVE",
"319 673 QCURVE SMOOTH",
"411 673 OFFCURVE",
"465 673 QCURVE",
"473 670 OFFCURVE",
"469 508 OFFCURVE",
"469 406 QCURVE SMOOTH",
"469 211 OFFCURVE",
"486 74 OFFCURVE",
"475 0 QCURVE",
"429 -12 OFFCURVE",
"233 -35 OFFCURVE",
"182 -39 QCURVE",
"180 -6 OFFCURVE",
"179 11 QCURVE SMOOTH",
"173 96 OFFCURVE",
"174 134 QCURVE SMOOTH",
"174 163 OFFCURVE",
"175 178 QCURVE SMOOTH",
"177 396 OFFCURVE",
"185 529 QCURVE SMOOTH",
"186 539 OFFCURVE",
"190 584 QCURVE SMOOTH",
"194 618 OFFCURVE",
"194 637 QCURVE SMOOTH",
"194 657 OFFCURVE",
"183 680 OFFCURVE",
"169 684 QCURVE SMOOTH",
"162 687 OFFCURVE",
"146 687 QCURVE SMOOTH",
"101 687 OFFCURVE",
"68 660 QCURVE SMOOTH",
"63 656 OFFCURVE",
"61 627 OFFCURVE",
"61 592 QCURVE SMOOTH",
"61 567 OFFCURVE",
"60 558 QCURVE SMOOTH",
"59 547 OFFCURVE",
"62 521 OFFCURVE",
"63 514 QCURVE",
"64 308 LINE SMOOTH",
"68 34 OFFCURVE",
"68 -101 QCURVE SMOOTH",
"68 -112 OFFCURVE",
"72 -135 OFFCURVE",
"77 -139 QCURVE",
"87 -151 OFFCURVE",
"93 -158 QCURVE SMOOTH",
"119 -188 OFFCURVE",
"170 -201 OFFCURVE",
"177 -197 QCURVE SMOOTH"
);
}
);
userData = {
assembly = "NPUSHB[ ]	/* 54 values pushed */
49 41 22 3 0 2 1 76 0 4 3 4 133 0 1 3 2 3 1 2 128 0 0 2 0 134 0 3 1 2 3 89 0 3 3 2 95 0 2 3 2 79 70 68 66 65 61 58 33 31 25 5 6 23 
CALL[ ]	/* CallFunction */";
};
width = 619;
}
);
note = ".notdef";
},
{
glyphname = exclam;
lastChange = "2020-12-09 22:30:36 +0000";
layers = (
{
layerId = "D6A4831D-747C-4592-93C0-305F4CD57904";
paths = (
{
closed = 1;
nodes = (
"143 110 OFFCURVE",
"150 117 QCURVE",
"176 141 OFFCURVE",
"190 171 QCURVE",
"203 196 OFFCURVE",
"219 252 QCURVE SMOOTH",
"254 387 OFFCURVE",
"267 446 QCURVE SMOOTH",
"272 470 OFFCURVE",
"281 530 QCURVE SMOOTH",
"287 566 LINE",
"277 642 LINE SMOOTH",
"274 667 OFFCURVE",
"235 715 OFFCURVE",
"218 715 QCURVE SMOOTH",
"197 715 OFFCURVE",
"178 680 OFFCURVE",
"176 641 QCURVE SMOOTH",
"175 626 LINE SMOOTH",
"167 444 OFFCURVE",
"116 232 QCURVE SMOOTH",
"106 189 OFFCURVE",
"103 155 QCURVE",
"103 145 OFFCURVE",
"112 120 OFFCURVE",
"118 114 QCURVE",
"124 110 OFFCURVE",
"130 110 QCURVE SMOOTH"
);
},
{
closed = 1;
nodes = (
"142 -34 OFFCURVE",
"156 -14 QCURVE SMOOTH",
"164 -3 OFFCURVE",
"164 10 QCURVE SMOOTH",
"164 31 OFFCURVE",
"145 47 QCURVE SMOOTH",
"132 58 OFFCURVE",
"115 63 QCURVE SMOOTH",
"102 67 OFFCURVE",
"64 75 OFFCURVE",
"55 77 QCURVE",
"50 60 OFFCURVE",
"50 40 QCURVE SMOOTH",
"50 15 OFFCURVE",
"73 -18 OFFCURVE",
"96 -28 QCURVE",
"108 -34 OFFCURVE",
"120 -34 QCURVE SMOOTH"
);
}
);
userData = {
assembly = "NPUSHB[ ]	/* 10 values pushed */
15 1 0 1 32 1 2 0 2 76 
MPPEM[ ]	/* MeasurePixelPerEm */
PUSHB[ ]	/* 1 value pushed */
21 
LT[ ]	/* LessThan */
IF[ ]	/* If */
NPUSHB[ ]	/* 19 values pushed */
0 0 1 2 1 0 2 128 0 1 1 36 77 0 2 2 31 2 78 
ELSE[ ]	/* Else */
MPPEM[ ]	/* MeasurePixelPerEm */
PUSHB[ ]	/* 1 value pushed */
31 
LT[ ]	/* LessThan */
IF[ ]	/* If */
NPUSHB[ ]	/* 16 values pushed */
0 1 0 1 133 0 0 2 0 133 0 2 2 31 2 78 
ELSE[ ]	/* Else */
NPUSHB[ ]	/* 14 values pushed */
0 1 0 1 133 0 0 2 0 133 0 2 2 118 
EIF[ ]	/* EndIf */
EIF[ ]	/* EndIf */
PUSHB[ ]	/* 7 values pushed */
44 42 44 25 3 8 24 
CALL[ ]	/* CallFunction */";
};
width = 337;
}
);
note = exclam;
unicode = 0021;
},
{
glyphname = quotedbl;
lastChange = "2020-12-09 22:30:36 +0000";
layers = (
{
layerId = "D6A4831D-747C-4592-93C0-305F4CD57904";
paths = (
{
closed = 1;
nodes = (
"77 389 OFFCURVE",
"82 392 QCURVE",
"123 432 OFFCURVE",
"176 552 OFFCURVE",
"190 614 QCURVE SMOOTH",
"196 641 OFFCURVE",
"198 665 QCURVE",
"199 670 OFFCURVE",
"199 685 OFFCURVE",
"201 697 QCURVE",
"202 705 OFFCURVE",
"177 713 OFFCURVE",
"158 713 QCURVE SMOOTH",
"138 713 OFFCURVE",
"102 705 OFFCURVE",
"101 701 QCURVE SMOOTH",
"94 674 OFFCURVE",
"94 641 QCURVE",
"95 629 OFFCURVE",
"97 587 QCURVE SMOOTH",
"98 565 LINE",
"93 539 OFFCURVE",
"81 501 QCURVE SMOOTH",
"70 465 OFFCURVE",
"60 422 OFFCURVE",
"60 399 QCURVE SMOOTH",
"60 395 OFFCURVE",
"73 391 QCURVE"
);
},
{
closed = 1;
nodes = (
"224 390 OFFCURVE",
"249 417 OFFCURVE",
"252 420 QCURVE",
"313 508 OFFCURVE",
"328 564 OFFCURVE",
"339 614 QCURVE SMOOTH",
"344 637 OFFCURVE",
"344 644 QCURVE SMOOTH",
"344 647 OFFCURVE",
"343 655 OFFCURVE",
"343 661 QCURVE SMOOTH",
"343 672 OFFCURVE",
"344 681 QCURVE SMOOTH",
"345 693 OFFCURVE",
"299 706 OFFCURVE",
"273 706 QCURVE SMOOTH",
"250 706 OFFCURVE",
"250 701 QCURVE",
"237 652 OFFCURVE",
"234 575 QCURVE",
"232 555 LINE",
"226 523 OFFCURVE",
"224 511 QCURVE",
"209 444 OFFCURVE",
"209 399 QCURVE SMOOTH",
"209 395 OFFCURVE",
"222 391 QCURVE"
);
}
);
userData = {
assembly = "MPPEM[ ]	/* MeasurePixelPerEm */
PUSHB[ ]	/* 1 value pushed */
34 
LT[ ]	/* LessThan */
IF[ ]	/* If */
PUSHB[ ]	/* 7 values pushed */
48 29 25 22 4 0 73 
ELSE[ ]	/* Else */
PUSHB[ ]	/* 7 values pushed */
48 29 25 22 4 1 73 
EIF[ ]	/* EndIf */
MPPEM[ ]	/* MeasurePixelPerEm */
PUSHB[ ]	/* 1 value pushed */
21 
LT[ ]	/* LessThan */
IF[ ]	/* If */
PUSHB[ ]	/* 7 values pushed */
1 1 0 0 36 0 78 
ELSE[ ]	/* Else */
MPPEM[ ]	/* MeasurePixelPerEm */
PUSHB[ ]	/* 1 value pushed */
34 
LT[ ]	/* LessThan */
IF[ ]	/* If */
PUSHB[ ]	/* 5 values pushed */
1 1 0 0 118 
ELSE[ ]	/* Else */
NPUSHB[ ]	/* 9 values pushed */
0 0 1 0 133 0 1 1 118 
EIF[ ]	/* EndIf */
EIF[ ]	/* EndIf */
PUSHB[ ]	/* 6 values pushed */
53 52 33 2 8 23 
CALL[ ]	/* CallFunction */";
};
width = 394;
}
);
note = quotedbl;
unicode = 0022;
},
{
glyphname = numbersign;
lastChange = "2021-12-19 04:24:22 +0000";
layers = (
{
layerId = "D6A4831D-747C-4592-93C0-305F4CD57904";
paths = (
{
closed = 1;
nodes = (
"220 4 OFFCURVE",
"233 24 OFFCURVE",
"241 50 QCURVE SMOOTH",
"258 107 OFFCURVE",
"291 223 QCURVE",
"293 238 LINE",
"423 260 LINE",
"389 92 LINE",
"385 55 LINE SMOOTH",
"383 32 OFFCURVE",
"383 27 QCURVE SMOOTH",
"383 0 OFFCURVE",
"401 0 OFFCURVE",
"416 11 QCURVE SMOOTH",
"439 26 OFFCURVE",
"469 92 OFFCURVE",
"481 141 QCURVE SMOOTH",
"504 230 OFFCURVE",
"515 275 QCURVE",
"590 288 LINE SMOOTH",
"614 292 OFFCURVE",
"666 309 OFFCURVE",
"672 310 QCURVE",
"679 313 OFFCURVE",
"691 325 OFFCURVE",
"690 329 QCURVE SMOOTH",
"688 336 OFFCURVE",
"678 348 OFFCURVE",
"671 351 QCURVE SMOOTH",
"657 357 OFFCURVE",
"631 357 QCURVE SMOOTH",
"599 355 OFFCURVE",
"533 350 QCURVE",
"541 385 OFFCURVE",
"556 453 QCURVE",
"575 457 OFFCURVE",
"621 470 OFFCURVE",
"633 473 QCURVE SMOOTH",
"655 480 LINE",
"661 481 OFFCURVE",
"675 492 OFFCURVE",
"675 495 QCURVE",
"672 500 OFFCURVE",
"657 509 OFFCURVE",
"647 511 QCURVE SMOOTH",
"641 513 OFFCURVE",
"622 513 QCURVE SMOOTH",
"605 513 OFFCURVE",
"597 512 QCURVE SMOOTH",
"570 509 LINE",
"583 571 LINE SMOOTH",
"587 592 OFFCURVE",
"587 608 QCURVE SMOOTH",
"587 635 OFFCURVE",
"577 645 QCURVE SMOOTH",
"555 666 OFFCURVE",
"523 676 QCURVE SMOOTH",
"512 679 OFFCURVE",
"497 655 OFFCURVE",
"493 630 QCURVE SMOOTH",
"490 610 OFFCURVE",
"481 556 OFFCURVE",
"478 542 QCURVE SMOOTH",
"470 501 LINE",
"360 493 LINE",
"374 535 LINE SMOOTH",
"379 554 OFFCURVE",
"402 631 OFFCURVE",
"410 661 QCURVE SMOOTH",
"415 676 OFFCURVE",
"415 686 QCURVE SMOOTH",
"415 701 OFFCURVE",
"393 719 OFFCURVE",
"369 724 QCURVE",
"364 726 OFFCURVE",
"353 726 QCURVE SMOOTH",
"324 725 LINE",
"308 658 LINE SMOOTH",
"271 506 OFFCURVE",
"266 485 QCURVE",
"200 479 LINE SMOOTH",
"157 474 OFFCURVE",
"101 461 QCURVE SMOOTH",
"89 458 OFFCURVE",
"66 446 OFFCURVE",
"67 441 QCURVE SMOOTH",
"68 433 OFFCURVE",
"85 416 OFFCURVE",
"95 411 QCURVE SMOOTH",
"124 399 OFFCURVE",
"159 399 QCURVE SMOOTH",
"170 399 OFFCURVE",
"196 402 QCURVE SMOOTH",
"223 406 LINE SMOOTH",
"230 407 OFFCURVE",
"244 408 OFFCURVE",
"249 409 QCURVE",
"245 387 LINE SMOOTH",
"238 350 OFFCURVE",
"228 319 QCURVE",
"228 318 LINE",
"117 297 LINE SMOOTH",
"101 295 OFFCURVE",
"84 288 QCURVE SMOOTH",
"60 276 OFFCURVE",
"60 262 QCURVE SMOOTH",
"60 249 OFFCURVE",
"83 235 QCURVE SMOOTH",
"122 215 OFFCURVE",
"156 215 QCURVE SMOOTH",
"168 215 OFFCURVE",
"182 218 QCURVE",
"187 220 OFFCURVE",
"201 222 QCURVE",
"181 153 OFFCURVE",
"172 119 QCURVE SMOOTH",
"165 93 OFFCURVE",
"162 55 QCURVE SMOOTH",
"160 34 OFFCURVE",
"159 26 QCURVE",
"179 14 OFFCURVE",
"201 4 OFFCURVE",
"209 4 QCURVE SMOOTH"
);
},
{
closed = 1;
nodes = (
"323 350 LINE SMOOTH",
"334 392 OFFCURVE",
"341 422 QCURVE",
"458 437 LINE",
"458 433 OFFCURVE",
"456 429 QCURVE",
"441 344 LINE",
"406 343 LINE",
"318 332 LINE"
);
}
);
userData = {
assembly = "NPUSHB[ ]	/* 25 values pushed */
128 100 85 64 53 5 3 5 118 1 7 6 132 36 19 3 2 7 30 15 2 0 2 4 76 
MPPEM[ ]	/* MeasurePixelPerEm */
PUSHB[ ]	/* 1 value pushed */
21 
LT[ ]	/* LessThan */
IF[ ]	/* If */
NPUSHB[ ]	/* 48 values pushed */
0 5 4 3 4 5 3 128 0 3 6 4 3 6 126 0 6 7 4 6 7 126 0 7 2 4 7 2 126 0 2 0 4 2 0 126 0 4 4 36 77 1 1 0 0 40 0 78 
ELSE[ ]	/* Else */
MPPEM[ ]	/* MeasurePixelPerEm */
PUSHB[ ]	/* 1 value pushed */
44 
LT[ ]	/* LessThan */
IF[ ]	/* If */
NPUSHB[ ]	/* 37 values pushed */
0 4 5 4 133 0 5 3 5 133 0 3 6 3 133 0 6 7 6 133 0 7 2 7 133 0 2 0 2 133 1 1 0 0 40 0 78 
ELSE[ ]	/* Else */
NPUSHB[ ]	/* 35 values pushed */
0 4 5 4 133 0 5 3 5 133 0 3 6 3 133 0 6 7 6 133 0 7 2 7 133 0 2 0 2 133 1 1 0 0 118 
EIF[ ]	/* EndIf */
EIF[ ]	/* EndIf */
NPUSHB[ ]	/* 16 values pushed */
134 133 121 119 104 102 75 73 60 58 44 28 44 8 8 25 
CALL[ ]	/* CallFunction */";
};
width = 752;
}
);
leftMetricsKey = H;
note = numbersign;
rightMetricsKey = H;
unicode = 0023;
},
{
glyphname = dollar;
lastChange = "2021-12-18 13:03:49 +0000";
layers = (
{
layerId = "D6A4831D-747C-4592-93C0-305F4CD57904";
paths = (
{
closed = 1;
nodes = (
"339 -157 OFFCURVE",
"339 -99 QCURVE SMOOTH",
"339 -24 LINE SMOOTH",
"340 20 OFFCURVE",
"338 51 QCURVE SMOOTH",
"337 68 LINE SMOOTH",
"336 79 OFFCURVE",
"356 92 OFFCURVE",
"381 107 QCURVE SMOOTH",
"444 144 OFFCURVE",
"482 225 QCURVE",
"500 254 OFFCURVE",
"495 286 QCURVE SMOOTH",
"492 304 OFFCURVE",
"478 335 OFFCURVE",
"464 344 QCURVE SMOOTH",
"449 354 OFFCURVE",
"407 371 OFFCURVE",
"390 375 QCURVE",
"329 383 OFFCURVE",
"316 391 OFFCURVE",
"316 401 QCURVE SMOOTH",
"316 414 OFFCURVE",
"324 489 QCURVE",
"352 486 LINE SMOOTH",
"372 484 OFFCURVE",
"394 483 QCURVE SMOOTH",
"404 483 OFFCURVE",
"408 484 QCURVE SMOOTH",
"431 490 OFFCURVE",
"444 496 OFFCURVE",
"463 508 QCURVE SMOOTH",
"478 518 OFFCURVE",
"478 532 QCURVE SMOOTH",
"478 546 OFFCURVE",
"464 555 QCURVE",
"408 600 OFFCURVE",
"356 592 QCURVE SMOOTH",
"325 587 OFFCURVE",
"316 603 OFFCURVE",
"315 630 QCURVE SMOOTH",
"314 659 OFFCURVE",
"315 705 OFFCURVE",
"307 730 QCURVE SMOOTH",
"295 766 OFFCURVE",
"266 766 QCURVE SMOOTH",
"260 766 OFFCURVE",
"247 764 QCURVE SMOOTH",
"228 760 OFFCURVE",
"220 739 OFFCURVE",
"221 722 QCURVE SMOOTH",
"222 700 LINE SMOOTH",
"223 683 OFFCURVE",
"222 660 OFFCURVE",
"222 653 QCURVE SMOOTH",
"222 632 LINE",
"227 570 LINE",
"225 559 OFFCURVE",
"183 538 QCURVE",
"123 518 OFFCURVE",
"86 478 QCURVE SMOOTH",
"44 433 OFFCURVE",
"52 373 QCURVE SMOOTH",
"55 350 OFFCURVE",
"80 312 OFFCURVE",
"102 292 QCURVE SMOOTH",
"123 273 OFFCURVE",
"156 264 OFFCURVE",
"169 265 QCURVE SMOOTH",
"185 266 OFFCURVE",
"195 268 QCURVE SMOOTH",
"224 273 OFFCURVE",
"239 257 OFFCURVE",
"239 239 QCURVE SMOOTH",
"239 232 OFFCURVE",
"238 209 OFFCURVE",
"238 201 QCURVE",
"239 196 OFFCURVE",
"239 186 QCURVE SMOOTH",
"239 163 OFFCURVE",
"233 137 OFFCURVE",
"199 132 QCURVE SMOOTH",
"184 130 OFFCURVE",
"142 143 QCURVE SMOOTH",
"137 144 OFFCURVE",
"120 140 OFFCURVE",
"116 139 QCURVE",
"117 137 OFFCURVE",
"119 101 OFFCURVE",
"123 99 QCURVE SMOOTH",
"159 78 OFFCURVE",
"187 64 OFFCURVE",
"203 60 QCURVE SMOOTH",
"221 56 OFFCURVE",
"246 51 OFFCURVE",
"246 24 QCURVE",
"249 -10 OFFCURVE",
"250 -28 QCURVE SMOOTH",
"251 -41 OFFCURVE",
"253 -76 OFFCURVE",
"253 -102 QCURVE SMOOTH",
"254 -135 OFFCURVE",
"265 -157 OFFCURVE",
"298 -157 QCURVE SMOOTH"
);
},
{
closed = 1;
nodes = (
"175 339 OFFCURVE",
"152 370 OFFCURVE",
"154 392 QCURVE",
"152 403 OFFCURVE",
"152 407 QCURVE SMOOTH",
"152 430 OFFCURVE",
"192 460 OFFCURVE",
"224 471 QCURVE",
"230 471 OFFCURVE",
"236 408 OFFCURVE",
"236 382 QCURVE SMOOTH",
"236 369 OFFCURVE",
"234 358 QCURVE SMOOTH",
"233 350 OFFCURVE",
"209 339 OFFCURVE",
"194 339 QCURVE SMOOTH"
);
},
{
closed = 1;
nodes = (
"320 212 OFFCURVE",
"315 268 QCURVE SMOOTH",
"310 324 OFFCURVE",
"366 308 QCURVE",
"381 308 OFFCURVE",
"408 300 QCURVE",
"410 263 OFFCURVE",
"369 183 OFFCURVE",
"325 163 QCURVE"
);
}
);
userData = {
assembly = "NPUSHB[ ]	/* 89 values pushed */
122 120 2 7 0 131 1 4 8 137 1 3 4 43 41 2 2 3 4 76 0 5 6 5 133 0 8 7 4 7 8 4 128 0 3 4 2 4 3 2 128 0 2 2 132 0 6 1 1 0 7 6 0 105 0 7 8 4 7 89 0 7 7 4 97 0 4 7 4 81 134 132 126 124 104 102 96 94 71 70 59 57 35 33 17 17 9 8 24 
CALL[ ]	/* CallFunction */";
};
width = 545;
}
);
note = dollar;
unicode = 0024;
},
{
glyphname = percent;
lastChange = "2021-01-11 03:13:30 +0000";
layers = (
{
layerId = "D6A4831D-747C-4592-93C0-305F4CD57904";
paths = (
{
closed = 1;
nodes = (
"97 98 OFFCURVE",
"128 114 OFFCURVE",
"137 121 QCURVE",
"165 145 LINE SMOOTH",
"268 233 OFFCURVE",
"317 282 QCURVE SMOOTH",
"364 329 OFFCURVE",
"490 459 OFFCURVE",
"524 495 QCURVE SMOOTH",
"600 571 OFFCURVE",
"671 648 QCURVE SMOOTH",
"683 661 OFFCURVE",
"683 674 QCURVE SMOOTH",
"683 682 OFFCURVE",
"672 697 OFFCURVE",
"663 700 QCURVE",
"648 708 OFFCURVE",
"624 708 QCURVE SMOOTH",
"614 708 OFFCURVE",
"600 706 QCURVE SMOOTH",
"573 702 OFFCURVE",
"536 674 OFFCURVE",
"514 646 QCURVE SMOOTH",
"500 628 OFFCURVE",
"491 619 QCURVE SMOOTH",
"391 517 OFFCURVE",
"231 340 QCURVE",
"181 290 OFFCURVE",
"89 173 QCURVE SMOOTH",
"67 145 LINE",
"60 135 OFFCURVE",
"60 120 QCURVE SMOOTH",
"60 115 OFFCURVE",
"61 112 QCURVE",
"62 107 OFFCURVE",
"82 98 OFFCURVE",
"88 94 QCURVE"
);
},
{
closed = 1;
nodes = (
"655 76 OFFCURVE",
"724 128 OFFCURVE",
"724 182 QCURVE SMOOTH",
"724 241 OFFCURVE",
"664 321 OFFCURVE",
"617 321 QCURVE SMOOTH",
"602 321 LINE SMOOTH",
"586 321 OFFCURVE",
"562 329 OFFCURVE",
"553 343 QCURVE",
"552 346 OFFCURVE",
"544 346 QCURVE SMOOTH",
"537 346 OFFCURVE",
"534 343 QCURVE",
"504 321 OFFCURVE",
"483 302 OFFCURVE",
"476 291 QCURVE SMOOTH",
"455 257 OFFCURVE",
"455 219 QCURVE SMOOTH",
"455 170 OFFCURVE",
"515 91 OFFCURVE",
"559 80 QCURVE",
"584 76 OFFCURVE",
"604 76 QCURVE SMOOTH"
);
},
{
closed = 1;
nodes = (
"576 149 OFFCURVE",
"548 203 OFFCURVE",
"548 232 QCURVE SMOOTH",
"548 274 OFFCURVE",
"574 302 QCURVE",
"608 285 OFFCURVE",
"642 232 OFFCURVE",
"642 205 QCURVE SMOOTH",
"642 164 OFFCURVE",
"603 133 QCURVE"
);
},
{
closed = 1;
nodes = (
"334 548 LINE",
"375 561 OFFCURVE",
"392 575 QCURVE SMOOTH",
"436 611 OFFCURVE",
"438 664 QCURVE SMOOTH",
"439 692 OFFCURVE",
"425 734 QCURVE SMOOTH",
"413 771 OFFCURVE",
"343 833 OFFCURVE",
"308 833 QCURVE SMOOTH",
"274 833 LINE SMOOTH",
"248 833 OFFCURVE",
"239 826 QCURVE SMOOTH",
"196 792 OFFCURVE",
"180 754 QCURVE SMOOTH",
"168 726 OFFCURVE",
"169 692 QCURVE SMOOTH",
"171 634 OFFCURVE",
"231 547 OFFCURVE",
"290 547 QCURVE SMOOTH",
"300 547 OFFCURVE",
"306 548 QCURVE",
"309 539 LINE"
);
},
{
closed = 1;
nodes = (
"263 607 OFFCURVE",
"258 626 QCURVE SMOOTH",
"235 713 OFFCURVE",
"226 778 QCURVE SMOOTH",
"224 792 OFFCURVE",
"257 815 OFFCURVE",
"276 815 QCURVE",
"330 789 OFFCURVE",
"355 753 OFFCURVE",
"356 741 QCURVE",
"352 689 OFFCURVE",
"327 631 OFFCURVE",
"294 613 QCURVE SMOOTH",
"283 607 OFFCURVE",
"276 607 QCURVE SMOOTH"
);
}
);
userData = {
assembly = "NPUSHB[ ]	/* 15 values pushed */
25 1 4 2 94 1 6 0 110 105 2 5 6 3 76 
MPPEM[ ]	/* MeasurePixelPerEm */
PUSHB[ ]	/* 1 value pushed */
21 
LT[ ]	/* LessThan */
IF[ ]	/* If */
NPUSHB[ ]	/* 31 values pushed */
0 1 0 2 4 1 2 105 0 3 7 1 0 6 3 0 105 8 1 6 0 5 6 5 101 0 4 4 36 4 78 
ELSE[ ]	/* Else */
NPUSHB[ ]	/* 43 values pushed */
0 4 2 3 2 4 3 128 0 1 0 2 4 1 2 105 0 3 7 1 0 6 3 0 105 8 1 6 5 5 6 89 8 1 6 6 5 97 0 5 6 5 81 
EIF[ ]	/* EndIf */
NPUSHB[ ]	/* 25 values pushed */
76 76 2 0 76 100 76 98 82 80 61 59 36 35 30 28 12 9 0 22 2 22 9 8 22 
CALL[ ]	/* CallFunction */";
};
width = 774;
}
);
note = percent;
unicode = 0025;
},
{
glyphname = ampersand;
lastChange = "2021-01-11 05:25:32 +0000";
layers = (
{
layerId = "D6A4831D-747C-4592-93C0-305F4CD57904";
paths = (
{
closed = 1;
nodes = (
"627 -65 OFFCURVE",
"651 -33 OFFCURVE",
"651 -7 QCURVE SMOOTH",
"651 109 OFFCURVE",
"543 170 QCURVE",
"519 185 OFFCURVE",
"519 200 QCURVE SMOOTH",
"519 210 OFFCURVE",
"527 227 QCURVE SMOOTH",
"546 274 OFFCURVE",
"570 355 QCURVE SMOOTH",
"573 366 OFFCURVE",
"573 377 QCURVE SMOOTH",
"573 411 OFFCURVE",
"535 411 QCURVE SMOOTH",
"497 411 OFFCURVE",
"486 368 QCURVE SMOOTH",
"480 345 OFFCURVE",
"458 295 OFFCURVE",
"455 288 QCURVE SMOOTH",
"452 280 OFFCURVE",
"443 259 OFFCURVE",
"437 244 QCURVE",
"374 290 OFFCURVE",
"345 312 QCURVE",
"322 329 OFFCURVE",
"322 347 QCURVE SMOOTH",
"322 366 OFFCURVE",
"345 385 QCURVE SMOOTH",
"406 440 OFFCURVE",
"422 530 QCURVE SMOOTH",
"424 541 OFFCURVE",
"424 548 QCURVE SMOOTH",
"424 583 OFFCURVE",
"390 661 OFFCURVE",
"365 678 QCURVE SMOOTH",
"336 697 OFFCURVE",
"291 697 QCURVE",
"138 669 OFFCURVE",
"70 562 OFFCURVE",
"70 511 QCURVE SMOOTH",
"70 468 OFFCURVE",
"111 397 OFFCURVE",
"147 364 QCURVE SMOOTH",
"164 348 OFFCURVE",
"164 337 QCURVE SMOOTH",
"164 328 OFFCURVE",
"150 310 QCURVE SMOOTH",
"89 236 OFFCURVE",
"89 162 QCURVE SMOOTH",
"89 148 OFFCURVE",
"93 131 QCURVE SMOOTH",
"102 68 OFFCURVE",
"196 -11 OFFCURVE",
"256 -11 QCURVE SMOOTH",
"293 -11 OFFCURVE",
"329 6 QCURVE SMOOTH",
"351 16 OFFCURVE",
"389 49 OFFCURVE",
"416 76 QCURVE SMOOTH",
"436 96 LINE SMOOTH",
"447 107 OFFCURVE",
"458 116 OFFCURVE",
"466 116 QCURVE SMOOTH",
"471 116 OFFCURVE",
"483 111 QCURVE",
"512 97 OFFCURVE",
"564 18 OFFCURVE",
"564 -13 QCURVE SMOOTH",
"564 -20 OFFCURVE",
"563 -23 QCURVE SMOOTH",
"562 -26 OFFCURVE",
"562 -33 QCURVE SMOOTH",
"562 -45 OFFCURVE",
"577 -59 OFFCURVE",
"590 -62 QCURVE",
"599 -65 OFFCURVE",
"606 -65 QCURVE SMOOTH"
);
},
{
closed = 1;
nodes = (
"232 64 OFFCURVE",
"202 91 OFFCURVE",
"198 112 QCURVE",
"194 140 OFFCURVE",
"194 154 QCURVE SMOOTH",
"194 217 OFFCURVE",
"233 270 QCURVE",
"291 242 LINE SMOOTH",
"305 236 OFFCURVE",
"339 209 OFFCURVE",
"361 193 QCURVE",
"365 191 OFFCURVE",
"369 178 OFFCURVE",
"369 172 QCURVE SMOOTH",
"369 165 OFFCURVE",
"367 163 QCURVE",
"329 109 OFFCURVE",
"296 75 QCURVE SMOOTH",
"267 64 OFFCURVE",
"250 64 QCURVE SMOOTH"
);
},
{
closed = 1;
nodes = (
"217 407 OFFCURVE",
"205 427 QCURVE SMOOTH",
"171 467 OFFCURVE",
"173 514 QCURVE SMOOTH",
"173 539 OFFCURVE",
"196 587 OFFCURVE",
"217 606 QCURVE SMOOTH",
"241 627 OFFCURVE",
"270 633 QCURVE SMOOTH",
"282 633 OFFCURVE",
"305 616 OFFCURVE",
"317 582 OFFCURVE",
"317 550 QCURVE",
"303 503 LINE",
"296 489 OFFCURVE",
"280 451 OFFCURVE",
"268 427 QCURVE SMOOTH",
"252 407 OFFCURVE",
"241 407 QCURVE SMOOTH"
);
}
);
userData = {
assembly = "MPPEM[ ]	/* MeasurePixelPerEm */
PUSHB[ ]	/* 1 value pushed */
46 
LT[ ]	/* LessThan */
IF[ ]	/* If */
NPUSHB[ ]	/* 18 values pushed */
82 70 2 0 5 116 103 1 3 2 0 33 29 2 1 3 3 76 
ELSE[ ]	/* Else */
NPUSHB[ ]	/* 18 values pushed */
82 70 2 6 5 116 103 1 3 2 0 33 29 2 1 3 3 76 
EIF[ ]	/* EndIf */
MPPEM[ ]	/* MeasurePixelPerEm */
PUSHB[ ]	/* 1 value pushed */
26 
LT[ ]	/* LessThan */
IF[ ]	/* If */
NPUSHB[ ]	/* 40 values pushed */
6 1 0 5 2 5 0 2 128 0 2 7 5 2 7 126 0 4 0 5 0 4 5 105 0 7 7 3 98 0 3 3 34 77 0 1 1 31 1 78 
ELSE[ ]	/* Else */
MPPEM[ ]	/* MeasurePixelPerEm */
PUSHB[ ]	/* 1 value pushed */
46 
LT[ ]	/* LessThan */
IF[ ]	/* If */
NPUSHB[ ]	/* 40 values pushed */
6 1 0 5 2 5 0 2 128 0 2 7 5 2 7 126 0 1 3 1 134 0 4 0 5 0 4 5 105 0 7 7 3 98 0 3 3 34 3 78 
ELSE[ ]	/* Else */
NPUSHB[ ]	/* 46 values pushed */
0 6 5 0 5 6 0 128 0 0 2 5 0 2 126 0 2 7 5 2 7 126 0 1 3 1 134 0 4 0 5 6 4 5 105 0 7 7 3 98 0 3 3 34 3 78 
EIF[ ]	/* EndIf */
EIF[ ]	/* EndIf */
NPUSHB[ ]	/* 15 values pushed */
111 109 98 96 89 87 66 64 39 45 29 40 8 8 26 
CALL[ ]	/* CallFunction */";
};
width = 701;
}
);
note = ampersand;
unicode = 0026;
},
{
glyphname = quotesingle;
lastChange = "2020-12-09 22:30:36 +0000";
layers = (
{
layerId = "D6A4831D-747C-4592-93C0-305F4CD57904";
paths = (
{
closed = 1;
nodes = (
"96 464 OFFCURVE",
"119 473 OFFCURVE",
"125 488 CURVE SMOOTH",
"143 531 OFFCURVE",
"155 577 OFFCURVE",
"167 622 CURVE SMOOTH",
"176 660 OFFCURVE",
"143 691 OFFCURVE",
"94 679 CURVE",
"92 677 OFFCURVE",
"77 669 OFFCURVE",
"76 659 CURVE SMOOTH",
"69 598 OFFCURVE",
"64 537 OFFCURVE",
"60 476 CURVE",
"59 469 OFFCURVE",
"76 454 OFFCURVE",
"79 455 CURVE"
);
}
);
userData = {
assembly = "NPUSHB[ ]	/* 12 values pushed */
14 1 0 73 0 0 0 118 34 1 8 23 
CALL[ ]	/* CallFunction */";
};
width = 218;
}
);
note = quotesingle;
unicode = 0027;
},
{
glyphname = parenleft;
lastChange = "2021-01-11 02:59:19 +0000";
layers = (
{
layerId = "D6A4831D-747C-4592-93C0-305F4CD57904";
paths = (
{
closed = 1;
nodes = (
"340 -124 OFFCURVE",
"374 -115 OFFCURVE",
"381 -102 QCURVE",
"343 -77 LINE",
"310 -62 LINE SMOOTH",
"246 -33 OFFCURVE",
"205 -9 QCURVE SMOOTH",
"173 14 OFFCURVE",
"146 62 QCURVE SMOOTH",
"144 112 OFFCURVE",
"150 138 QCURVE SMOOTH",
"163 196 OFFCURVE",
"205 306 OFFCURVE",
"238 369 QCURVE SMOOTH",
"287 465 OFFCURVE",
"375 535 QCURVE SMOOTH",
"394 550 OFFCURVE",
"394 567 QCURVE SMOOTH",
"394 573 OFFCURVE",
"391 579 QCURVE",
"383 601 OFFCURVE",
"349 627 OFFCURVE",
"331 632 QCURVE",
"280 593 LINE SMOOTH",
"269 585 OFFCURVE",
"262 575 QCURVE",
"101 403 OFFCURVE",
"62 154 QCURVE SMOOTH",
"60 138 OFFCURVE",
"60 131 QCURVE SMOOTH",
"61 100 OFFCURVE",
"75 49 QCURVE SMOOTH",
"86 10 OFFCURVE",
"139 -43 OFFCURVE",
"184 -74 QCURVE SMOOTH",
"256 -124 OFFCURVE",
"328 -124 QCURVE SMOOTH"
);
}
);
userData = {
assembly = "NPUSHB[ ]	/* 12 values pushed */
16 1 0 74 0 0 0 118 33 1 8 23 
CALL[ ]	/* CallFunction */";
};
width = 429;
}
);
note = parenleft;
unicode = 0028;
},
{
glyphname = parenright;
lastChange = "2021-01-11 03:00:21 +0000";
layers = (
{
layerId = "D6A4831D-747C-4592-93C0-305F4CD57904";
paths = (
{
closed = 1;
nodes = (
"144 -115 OFFCURVE",
"222 -79 OFFCURVE",
"244 -41 QCURVE SMOOTH",
"315 83 OFFCURVE",
"315 194 QCURVE SMOOTH",
"315 207 OFFCURVE",
"313 233 QCURVE",
"310 256 LINE SMOOTH",
"302 321 OFFCURVE",
"284 415 OFFCURVE",
"261 451 QCURVE",
"241 480 OFFCURVE",
"179 555 QCURVE SMOOTH",
"151 589 LINE",
"139 603 OFFCURVE",
"97 609 OFFCURVE",
"60 609 QCURVE",
"62 593 OFFCURVE",
"74 568 OFFCURVE",
"80 559 QCURVE",
"78 562 OFFCURVE",
"105 528 QCURVE",
"115 518 OFFCURVE",
"124 506 QCURVE",
"130 499 OFFCURVE",
"167 456 OFFCURVE",
"177 435 QCURVE SMOOTH",
"225 335 OFFCURVE",
"225 236 QCURVE SMOOTH",
"226 115 OFFCURVE",
"155 0 QCURVE SMOOTH",
"81 -120 LINE"
);
}
);
userData = {
assembly = "NPUSHB[ ]	/* 12 values pushed */
19 1 0 73 0 0 0 118 18 1 8 23 
CALL[ ]	/* CallFunction */";
};
width = 356;
}
);
note = parenright;
unicode = 0029;
},
{
glyphname = asterisk;
lastChange = "2020-12-09 22:30:36 +0000";
layers = (
{
layerId = "D6A4831D-747C-4592-93C0-305F4CD57904";
paths = (
{
closed = 1;
nodes = (
"346 -30 OFFCURVE",
"369 -19 OFFCURVE",
"370 -15 QCURVE",
"381 78 OFFCURVE",
"392 195 QCURVE SMOOTH",
"396 232 LINE",
"498 180 LINE",
"503 177 OFFCURVE",
"524 163 OFFCURVE",
"532 163 QCURVE SMOOTH",
"544 163 OFFCURVE",
"553 175 QCURVE",
"539 205 OFFCURVE",
"492 244 OFFCURVE",
"453 267 QCURVE SMOOTH",
"423 285 OFFCURVE",
"409 295 QCURVE",
"440 313 LINE",
"485 338 LINE SMOOTH",
"542 369 OFFCURVE",
"557 378 QCURVE SMOOTH",
"562 381 OFFCURVE",
"570 397 OFFCURVE",
"572 401 QCURVE",
"568 403 OFFCURVE",
"552 412 OFFCURVE",
"546 412 QCURVE",
"533 413 OFFCURVE",
"507 413 QCURVE SMOOTH",
"465 413 LINE",
"473 432 LINE",
"492 473 OFFCURVE",
"501 502 QCURVE",
"503 512 OFFCURVE",
"503 519 QCURVE SMOOTH",
"503 531 OFFCURVE",
"501 550 OFFCURVE",
"500 557 QCURVE",
"495 555 OFFCURVE",
"462 542 OFFCURVE",
"450 534 QCURVE SMOOTH",
"441 528 OFFCURVE",
"424 506 OFFCURVE",
"420 501 QCURVE SMOOTH",
"374 443 LINE",
"357 465 LINE SMOOTH",
"324 509 OFFCURVE",
"297 539 QCURVE",
"293 543 OFFCURVE",
"281 543 QCURVE SMOOTH",
"267 543 OFFCURVE",
"257 538 QCURVE SMOOTH",
"247 533 OFFCURVE",
"247 504 QCURVE SMOOTH",
"248 471 OFFCURVE",
"254 409 QCURVE",
"243 405 LINE",
"221 431 LINE",
"197 464 OFFCURVE",
"149 504 OFFCURVE",
"117 511 QCURVE SMOOTH",
"107 513 OFFCURVE",
"80 504 OFFCURVE",
"72 496 QCURVE",
"70 492 OFFCURVE",
"70 487 QCURVE SMOOTH",
"70 478 OFFCURVE",
"76 459 OFFCURVE",
"81 454 QCURVE SMOOTH",
"128 405 OFFCURVE",
"185 358 QCURVE",
"202 345 OFFCURVE",
"202 336 QCURVE SMOOTH",
"202 330 OFFCURVE",
"191 321 OFFCURVE",
"179 314 QCURVE",
"125 287 OFFCURVE",
"77 251 QCURVE SMOOTH",
"60 238 OFFCURVE",
"60 223 QCURVE SMOOTH",
"60 215 OFFCURVE",
"74 199 OFFCURVE",
"86 195 QCURVE SMOOTH",
"102 190 OFFCURVE",
"137 190 QCURVE SMOOTH",
"158 190 LINE SMOOTH",
"160 190 OFFCURVE",
"186 194 QCURVE",
"173 168 LINE",
"170 163 OFFCURVE",
"155 131 OFFCURVE",
"147 120 QCURVE",
"136 103 OFFCURVE",
"136 89 QCURVE SMOOTH",
"136 71 OFFCURVE",
"155 58 QCURVE",
"174 46 OFFCURVE",
"196 46 QCURVE SMOOTH",
"227 46 OFFCURVE",
"241 67 QCURVE SMOOTH",
"266 107 LINE SMOOTH",
"270 113 OFFCURVE",
"281 132 OFFCURVE",
"289 144 QCURVE",
"338 -34 LINE"
);
}
);
userData = {
assembly = "NPUSHB[ ]	/* 27 values pushed */
86 12 2 3 0 4 96 64 41 30 4 3 0 35 1 1 3 48 1 2 1 4 76 47 1 2 73 
MPPEM[ ]	/* MeasurePixelPerEm */
PUSHB[ ]	/* 1 value pushed */
39 
LT[ ]	/* LessThan */
IF[ ]	/* If */
NPUSHB[ ]	/* 30 values pushed */
0 4 0 4 133 0 3 0 1 0 3 1 128 0 1 2 0 1 2 126 0 2 2 132 0 0 0 33 0 78 
ELSE[ ]	/* Else */
NPUSHB[ ]	/* 24 values pushed */
0 4 0 4 133 0 0 3 0 133 0 3 1 3 133 0 1 2 1 133 0 2 2 118 
EIF[ ]	/* EndIf */
NPUSHB[ ]	/* 13 values pushed */
103 101 68 65 55 53 37 36 19 17 5 8 22 
CALL[ ]	/* CallFunction */";
};
width = 622;
}
);
note = asterisk;
unicode = 002A;
},
{
glyphname = plus;
lastChange = "2020-12-09 22:30:36 +0000";
layers = (
{
layerId = "D6A4831D-747C-4592-93C0-305F4CD57904";
paths = (
{
closed = 1;
nodes = (
"251 -34 OFFCURVE",
"263 -26 QCURVE SMOOTH",
"304 1 OFFCURVE",
"314 24 QCURVE SMOOTH",
"336 78 OFFCURVE",
"370 191 QCURVE SMOOTH",
"376 212 OFFCURVE",
"399 233 OFFCURVE",
"422 236 QCURVE SMOOTH",
"446 239 OFFCURVE",
"495 246 QCURVE SMOOTH",
"550 255 LINE",
"576 268 OFFCURVE",
"623 322 OFFCURVE",
"623 341 QCURVE SMOOTH",
"623 365 OFFCURVE",
"584 365 QCURVE",
"571 364 LINE",
"529 359 OFFCURVE",
"442 353 QCURVE",
"434 352 OFFCURVE",
"413 358 OFFCURVE",
"408 359 QCURVE",
"409 420 LINE SMOOTH",
"409 440 OFFCURVE",
"408 450 QCURVE SMOOTH",
"402 508 OFFCURVE",
"340 530 QCURVE",
"331 534 OFFCURVE",
"321 534 QCURVE SMOOTH",
"305 534 OFFCURVE",
"285 510 OFFCURVE",
"283 490 QCURVE",
"283 485 OFFCURVE",
"287 468 OFFCURVE",
"287 463 QCURVE SMOOTH",
"288 405 LINE SMOOTH",
"288 379 OFFCURVE",
"286 367 QCURVE",
"278 328 OFFCURVE",
"263 321 OFFCURVE",
"240 315 QCURVE SMOOTH",
"189 301 OFFCURVE",
"113 269 OFFCURVE",
"81 242 QCURVE SMOOTH",
"60 224 OFFCURVE",
"60 206 QCURVE SMOOTH",
"60 172 OFFCURVE",
"98 161 QCURVE SMOOTH",
"127 153 OFFCURVE",
"143 153 QCURVE SMOOTH",
"172 153 OFFCURVE",
"196 169 QCURVE",
"221 188 OFFCURVE",
"254 188 QCURVE",
"249 154 LINE",
"243 116 LINE SMOOTH",
"230 34 OFFCURVE",
"226 -4 QCURVE SMOOTH",
"225 -18 OFFCURVE",
"234 -34 OFFCURVE",
"242 -34 QCURVE SMOOTH"
);
}
);
userData = {
assembly = "NPUSHB[ ]	/* 14 values pushed */
43 1 5 3 56 1 4 5 19 1 0 2 3 76 
MPPEM[ ]	/* MeasurePixelPerEm */
PUSHB[ ]	/* 1 value pushed */
26 
LT[ ]	/* LessThan */
IF[ ]	/* If */
NPUSHB[ ]	/* 37 values pushed */
0 3 5 3 133 0 1 4 2 4 1 2 128 0 2 0 4 2 0 126 6 1 5 5 33 77 0 4 4 33 77 0 0 0 31 0 78 
ELSE[ ]	/* Else */
MPPEM[ ]	/* MeasurePixelPerEm */
PUSHB[ ]	/* 1 value pushed */
31 
LT[ ]	/* LessThan */
IF[ ]	/* If */
NPUSHB[ ]	/* 39 values pushed */
0 3 5 3 133 0 4 5 1 5 4 1 128 0 1 2 5 1 2 126 0 2 0 5 2 0 126 6 1 5 5 33 77 0 0 0 31 0 78 
ELSE[ ]	/* Else */
NPUSHB[ ]	/* 38 values pushed */
0 3 5 3 133 0 4 5 1 5 4 1 128 0 1 2 5 1 2 126 0 2 0 5 2 0 126 0 0 0 132 6 1 5 5 33 5 78 
EIF[ ]	/* EndIf */
EIF[ ]	/* EndIf */
NPUSHB[ ]	/* 16 values pushed */
0 0 0 62 0 62 60 59 50 48 34 22 47 7 8 25 
CALL[ ]	/* CallFunction */";
};
width = 673;
}
);
note = plus;
unicode = 002B;
},
{
glyphname = comma;
lastChange = "2021-12-18 10:34:35 +0000";
layers = (
{
layerId = "D6A4831D-747C-4592-93C0-305F4CD57904";
paths = (
{
closed = 1;
nodes = (
"188 -118 OFFCURVE",
"254 47 OFFCURVE",
"260 81 QCURVE SMOOTH",
"263 95 OFFCURVE",
"206 107 OFFCURVE",
"161 103 OFFCURVE",
"158 98 QCURVE",
"120 12 LINE",
"90 -86 LINE",
"76 -152 OFFCURVE",
"60 -184 QCURVE SMOOTH",
"59 -186 OFFCURVE",
"60 -213 OFFCURVE",
"94 -208 QCURVE"
);
}
);
userData = {
assembly = "PUSHB[ ]	/* 4 values pushed */
10 2 1 50 
CALL[ ]	/* CallFunction */";
};
width = 330;
}
);
note = comma;
unicode = 002C;
},
{
glyphname = hyphen;
lastChange = "2020-12-09 22:30:36 +0000";
layers = (
{
layerId = "D6A4831D-747C-4592-93C0-305F4CD57904";
paths = (
{
closed = 1;
nodes = (
"182 199 OFFCURVE",
"196 201 QCURVE",
"228 207 LINE",
"263 215 OFFCURVE",
"284 217 QCURVE SMOOTH",
"324 220 LINE SMOOTH",
"391 227 OFFCURVE",
"439 227 QCURVE SMOOTH",
"502 227 OFFCURVE",
"545 216 QCURVE",
"548 215 OFFCURVE",
"564 218 QCURVE",
"571 229 OFFCURVE",
"571 239 QCURVE SMOOTH",
"571 249 OFFCURVE",
"559 263 OFFCURVE",
"547 272 QCURVE SMOOTH",
"509 301 OFFCURVE",
"418 323 OFFCURVE",
"364 323 QCURVE SMOOTH",
"295 323 OFFCURVE",
"189 314 QCURVE SMOOTH",
"141 311 LINE",
"114 308 OFFCURVE",
"89 297 QCURVE",
"60 283 OFFCURVE",
"60 264 QCURVE SMOOTH",
"60 247 OFFCURVE",
"80 233 QCURVE",
"125 199 OFFCURVE",
"174 199 QCURVE SMOOTH"
);
}
);
userData = {
assembly = "NPUSHB[ ]	/* 31 values pushed */
0 2 0 1 2 87 0 3 0 0 1 3 0 105 0 2 2 1 97 0 1 2 1 81 33 23 38 39 4 8 26 
CALL[ ]	/* CallFunction */";
};
width = 621;
}
);
note = hyphen;
unicode = 002D;
},
{
glyphname = period;
lastChange = "2020-12-09 22:30:36 +0000";
layers = (
{
layerId = "D6A4831D-747C-4592-93C0-305F4CD57904";
paths = (
{
closed = 1;
nodes = (
"143 -34 OFFCURVE",
"176 -4 OFFCURVE",
"182 16 QCURVE",
"184 24 OFFCURVE",
"184 28 QCURVE SMOOTH",
"184 46 OFFCURVE",
"165 87 OFFCURVE",
"152 95 QCURVE",
"142 102 OFFCURVE",
"133 102 QCURVE",
"114 95 OFFCURVE",
"100 81 OFFCURVE",
"98 79 QCURVE",
"98 79 OFFCURVE",
"89 73 QCURVE SMOOTH",
"75 64 OFFCURVE",
"60 46 OFFCURVE",
"60 34 QCURVE SMOOTH",
"60 9 OFFCURVE",
"103 -33 OFFCURVE",
"126 -34 QCURVE"
);
}
);
userData = {
assembly = "PUSHB[ ]	/* 6 values pushed */
19 1 0 1 1 76 
MPPEM[ ]	/* MeasurePixelPerEm */
PUSHB[ ]	/* 1 value pushed */
31 
LT[ ]	/* LessThan */
IF[ ]	/* If */
NPUSHB[ ]	/* 11 values pushed */
0 1 1 0 97 0 0 0 31 0 78 
ELSE[ ]	/* Else */
NPUSHB[ ]	/* 16 values pushed */
0 1 0 0 1 89 0 1 1 0 97 0 0 1 0 81 
EIF[ ]	/* EndIf */
PUSHB[ ]	/* 5 values pushed */
42 33 2 8 24 
CALL[ ]	/* CallFunction */";
};
width = 234;
}
);
note = period;
unicode = 002E;
},
{
glyphname = slash;
lastChange = "2020-12-09 22:30:36 +0000";
layers = (
{
layerId = "D6A4831D-747C-4592-93C0-305F4CD57904";
paths = (
{
closed = 1;
nodes = (
"141 -80 OFFCURVE",
"159 -53 OFFCURVE",
"169 -19 QCURVE SMOOTH",
"184 32 OFFCURVE",
"220 160 OFFCURVE",
"227 185 QCURVE SMOOTH",
"229 192 OFFCURVE",
"233 205 OFFCURVE",
"234 210 QCURVE",
"272 356 LINE SMOOTH",
"297 454 OFFCURVE",
"309 502 QCURVE",
"327 563 OFFCURVE",
"353 651 QCURVE SMOOTH",
"381 746 LINE",
"386 766 OFFCURVE",
"386 777 QCURVE SMOOTH",
"386 799 OFFCURVE",
"357 822 OFFCURVE",
"326 829 QCURVE",
"315 832 OFFCURVE",
"304 832 QCURVE SMOOTH",
"295 832 OFFCURVE",
"277 830 OFFCURVE",
"266 830 QCURVE",
"260 808 OFFCURVE",
"244 738 QCURVE SMOOTH",
"197 534 LINE SMOOTH",
"183 474 OFFCURVE",
"177 444 QCURVE SMOOTH",
"167 388 OFFCURVE",
"153 337 QCURVE SMOOTH",
"120 221 LINE SMOOTH",
"95 138 OFFCURVE",
"78 71 QCURVE SMOOTH",
"72 44 OFFCURVE",
"65 -10 QCURVE SMOOTH",
"60 -50 LINE",
"107 -80 OFFCURVE",
"127 -80 QCURVE SMOOTH"
);
}
);
userData = {
assembly = "PUSHB[ ]	/* 6 values pushed */
4 1 0 1 1 76 
MPPEM[ ]	/* MeasurePixelPerEm */
PUSHB[ ]	/* 1 value pushed */
31 
LT[ ]	/* LessThan */
IF[ ]	/* If */
NPUSHB[ ]	/* 12 values pushed */
2 1 1 0 1 133 0 0 0 31 0 78 
ELSE[ ]	/* Else */
NPUSHB[ ]	/* 10 values pushed */
2 1 1 0 1 133 0 0 0 118 
EIF[ ]	/* EndIf */
PUSHB[ ]	/* 6 values pushed */
33 30 33 3 8 25 
CALL[ ]	/* CallFunction */";
};
width = 436;
}
);
note = slash;
unicode = 002F;
},
{
glyphname = zero;
lastChange = "2020-12-09 22:30:36 +0000";
layers = (
{
layerId = "D6A4831D-747C-4592-93C0-305F4CD57904";
paths = (
{
closed = 1;
nodes = (
"314 -35 OFFCURVE",
"363 2 QCURVE SMOOTH",
"417 43 OFFCURVE",
"460 131 QCURVE SMOOTH",
"485 182 OFFCURVE",
"514 266 OFFCURVE",
"514 309 QCURVE",
"513 367 OFFCURVE",
"483 420 QCURVE SMOOTH",
"475 434 OFFCURVE",
"449 469 QCURVE",
"439 481 OFFCURVE",
"429 496 QCURVE",
"419 508 LINE",
"434 511 LINE",
"444 512 LINE",
"453 514 LINE",
"465 519 LINE SMOOTH",
"481 526 OFFCURVE",
"483 528 QCURVE",
"485 536 OFFCURVE",
"477 560 OFFCURVE",
"473 563 QCURVE",
"448 576 OFFCURVE",
"417 590 OFFCURVE",
"402 590 QCURVE SMOOTH",
"399 590 LINE",
"308 586 OFFCURVE",
"238 528 QCURVE SMOOTH",
"204 500 OFFCURVE",
"135 424 OFFCURVE",
"115 395 QCURVE",
"60 323 OFFCURVE",
"60 228 QCURVE SMOOTH",
"60 180 OFFCURVE",
"74 120 QCURVE SMOOTH",
"86 70 OFFCURVE",
"150 -6 OFFCURVE",
"195 -23 QCURVE SMOOTH",
"227 -35 OFFCURVE",
"257 -35 QCURVE SMOOTH"
);
},
{
closed = 1;
nodes = (
"213 53 OFFCURVE",
"207 55 QCURVE SMOOTH",
"192 60 OFFCURVE",
"168 106 OFFCURVE",
"165 127 QCURVE SMOOTH",
"161 153 OFFCURVE",
"162 176 QCURVE SMOOTH",
"166 314 OFFCURVE",
"261 409 QCURVE SMOOTH",
"306 454 OFFCURVE",
"344 479 QCURVE",
"368 497 OFFCURVE",
"382 497 QCURVE SMOOTH",
"388 497 OFFCURVE",
"392 495 QCURVE",
"409 485 OFFCURVE",
"411 441 QCURVE",
"412 437 OFFCURVE",
"412 428 QCURVE",
"413 422 LINE",
"413 421 LINE",
"404 203 OFFCURVE",
"283 82 QCURVE SMOOTH",
"271 70 OFFCURVE",
"236 53 OFFCURVE",
"220 53 QCURVE SMOOTH"
);
}
);
userData = {
assembly = "PUSHB[ ]	/* 6 values pushed */
17 1 3 0 1 76 
MPPEM[ ]	/* MeasurePixelPerEm */
PUSHB[ ]	/* 1 value pushed */
29 
LT[ ]	/* LessThan */
IF[ ]	/* If */
NPUSHB[ ]	/* 19 values pushed */
0 0 0 3 2 0 3 105 0 2 2 1 97 0 1 1 31 1 78 
ELSE[ ]	/* Else */
NPUSHB[ ]	/* 24 values pushed */
0 0 0 3 2 0 3 105 0 2 1 1 2 89 0 2 2 1 97 0 1 2 1 81 
EIF[ ]	/* EndIf */
NPUSHB[ ]	/* 10 values pushed */
63 62 50 49 32 30 51 4 8 23 
CALL[ ]	/* CallFunction */";
};
width = 564;
}
);
note = zero;
unicode = 0030;
},
{
glyphname = one;
lastChange = "2020-12-09 22:30:36 +0000";
layers = (
{
layerId = "D6A4831D-747C-4592-93C0-305F4CD57904";
paths = (
{
closed = 1;
nodes = (
"356 -2 OFFCURVE",
"366 29 OFFCURVE",
"366 40 QCURVE SMOOTH",
"366 181 LINE SMOOTH",
"366 235 OFFCURVE",
"367 262 QCURVE SMOOTH",
"373 420 LINE SMOOTH",
"374 446 OFFCURVE",
"379 524 OFFCURVE",
"379 578 QCURVE SMOOTH",
"379 600 LINE SMOOTH",
"379 617 OFFCURVE",
"369 637 OFFCURVE",
"353 642 QCURVE",
"348 644 OFFCURVE",
"310 656 OFFCURVE",
"293 656 QCURVE SMOOTH",
"266 656 OFFCURVE",
"247 632 QCURVE SMOOTH",
"149 502 LINE",
"77 408 LINE",
"57 387 OFFCURVE",
"61 371 QCURVE SMOOTH",
"73 316 OFFCURVE",
"124 329 OFFCURVE",
"140 350 QCURVE",
"154 372 OFFCURVE",
"168 393 QCURVE SMOOTH",
"195 433 OFFCURVE",
"267 512 QCURVE",
"271 510 OFFCURVE",
"278 508 OFFCURVE",
"281 507 QCURVE",
"281 502 OFFCURVE",
"283 492 OFFCURVE",
"283 488 QCURVE SMOOTH",
"283 436 OFFCURVE",
"281 333 QCURVE SMOOTH",
"277 182 OFFCURVE",
"279 106 QCURVE SMOOTH",
"280 58 OFFCURVE",
"283 34 QCURVE SMOOTH",
"286 8 OFFCURVE",
"322 -4 OFFCURVE",
"353 -3 QCURVE"
);
}
);
userData = {
assembly = "PUSHB[ ]	/* 6 values pushed */
45 1 0 1 1 76 
MPPEM[ ]	/* MeasurePixelPerEm */
PUSHB[ ]	/* 1 value pushed */
21 
LT[ ]	/* LessThan */
IF[ ]	/* If */
NPUSHB[ ]	/* 19 values pushed */
0 0 1 2 1 0 2 128 0 1 1 36 77 0 2 2 40 2 78 
ELSE[ ]	/* Else */
MPPEM[ ]	/* MeasurePixelPerEm */
PUSHB[ ]	/* 1 value pushed */
36 
LT[ ]	/* LessThan */
IF[ ]	/* If */
NPUSHB[ ]	/* 16 values pushed */
0 1 0 1 133 0 0 2 0 133 0 2 2 40 2 78 
ELSE[ ]	/* Else */
NPUSHB[ ]	/* 14 values pushed */
0 1 0 1 133 0 0 2 0 133 0 2 2 118 
EIF[ ]	/* EndIf */
EIF[ ]	/* EndIf */
PUSHB[ ]	/* 7 values pushed */
37 35 40 39 3 8 24 
CALL[ ]	/* CallFunction */";
};
width = 469;
}
);
note = one;
unicode = 0031;
},
{
glyphname = two;
lastChange = "2020-12-09 22:30:36 +0000";
layers = (
{
layerId = "D6A4831D-747C-4592-93C0-305F4CD57904";
paths = (
{
closed = 1;
nodes = (
"350 -31 OFFCURVE",
"404 -13 QCURVE SMOOTH",
"454 4 OFFCURVE",
"574 62 OFFCURVE",
"574 89 QCURVE SMOOTH",
"574 91 OFFCURVE",
"572 98 QCURVE",
"565 112 OFFCURVE",
"544 112 QCURVE SMOOTH",
"519 112 OFFCURVE",
"455 85 OFFCURVE",
"448 82 QCURVE",
"387 61 OFFCURVE",
"282 43 OFFCURVE",
"216 39 QCURVE",
"304 202 OFFCURVE",
"387 369 QCURVE SMOOTH",
"391 377 OFFCURVE",
"414 421 QCURVE SMOOTH",
"426 444 OFFCURVE",
"426 466 QCURVE",
"393 546 OFFCURVE",
"333 578 OFFCURVE",
"295 578 QCURVE SMOOTH",
"264 578 OFFCURVE",
"227 565 QCURVE",
"120 504 OFFCURVE",
"60 437 OFFCURVE",
"60 406 QCURVE SMOOTH",
"60 377 OFFCURVE",
"100 352 QCURVE SMOOTH",
"108 347 OFFCURVE",
"115 347 QCURVE SMOOTH",
"132 347 OFFCURVE",
"171 381 OFFCURVE",
"198 411 QCURVE SMOOTH",
"213 428 LINE",
"229 450 LINE SMOOTH",
"253 484 OFFCURVE",
"263 493 QCURVE",
"274 501 OFFCURVE",
"285 501 QCURVE SMOOTH",
"299 501 OFFCURVE",
"315 469 OFFCURVE",
"313 450 QCURVE",
"278 368 OFFCURVE",
"224 265 OFFCURVE",
"217 253 QCURVE SMOOTH",
"163 161 OFFCURVE",
"111 42 OFFCURVE",
"111 22 QCURVE SMOOTH",
"111 16 OFFCURVE",
"114 14 QCURVE",
"213 -31 OFFCURVE",
"294 -31 QCURVE SMOOTH"
);
}
);
userData = {
assembly = "PUSHB[ ]	/* 6 values pushed */
1 1 5 3 1 76 
MPPEM[ ]	/* MeasurePixelPerEm */
PUSHB[ ]	/* 1 value pushed */
39 
LT[ ]	/* LessThan */
IF[ ]	/* If */
NPUSHB[ ]	/* 34 values pushed */
0 1 0 4 0 1 4 128 0 4 3 0 4 3 126 0 2 0 0 1 2 0 105 0 3 3 5 97 0 5 5 31 5 78 
ELSE[ ]	/* Else */
NPUSHB[ ]	/* 39 values pushed */
0 1 0 4 0 1 4 128 0 4 3 0 4 3 126 0 2 0 0 1 2 0 105 0 3 5 5 3 89 0 3 3 5 97 0 5 3 5 81 
EIF[ ]	/* EndIf */
NPUSHB[ ]	/* 9 values pushed */
39 36 25 41 23 42 6 8 28 
CALL[ ]	/* CallFunction */";
};
width = 624;
}
);
note = two;
unicode = 0032;
},
{
glyphname = three;
lastChange = "2020-12-09 22:30:36 +0000";
layers = (
{
layerId = "D6A4831D-747C-4592-93C0-305F4CD57904";
paths = (
{
closed = 1;
nodes = (
"243 -61 OFFCURVE",
"299 -24 OFFCURVE",
"330 18 QCURVE SMOOTH",
"371 72 OFFCURVE",
"407 199 OFFCURVE",
"407 274 QCURVE",
"377 385 OFFCURVE",
"309 415 OFFCURVE",
"248 423 QCURVE",
"253 431 OFFCURVE",
"274 458 QCURVE",
"288 478 OFFCURVE",
"289 479 QCURVE",
"306 508 OFFCURVE",
"306 531 QCURVE SMOOTH",
"306 563 OFFCURVE",
"273 591 QCURVE",
"243 614 OFFCURVE",
"201 614 QCURVE SMOOTH",
"150 614 OFFCURVE",
"104 579 QCURVE",
"72 562 OFFCURVE",
"60 551 OFFCURVE",
"60 544 QCURVE SMOOTH",
"60 539 OFFCURVE",
"62 531 QCURVE",
"73 523 OFFCURVE",
"91 523 QCURVE SMOOTH",
"108 523 OFFCURVE",
"139 532 QCURVE",
"165 538 OFFCURVE",
"172 538 QCURVE SMOOTH",
"193 538 OFFCURVE",
"193 518 QCURVE SMOOTH",
"193 512 OFFCURVE",
"191 501 QCURVE",
"186 479 OFFCURVE",
"180 471 QCURVE",
"134 399 LINE",
"87 326 LINE SMOOTH",
"76 309 OFFCURVE",
"76 300 QCURVE SMOOTH",
"76 296 OFFCURVE",
"77 296 QCURVE",
"92 285 OFFCURVE",
"110 275 OFFCURVE",
"121 275 QCURVE SMOOTH",
"133 275 OFFCURVE",
"145 283 QCURVE",
"233 347 LINE",
"253 360 OFFCURVE",
"263 360 QCURVE SMOOTH",
"287 360 OFFCURVE",
"293 314 QCURVE",
"295 289 OFFCURVE",
"295 276 QCURVE SMOOTH",
"295 189 OFFCURVE",
"254 91 QCURVE SMOOTH",
"236 46 OFFCURVE",
"180 -10 OFFCURVE",
"136 -15 QCURVE",
"131 -16 OFFCURVE",
"111 -25 OFFCURVE",
"103 -28 QCURVE",
"170 -61 OFFCURVE",
"211 -61 QCURVE SMOOTH"
);
}
);
userData = {
assembly = "NPUSHB[ ]	/* 10 values pushed */
60 1 1 4 4 1 0 2 2 76 
MPPEM[ ]	/* MeasurePixelPerEm */
PUSHB[ ]	/* 1 value pushed */
21 
LT[ ]	/* LessThan */
IF[ ]	/* If */
NPUSHB[ ]	/* 37 values pushed */
0 4 3 1 3 4 1 128 0 1 2 3 1 2 126 0 2 0 3 2 0 126 0 0 0 132 0 3 3 5 97 0 5 5 32 3 78 
ELSE[ ]	/* Else */
NPUSHB[ ]	/* 42 values pushed */
0 4 3 1 3 4 1 128 0 1 2 3 1 2 126 0 2 0 3 2 0 126 0 0 0 132 0 5 3 3 5 89 0 5 5 3 97 0 3 5 3 81 
EIF[ ]	/* EndIf */
NPUSHB[ ]	/* 9 values pushed */
40 35 29 35 44 33 6 8 28 
CALL[ ]	/* CallFunction */";
};
width = 457;
}
);
note = three;
unicode = 0033;
},
{
glyphname = four;
lastChange = "2020-12-09 22:30:36 +0000";
layers = (
{
layerId = "D6A4831D-747C-4592-93C0-305F4CD57904";
paths = (
{
closed = 1;
nodes = (
"350 -123 OFFCURVE",
"368 -109 OFFCURVE",
"371 -102 QCURVE SMOOTH",
"383 -76 OFFCURVE",
"386 -31 QCURVE SMOOTH",
"402 183 LINE",
"404 235 OFFCURVE",
"426 262 OFFCURVE",
"474 274 QCURVE SMOOTH",
"487 277 OFFCURVE",
"518 294 QCURVE",
"540 305 OFFCURVE",
"542 308 QCURVE",
"525 346 OFFCURVE",
"492 346 QCURVE SMOOTH",
"482 346 OFFCURVE",
"456 339 OFFCURVE",
"451 338 QCURVE",
"440 333 OFFCURVE",
"426 331 QCURVE",
"426 340 OFFCURVE",
"431 361 OFFCURVE",
"432 365 QCURVE SMOOTH",
"440 402 OFFCURVE",
"445 421 QCURVE",
"456 476 OFFCURVE",
"459 504 QCURVE SMOOTH",
"462 532 OFFCURVE",
"462 559 QCURVE SMOOTH",
"462 590 OFFCURVE",
"458 613 QCURVE SMOOTH",
"455 632 OFFCURVE",
"399 647 OFFCURVE",
"365 647 QCURVE SMOOTH",
"335 647 OFFCURVE",
"325 644 QCURVE",
"318 641 OFFCURVE",
"285 632 OFFCURVE",
"278 623 QCURVE",
"154 479 OFFCURVE",
"76 306 QCURVE SMOOTH",
"57 267 OFFCURVE",
"60 240 QCURVE SMOOTH",
"61 230 OFFCURVE",
"61 226 QCURVE",
"66 201 OFFCURVE",
"122 170 OFFCURVE",
"157 170 QCURVE SMOOTH",
"178 170 OFFCURVE",
"191 174 QCURVE SMOOTH",
"243 191 OFFCURVE",
"279 198 QCURVE",
"312 207 LINE",
"312 199 OFFCURVE",
"313 180 OFFCURVE",
"312 168 QCURVE SMOOTH",
"310 132 LINE SMOOTH",
"309 106 OFFCURVE",
"306 54 QCURVE",
"307 -19 OFFCURVE",
"309 -96 QCURVE SMOOTH",
"310 -133 OFFCURVE",
"339 -126 QCURVE SMOOTH"
);
},
{
closed = 1;
nodes = (
"176 244 OFFCURVE",
"163 246 OFFCURVE",
"159 247 QCURVE",
"210 410 OFFCURVE",
"355 546 QCURVE",
"353 520 LINE",
"349 486 OFFCURVE",
"348 467 QCURVE",
"340 395 OFFCURVE",
"327 312 QCURVE SMOOTH",
"326 305 OFFCURVE",
"317 287 OFFCURVE",
"311 286 QCURVE",
"244 266 OFFCURVE",
"179 245 QCURVE SMOOTH"
);
}
);
userData = {
assembly = "NPUSHB[ ]	/* 17 values pushed */
78 75 2 0 3 65 9 2 1 0 2 76 30 18 2 2 73 
MPPEM[ ]	/* MeasurePixelPerEm */
PUSHB[ ]	/* 1 value pushed */
21 
LT[ ]	/* LessThan */
IF[ ]	/* If */
NPUSHB[ ]	/* 23 values pushed */
0 1 0 2 0 1 2 128 0 2 2 132 0 3 3 32 77 0 0 0 33 0 78 
ELSE[ ]	/* Else */
MPPEM[ ]	/* MeasurePixelPerEm */
PUSHB[ ]	/* 1 value pushed */
44 
LT[ ]	/* LessThan */
IF[ ]	/* If */
NPUSHB[ ]	/* 25 values pushed */
0 0 3 1 3 0 1 128 0 1 2 3 1 2 126 0 2 2 132 0 3 3 32 3 78 
ELSE[ ]	/* Else */
NPUSHB[ ]	/* 19 values pushed */
0 3 0 3 133 0 0 1 0 133 0 1 2 1 133 0 2 2 118 
EIF[ ]	/* EndIf */
EIF[ ]	/* EndIf */
NPUSHB[ ]	/* 10 values pushed */
53 51 39 37 34 32 38 4 8 23 
CALL[ ]	/* CallFunction */";
};
width = 592;
}
);
note = four;
unicode = 0034;
},
{
glyphname = five;
lastChange = "2020-12-09 22:30:36 +0000";
layers = (
{
layerId = "D6A4831D-747C-4592-93C0-305F4CD57904";
paths = (
{
closed = 1;
nodes = (
"266 -13 OFFCURVE",
"289 -10 QCURVE SMOOTH",
"333 -5 OFFCURVE",
"392 57 OFFCURVE",
"417 108 QCURVE SMOOTH",
"442 160 OFFCURVE",
"442 204 QCURVE SMOOTH",
"442 273 OFFCURVE",
"378 324 QCURVE SMOOTH",
"365 335 OFFCURVE",
"353 342 QCURVE",
"332 356 OFFCURVE",
"302 383 QCURVE",
"279 401 OFFCURVE",
"277 402 QCURVE",
"315 468 OFFCURVE",
"377 529 OFFCURVE",
"388 531 QCURVE SMOOTH",
"462 546 OFFCURVE",
"581 561 QCURVE SMOOTH",
"638 568 LINE",
"659 572 OFFCURVE",
"674 576 QCURVE",
"682 579 OFFCURVE",
"690 602 OFFCURVE",
"690 614 QCURVE SMOOTH",
"690 625 OFFCURVE",
"684 641 OFFCURVE",
"679 642 QCURVE",
"637 646 LINE SMOOTH",
"620 648 OFFCURVE",
"615 648 QCURVE SMOOTH",
"606 648 OFFCURVE",
"575 645 QCURVE SMOOTH",
"553 643 OFFCURVE",
"474 631 QCURVE SMOOTH",
"386 616 OFFCURVE",
"340 614 QCURVE SMOOTH",
"305 613 OFFCURVE",
"258 587 OFFCURVE",
"238 557 QCURVE SMOOTH",
"186 479 OFFCURVE",
"140 434 QCURVE SMOOTH",
"126 420 OFFCURVE",
"113 403 OFFCURVE",
"114 397 QCURVE",
"115 389 OFFCURVE",
"147 372 QCURVE SMOOTH",
"175 356 OFFCURVE",
"192 354 QCURVE SMOOTH",
"242 347 OFFCURVE",
"300 286 OFFCURVE",
"320 238 QCURVE",
"332 215 OFFCURVE",
"332 187 QCURVE SMOOTH",
"332 149 OFFCURVE",
"305 117 QCURVE",
"287 91 OFFCURVE",
"239 61 OFFCURVE",
"205 61 QCURVE SMOOTH",
"188 61 OFFCURVE",
"179 63 QCURVE SMOOTH",
"161 67 OFFCURVE",
"141 67 QCURVE SMOOTH",
"118 67 OFFCURVE",
"93 63 QCURVE",
"82 63 OFFCURVE",
"61 61 QCURVE",
"60 54 LINE",
"140 -13 OFFCURVE",
"245 -13 QCURVE SMOOTH"
);
}
);
userData = {
assembly = "NPUSHB[ ]	/* 10 values pushed */
48 1 1 4 25 1 0 1 2 76 
MPPEM[ ]	/* MeasurePixelPerEm */
PUSHB[ ]	/* 1 value pushed */
21 
LT[ ]	/* LessThan */
IF[ ]	/* If */
NPUSHB[ ]	/* 23 values pushed */
0 5 5 32 77 0 4 4 32 77 3 2 2 1 1 0 97 0 0 0 31 0 78 
ELSE[ ]	/* Else */
MPPEM[ ]	/* MeasurePixelPerEm */
PUSHB[ ]	/* 1 value pushed */
41 
LT[ ]	/* LessThan */
IF[ ]	/* If */
NPUSHB[ ]	/* 26 values pushed */
0 4 5 1 5 4 1 128 0 5 5 32 77 3 2 2 1 1 0 97 0 0 0 31 0 78 
ELSE[ ]	/* Else */
NPUSHB[ ]	/* 23 values pushed */
0 5 4 5 133 0 4 1 4 133 3 2 2 1 1 0 97 0 0 0 31 0 78 
EIF[ ]	/* EndIf */
EIF[ ]	/* EndIf */
NPUSHB[ ]	/* 15 values pushed */
62 61 57 55 35 33 31 29 28 27 24 22 6 8 22 
CALL[ ]	/* CallFunction */";
};
width = 700;
}
);
note = five;
unicode = 0035;
},
{
glyphname = six;
lastChange = "2020-12-09 22:30:36 +0000";
layers = (
{
layerId = "D6A4831D-747C-4592-93C0-305F4CD57904";
paths = (
{
closed = 1;
nodes = (
"403 -7 OFFCURVE",
"448 29 QCURVE SMOOTH",
"468 45 OFFCURVE",
"497 102 OFFCURVE",
"497 128 QCURVE",
"456 209 OFFCURVE",
"393 240 OFFCURVE",
"361 240 QCURVE SMOOTH",
"327 240 OFFCURVE",
"303 222 QCURVE SMOOTH",
"283 207 OFFCURVE",
"253 180 OFFCURVE",
"235 156 QCURVE SMOOTH",
"229 148 OFFCURVE",
"216 127 OFFCURVE",
"212 127 QCURVE SMOOTH",
"206 127 OFFCURVE",
"195 151 QCURVE SMOOTH",
"172 200 OFFCURVE",
"171 261 QCURVE SMOOTH",
"170 306 OFFCURVE",
"201 390 OFFCURVE",
"227 438 QCURVE",
"231 444 OFFCURVE",
"236 454 OFFCURVE",
"238 458 QCURVE",
"287 534 OFFCURVE",
"335 563 OFFCURVE",
"369 563 QCURVE SMOOTH",
"374 563 OFFCURVE",
"389 579 OFFCURVE",
"388 583 QCURVE SMOOTH",
"384 598 OFFCURVE",
"374 616 OFFCURVE",
"367 622 QCURVE",
"347 637 OFFCURVE",
"309 637 QCURVE SMOOTH",
"284 637 OFFCURVE",
"237 622 OFFCURVE",
"222 606 QCURVE SMOOTH",
"72 446 OFFCURVE",
"61 255 QCURVE",
"60 248 OFFCURVE",
"60 237 QCURVE",
"140 71 OFFCURVE",
"259 1 OFFCURVE",
"311 -5 QCURVE SMOOTH",
"320 -6 OFFCURVE",
"338 -6 QCURVE SMOOTH"
);
},
{
closed = 1;
nodes = (
"296 73 OFFCURVE",
"283 82 QCURVE",
"300 134 OFFCURVE",
"322 151 OFFCURVE",
"345 164 QCURVE SMOOTH",
"354 169 OFFCURVE",
"362 169 QCURVE SMOOTH",
"381 169 OFFCURVE",
"396 145 QCURVE SMOOTH",
"402 135 OFFCURVE",
"402 126 QCURVE SMOOTH",
"402 105 OFFCURVE",
"350 73 OFFCURVE",
"320 73 QCURVE SMOOTH"
);
}
);
userData = {
assembly = "NPUSHB[ ]	/* 10 values pushed */
15 1 1 0 55 1 5 2 2 76 
MPPEM[ ]	/* MeasurePixelPerEm */
PUSHB[ ]	/* 1 value pushed */
44 
LT[ ]	/* LessThan */
IF[ ]	/* If */
NPUSHB[ ]	/* 37 values pushed */
0 2 6 5 6 2 5 128 0 3 0 6 2 3 6 105 0 1 1 0 97 0 0 0 32 77 0 5 5 4 97 0 4 4 31 4 78 
ELSE[ ]	/* Else */
NPUSHB[ ]	/* 34 values pushed */
0 2 6 5 6 2 5 128 0 3 0 6 2 3 6 105 0 5 0 4 5 4 101 0 1 1 0 97 0 0 0 32 1 78 
EIF[ ]	/* EndIf */
NPUSHB[ ]	/* 10 values pushed */
21 38 39 38 44 38 41 7 8 29 
CALL[ ]	/* CallFunction */";
};
width = 547;
}
);
note = six;
unicode = 0036;
},
{
glyphname = seven;
lastChange = "2020-12-09 22:30:36 +0000";
layers = (
{
layerId = "D6A4831D-747C-4592-93C0-305F4CD57904";
paths = (
{
closed = 1;
nodes = (
"310 -32 OFFCURVE",
"319 -29 QCURVE SMOOTH",
"341 -22 OFFCURVE",
"360 19 QCURVE SMOOTH",
"375 54 OFFCURVE",
"395 115 QCURVE SMOOTH",
"404 142 LINE SMOOTH",
"413 169 OFFCURVE",
"423 204 QCURVE SMOOTH",
"445 282 OFFCURVE",
"464 328 QCURVE SMOOTH",
"492 395 OFFCURVE",
"525 485 OFFCURVE",
"547 528 QCURVE SMOOTH",
"561 556 OFFCURVE",
"561 575 QCURVE SMOOTH",
"561 609 OFFCURVE",
"514 623 QCURVE SMOOTH",
"487 631 OFFCURVE",
"448 632 QCURVE SMOOTH",
"284 636 OFFCURVE",
"204 623 QCURVE SMOOTH",
"180 619 OFFCURVE",
"122 614 OFFCURVE",
"111 613 QCURVE",
"94 610 OFFCURVE",
"60 606 QCURVE",
"84 562 OFFCURVE",
"126 532 OFFCURVE",
"159 532 QCURVE SMOOTH",
"169 532 OFFCURVE",
"195 534 QCURVE SMOOTH",
"358 547 OFFCURVE",
"407 550 QCURVE SMOOTH",
"423 551 OFFCURVE",
"444 536 OFFCURVE",
"444 520 QCURVE SMOOTH",
"444 512 OFFCURVE",
"443 508 QCURVE SMOOTH",
"438 486 OFFCURVE",
"411 427 OFFCURVE",
"408 421 QCURVE SMOOTH",
"388 380 OFFCURVE",
"381 358 QCURVE SMOOTH",
"366 311 OFFCURVE",
"327 214 OFFCURVE",
"323 203 QCURVE SMOOTH",
"287 102 OFFCURVE",
"265 47 QCURVE SMOOTH",
"259 32 OFFCURVE",
"260 17 QCURVE SMOOTH",
"262 -7 OFFCURVE",
"270 -20 QCURVE",
"278 -32 OFFCURVE",
"301 -32 QCURVE SMOOTH"
);
}
);
userData = {
assembly = "NPUSHB[ ]	/* 11 values pushed */
4 1 3 1 49 35 2 2 0 2 76 
MPPEM[ ]	/* MeasurePixelPerEm */
PUSHB[ ]	/* 1 value pushed */
36 
LT[ ]	/* LessThan */
IF[ ]	/* If */
NPUSHB[ ]	/* 24 values pushed */
0 0 3 2 3 0 2 128 0 3 3 1 97 0 1 1 32 77 0 2 2 31 2 78 
ELSE[ ]	/* Else */
NPUSHB[ ]	/* 23 values pushed */
0 0 3 2 3 0 2 128 0 2 2 132 0 3 3 1 97 0 1 1 32 3 78 
EIF[ ]	/* EndIf */
NPUSHB[ ]	/* 9 values pushed */
53 51 32 30 40 32 4 8 24 
CALL[ ]	/* CallFunction */";
};
width = 611;
}
);
note = seven;
unicode = 0037;
},
{
glyphname = eight;
lastChange = "2020-12-09 22:30:36 +0000";
layers = (
{
layerId = "D6A4831D-747C-4592-93C0-305F4CD57904";
paths = (
{
closed = 1;
nodes = (
"320 2 OFFCURVE",
"410 77 OFFCURVE",
"431 139 QCURVE SMOOTH",
"453 210 OFFCURVE",
"468 278 OFFCURVE",
"468 317 QCURVE SMOOTH",
"468 352 OFFCURVE",
"441 441 OFFCURVE",
"421 461 QCURVE",
"409 476 OFFCURVE",
"382 503 OFFCURVE",
"382 506 QCURVE SMOOTH",
"382 510 OFFCURVE",
"406 528 OFFCURVE",
"420 540 QCURVE SMOOTH",
"435 553 OFFCURVE",
"459 624 OFFCURVE",
"459 649 QCURVE SMOOTH",
"459 662 OFFCURVE",
"455 666 QCURVE SMOOTH",
"434 687 OFFCURVE",
"383 733 OFFCURVE",
"354 742 QCURVE SMOOTH",
"313 755 OFFCURVE",
"283 753 QCURVE SMOOTH",
"234 750 OFFCURVE",
"153 704 OFFCURVE",
"113 657 QCURVE",
"95 624 OFFCURVE",
"77 583 OFFCURVE",
"77 560 QCURVE SMOOTH",
"77 530 OFFCURVE",
"94 502 QCURVE",
"104 482 OFFCURVE",
"139 459 OFFCURVE",
"167 450 QCURVE",
"163 444 OFFCURVE",
"144 424 OFFCURVE",
"143 420 QCURVE",
"127 390 LINE SMOOTH",
"92 324 OFFCURVE",
"64 247 OFFCURVE",
"62 198 QCURVE",
"60 184 OFFCURVE",
"60 177 QCURVE",
"117 51 OFFCURVE",
"210 2 OFFCURVE",
"261 2 QCURVE SMOOTH"
);
},
{
closed = 1;
nodes = (
"229 73 OFFCURVE",
"219 78 QCURVE",
"203 88 OFFCURVE",
"179 134 OFFCURVE",
"176 158 QCURVE SMOOTH",
"171 198 OFFCURVE",
"171 231 QCURVE SMOOTH",
"171 322 OFFCURVE",
"207 377 QCURVE SMOOTH",
"226 406 OFFCURVE",
"277 446 OFFCURVE",
"325 477 QCURVE",
"351 414 OFFCURVE",
"368 338 OFFCURVE",
"366 312 QCURVE",
"357 268 OFFCURVE",
"323 183 OFFCURVE",
"295 124 QCURVE SMOOTH",
"285 103 OFFCURVE",
"256 73 OFFCURVE",
"238 73 QCURVE SMOOTH"
);
},
{
closed = 1;
nodes = (
"203 512 OFFCURVE",
"191 529 OFFCURVE",
"191 544 QCURVE",
"228 648 OFFCURVE",
"292 686 OFFCURVE",
"331 686 QCURVE SMOOTH",
"346 686 OFFCURVE",
"364 670 OFFCURVE",
"364 658 QCURVE SMOOTH",
"364 648 OFFCURVE",
"360 640 QCURVE SMOOTH",
"315 550 OFFCURVE",
"233 516 QCURVE SMOOTH",
"224 512 OFFCURVE",
"215 512 QCURVE SMOOTH"
);
}
);
userData = {
assembly = "NPUSHB[ ]	/* 56 values pushed */
20 1 2 3 45 43 2 3 4 2 2 76 0 2 3 4 3 2 4 128 0 0 5 1 3 2 0 3 105 0 4 4 1 97 0 1 1 40 1 78 50 50 82 80 50 65 50 64 57 55 40 38 44 6 8 23 
CALL[ ]	/* CallFunction */";
};
width = 548;
}
);
note = eight;
unicode = 0038;
},
{
glyphname = nine;
lastChange = "2020-12-09 22:30:36 +0000";
layers = (
{
layerId = "D6A4831D-747C-4592-93C0-305F4CD57904";
paths = (
{
closed = 1;
nodes = (
"415 -48 OFFCURVE",
"427 -39 OFFCURVE",
"427 -28 QCURVE SMOOTH",
"427 -25 OFFCURVE",
"425 -14 QCURVE",
"405 77 OFFCURVE",
"405 171 QCURVE SMOOTH",
"405 314 OFFCURVE",
"454 485 QCURVE SMOOTH",
"460 504 OFFCURVE",
"460 511 QCURVE SMOOTH",
"460 527 OFFCURVE",
"443 537 QCURVE",
"420 552 OFFCURVE",
"394 552 QCURVE SMOOTH",
"369 552 OFFCURVE",
"359 538 QCURVE",
"289 457 OFFCURVE",
"213 433 QCURVE SMOOTH",
"199 429 OFFCURVE",
"186 429 QCURVE SMOOTH",
"169 429 OFFCURVE",
"161 435 QCURVE",
"155 441 OFFCURVE",
"149 464 OFFCURVE",
"149 475 QCURVE SMOOTH",
"149 484 OFFCURVE",
"150 488 QCURVE",
"228 612 OFFCURVE",
"323 659 OFFCURVE",
"367 656 QCURVE",
"374 650 OFFCURVE",
"405 624 OFFCURVE",
"419 620 QCURVE",
"422 618 OFFCURVE",
"431 618 QCURVE SMOOTH",
"453 618 OFFCURVE",
"470 630 QCURVE",
"473 633 OFFCURVE",
"473 643 QCURVE SMOOTH",
"473 651 OFFCURVE",
"469 669 OFFCURVE",
"466 674 QCURVE",
"443 705 OFFCURVE",
"374 735 OFFCURVE",
"333 735 QCURVE SMOOTH",
"255 735 OFFCURVE",
"136 651 OFFCURVE",
"87 577 QCURVE SMOOTH",
"60 536 OFFCURVE",
"60 497 QCURVE SMOOTH",
"60 476 OFFCURVE",
"65 462 QCURVE",
"78 421 OFFCURVE",
"167 357 OFFCURVE",
"209 357 QCURVE SMOOTH",
"230 357 OFFCURVE",
"281 375 OFFCURVE",
"291 378 QCURVE SMOOTH",
"300 381 OFFCURVE",
"307 381 QCURVE SMOOTH",
"315 381 OFFCURVE",
"320 368 OFFCURVE",
"319 352 QCURVE SMOOTH",
"311 230 OFFCURVE",
"311 166 QCURVE SMOOTH",
"311 132 LINE SMOOTH",
"312 101 OFFCURVE",
"326 43 OFFCURVE",
"339 -7 QCURVE",
"345 -27 OFFCURVE",
"378 -48 OFFCURVE",
"401 -48 QCURVE SMOOTH"
);
}
);
userData = {
assembly = "NPUSHB[ ]	/* 70 values pushed */
23 8 2 1 2 1 76 0 7 0 2 0 7 2 128 0 2 1 0 2 1 126 0 4 1 5 1 4 5 128 0 3 5 3 134 0 6 0 0 7 6 0 105 0 1 4 5 1 89 0 1 1 5 97 0 5 1 5 81 40 40 35 42 45 36 41 18 8 8 30 
CALL[ ]	/* CallFunction */";
};
width = 523;
}
);
note = nine;
unicode = 0039;
},
{
glyphname = colon;
lastChange = "2020-12-09 22:30:36 +0000";
layers = (
{
layerId = "D6A4831D-747C-4592-93C0-305F4CD57904";
paths = (
{
closed = 1;
nodes = (
"187 27 OFFCURVE",
"203 40 QCURVE",
"215 49 OFFCURVE",
"215 67 QCURVE SMOOTH",
"215 80 OFFCURVE",
"203 105 OFFCURVE",
"190 114 QCURVE",
"164 130 OFFCURVE",
"114 163 QCURVE SMOOTH",
"80 185 LINE",
"63 174 LINE",
"63 166 OFFCURVE",
"60 148 OFFCURVE",
"60 140 QCURVE SMOOTH",
"60 131 OFFCURVE",
"64 125 QCURVE SMOOTH",
"89 87 OFFCURVE",
"133 43 QCURVE SMOOTH",
"149 27 OFFCURVE",
"170 27 QCURVE SMOOTH"
);
},
{
closed = 1;
nodes = (
"195 248 OFFCURVE",
"217 272 OFFCURVE",
"217 293 QCURVE",
"182 361 OFFCURVE",
"133 400 OFFCURVE",
"113 402 QCURVE",
"109 399 OFFCURVE",
"89 384 OFFCURVE",
"87 376 QCURVE",
"85 372 OFFCURVE",
"85 361 QCURVE SMOOTH",
"85 332 OFFCURVE",
"129 263 OFFCURVE",
"154 251 QCURVE SMOOTH",
"164 246 OFFCURVE",
"177 247 QCURVE SMOOTH"
);
}
);
userData = {
assembly = "NPUSHB[ ]	/* 29 values pushed */
36 35 2 2 1 1 76 0 0 1 0 133 0 1 2 1 133 0 2 2 34 2 78 47 37 33 3 8 25 
CALL[ ]	/* CallFunction */";
};
width = 267;
}
);
note = colon;
unicode = 003A;
},
{
glyphname = semicolon;
lastChange = "2020-12-09 22:30:36 +0000";
layers = (
{
layerId = "D6A4831D-747C-4592-93C0-305F4CD57904";
paths = (
{
closed = 1;
nodes = (
"94 -251 OFFCURVE",
"133 -202 OFFCURVE",
"143 -168 QCURVE SMOOTH",
"159 -118 OFFCURVE",
"162 -68 QCURVE SMOOTH",
"164 -39 OFFCURVE",
"168 21 QCURVE",
"173 56 OFFCURVE",
"169 77 QCURVE SMOOTH",
"164 102 OFFCURVE",
"140 124 QCURVE SMOOTH",
"127 136 OFFCURVE",
"113 133 QCURVE SMOOTH",
"105 131 OFFCURVE",
"90 112 OFFCURVE",
"88 99 QCURVE SMOOTH",
"82 57 OFFCURVE",
"84 2 QCURVE",
"86 -11 LINE",
"81 -123 OFFCURVE",
"62 -220 QCURVE SMOOTH",
"60 -230 OFFCURVE",
"60 -244 QCURVE SMOOTH",
"60 -267 LINE"
);
},
{
closed = 1;
nodes = (
"171 175 OFFCURVE",
"173 185 QCURVE",
"184 225 OFFCURVE",
"178 265 QCURVE",
"175 278 OFFCURVE",
"150 292 OFFCURVE",
"133 286 QCURVE SMOOTH",
"121 282 OFFCURVE",
"102 280 OFFCURVE",
"95 278 QCURVE",
"72 273 LINE",
"71 258 OFFCURVE",
"75 238 QCURVE SMOOTH",
"82 202 OFFCURVE",
"99 185 QCURVE SMOOTH",
"108 176 OFFCURVE",
"141 169 OFFCURVE",
"155 172 QCURVE SMOOTH"
);
}
);
userData = {
assembly = "PUSHB[ ]	/* 6 values pushed */
36 24 15 8 2 50 
CALL[ ]	/* CallFunction */";
};
width = 230;
}
);
note = semicolon;
unicode = 003B;
},
{
glyphname = less;
lastChange = "2020-12-09 22:30:36 +0000";
layers = (
{
layerId = "D6A4831D-747C-4592-93C0-305F4CD57904";
paths = (
{
closed = 1;
nodes = (
"542 149 OFFCURVE",
"574 153 QCURVE SMOOTH",
"593 155 OFFCURVE",
"615 167 OFFCURVE",
"618 186 QCURVE",
"614 189 OFFCURVE",
"598 201 OFFCURVE",
"591 202 QCURVE",
"529 216 OFFCURVE",
"496 217 QCURVE SMOOTH",
"434 217 OFFCURVE",
"316 248 OFFCURVE",
"225 279 QCURVE",
"241 298 LINE SMOOTH",
"287 355 OFFCURVE",
"311 381 QCURVE SMOOTH",
"403 476 OFFCURVE",
"481 549 QCURVE SMOOTH",
"497 564 OFFCURVE",
"532 590 QCURVE SMOOTH",
"557 609 LINE",
"573 624 OFFCURVE",
"573 647 QCURVE SMOOTH",
"573 660 OFFCURVE",
"561 682 OFFCURVE",
"549 687 QCURVE SMOOTH",
"516 702 OFFCURVE",
"488 702 QCURVE SMOOTH",
"438 702 OFFCURVE",
"392 648 QCURVE SMOOTH",
"380 634 OFFCURVE",
"316 566 QCURVE SMOOTH",
"278 524 LINE",
"71 293 LINE SMOOTH",
"60 280 OFFCURVE",
"60 269 QCURVE SMOOTH",
"60 254 OFFCURVE",
"72 247 QCURVE",
"112 217 OFFCURVE",
"146 200 OFFCURVE",
"167 201 QCURVE SMOOTH",
"205 203 OFFCURVE",
"278 188 OFFCURVE",
"335 174 QCURVE",
"422 149 OFFCURVE",
"509 149 QCURVE SMOOTH"
);
}
);
userData = {
assembly = "PUSHB[ ]	/* 6 values pushed */
2 1 0 3 1 76 
MPPEM[ ]	/* MeasurePixelPerEm */
PUSHB[ ]	/* 1 value pushed */
21 
LT[ ]	/* LessThan */
IF[ ]	/* If */
NPUSHB[ ]	/* 21 values pushed */
0 2 0 1 0 2 1 128 0 0 0 1 0 1 101 0 3 3 36 3 78 
ELSE[ ]	/* Else */
NPUSHB[ ]	/* 29 values pushed */
0 3 0 3 133 0 2 0 1 0 2 1 128 0 0 2 1 0 89 0 0 0 1 97 0 1 0 1 81 
EIF[ ]	/* EndIf */
PUSHB[ ]	/* 7 values pushed */
44 35 40 36 4 8 26 
CALL[ ]	/* CallFunction */";
};
width = 668;
}
);
note = less;
unicode = 003C;
},
{
glyphname = equal;
lastChange = "2020-12-09 22:30:36 +0000";
layers = (
{
layerId = "D6A4831D-747C-4592-93C0-305F4CD57904";
paths = (
{
closed = 1;
nodes = (
"387 102 OFFCURVE",
"497 110 QCURVE SMOOTH",
"520 112 LINE SMOOTH",
"541 114 OFFCURVE",
"568 125 QCURVE SMOOTH",
"594 135 OFFCURVE",
"594 154 QCURVE SMOOTH",
"594 169 OFFCURVE",
"576 182 QCURVE SMOOTH",
"535 213 OFFCURVE",
"491 213 QCURVE SMOOTH",
"468 213 OFFCURVE",
"436 205 QCURVE",
"429 204 OFFCURVE",
"401 198 OFFCURVE",
"390 197 QCURVE",
"369 196 LINE",
"297 189 OFFCURVE",
"249 187 QCURVE SMOOTH",
"196 186 OFFCURVE",
"153 197 QCURVE SMOOTH",
"149 198 OFFCURVE",
"138 196 OFFCURVE",
"136 196 QCURVE",
"129 186 OFFCURVE",
"129 177 QCURVE SMOOTH",
"129 162 OFFCURVE",
"151 146 QCURVE SMOOTH",
"186 122 OFFCURVE",
"267 101 OFFCURVE",
"317 100 QCURVE"
);
},
{
closed = 1;
nodes = (
"183 267 OFFCURVE",
"189 268 QCURVE",
"305 278 OFFCURVE",
"377 284 QCURVE SMOOTH",
"549 296 LINE",
"546 334 OFFCURVE",
"507 376 OFFCURVE",
"477 374 QCURVE SMOOTH",
"271 362 OFFCURVE",
"170 362 QCURVE SMOOTH",
"130 362 OFFCURVE",
"84 348 OFFCURVE",
"60 328 QCURVE",
"64 323 OFFCURVE",
"80 300 OFFCURVE",
"87 295 QCURVE",
"123 267 OFFCURVE",
"171 267 QCURVE SMOOTH"
);
}
);
userData = {
assembly = "NPUSHB[ ]	/* 58 values pushed */
12 2 2 0 1 1 76 6 1 1 0 0 3 1 0 105 0 2 4 5 2 89 0 3 0 4 5 3 4 105 0 2 2 5 97 0 5 2 5 81 0 0 46 44 42 41 35 33 27 25 0 17 0 14 53 7 8 23 
CALL[ ]	/* CallFunction */";
};
width = 644;
}
);
note = equal;
unicode = 003D;
},
{
glyphname = greater;
lastChange = "2020-12-09 22:30:36 +0000";
layers = (
{
layerId = "D6A4831D-747C-4592-93C0-305F4CD57904";
paths = (
{
closed = 1;
nodes = (
"158 200 OFFCURVE",
"171 208 QCURVE",
"190 218 OFFCURVE",
"225 238 OFFCURVE",
"241 247 QCURVE SMOOTH",
"266 261 LINE SMOOTH",
"299 280 OFFCURVE",
"454 341 OFFCURVE",
"458 343 QCURVE",
"513 367 OFFCURVE",
"513 395 QCURVE",
"483 445 OFFCURVE",
"423 490 OFFCURVE",
"415 496 QCURVE",
"366 536 LINE",
"333 565 OFFCURVE",
"305 584 QCURVE",
"282 608 OFFCURVE",
"248 633 QCURVE SMOOTH",
"215 658 OFFCURVE",
"205 666 QCURVE",
"189 684 OFFCURVE",
"171 684 QCURVE SMOOTH",
"159 684 OFFCURVE",
"147 675 QCURVE SMOOTH",
"137 668 OFFCURVE",
"137 658 QCURVE SMOOTH",
"137 646 OFFCURVE",
"152 627 QCURVE SMOOTH",
"208 551 OFFCURVE",
"239 516 QCURVE SMOOTH",
"249 505 OFFCURVE",
"286 476 OFFCURVE",
"305 463 QCURVE",
"350 429 OFFCURVE",
"360 420 QCURVE",
"336 407 OFFCURVE",
"274 385 QCURVE SMOOTH",
"216 366 OFFCURVE",
"189 351 QCURVE SMOOTH",
"128 315 OFFCURVE",
"83 285 QCURVE SMOOTH",
"60 269 OFFCURVE",
"60 250 QCURVE SMOOTH",
"60 240 OFFCURVE",
"68 229 QCURVE SMOOTH",
"78 216 OFFCURVE",
"116 200 OFFCURVE",
"136 200 QCURVE SMOOTH"
);
}
);
userData = {
assembly = "PUSHB[ ]	/* 6 values pushed */
27 1 0 1 1 76 
MPPEM[ ]	/* MeasurePixelPerEm */
PUSHB[ ]	/* 1 value pushed */
21 
LT[ ]	/* LessThan */
IF[ ]	/* If */
NPUSHB[ ]	/* 11 values pushed */
0 0 1 0 134 0 1 1 30 1 78 
ELSE[ ]	/* Else */
NPUSHB[ ]	/* 9 values pushed */
0 1 0 1 133 0 0 0 118 
EIF[ ]	/* EndIf */
PUSHB[ ]	/* 6 values pushed */
41 39 45 2 8 23 
CALL[ ]	/* CallFunction */";
};
width = 563;
}
);
note = greater;
unicode = 003E;
},
{
glyphname = question;
lastChange = "2021-12-18 13:03:49 +0000";
layers = (
{
layerId = "D6A4831D-747C-4592-93C0-305F4CD57904";
paths = (
{
closed = 1;
nodes = (
"141 280 OFFCURVE",
"168 298 QCURVE SMOOTH",
"207 323 OFFCURVE",
"273 388 OFFCURVE",
"319 440 QCURVE SMOOTH",
"320 441 OFFCURVE",
"353 477 QCURVE SMOOTH",
"429 559 OFFCURVE",
"460 642 QCURVE SMOOTH",
"467 660 OFFCURVE",
"467 680 QCURVE SMOOTH",
"467 704 OFFCURVE",
"456 723 QCURVE SMOOTH",
"399 827 OFFCURVE",
"276 841 QCURVE",
"176 837 OFFCURVE",
"109 768 QCURVE SMOOTH",
"95 754 OFFCURVE",
"95 738 QCURVE SMOOTH",
"95 729 OFFCURVE",
"101 718 QCURVE SMOOTH",
"111 702 OFFCURVE",
"144 685 OFFCURVE",
"163 685 QCURVE SMOOTH",
"195 685 OFFCURVE",
"216 705 QCURVE SMOOTH",
"251 736 OFFCURVE",
"276 745 QCURVE SMOOTH",
"289 750 OFFCURVE",
"304 750 QCURVE SMOOTH",
"321 750 OFFCURVE",
"331 744 QCURVE SMOOTH",
"349 733 OFFCURVE",
"349 708 QCURVE SMOOTH",
"349 695 OFFCURVE",
"344 680 QCURVE SMOOTH",
"328 635 OFFCURVE",
"304 606 QCURVE SMOOTH",
"219 502 LINE",
"174 449 LINE SMOOTH",
"139 408 OFFCURVE",
"70 323 QCURVE SMOOTH",
"60 310 OFFCURVE",
"60 300 QCURVE SMOOTH",
"60 290 OFFCURVE",
"68 283 QCURVE SMOOTH",
"75 276 OFFCURVE",
"94 268 OFFCURVE",
"101 270 QCURVE SMOOTH"
);
},
{
closed = 1;
nodes = (
"258 50 OFFCURVE",
"230 79 QCURVE SMOOTH",
"188 123 LINE",
"138 144 LINE SMOOTH",
"105 158 OFFCURVE",
"88 90 OFFCURVE",
"85 79 QCURVE SMOOTH",
"75 36 OFFCURVE",
"111 -7 OFFCURVE",
"150 0 QCURVE SMOOTH"
);
}
);
userData = {
assembly = "NPUSHB[ ]	/* 38 values pushed */
56 55 54 3 2 73 0 1 0 2 0 1 2 128 0 0 1 2 0 89 0 0 0 2 97 0 2 0 2 81 42 40 36 34 16 3 8 23 
CALL[ ]	/* CallFunction */";
};
width = 517;
}
);
note = question;
unicode = 003F;
},
{
glyphname = at;
lastChange = "2020-12-09 22:30:36 +0000";
layers = (
{
layerId = "D6A4831D-747C-4592-93C0-305F4CD57904";
paths = (
{
closed = 1;
nodes = (
"367 0 OFFCURVE",
"373 3 QCURVE",
"381 8 OFFCURVE",
"396 26 OFFCURVE",
"399 29 QCURVE",
"393 31 OFFCURVE",
"376 38 OFFCURVE",
"370 39 QCURVE",
"287 42 OFFCURVE",
"233 93 QCURVE",
"191 147 OFFCURVE",
"164 197 OFFCURVE",
"159 205 QCURVE",
"138 243 OFFCURVE",
"138 282 QCURVE SMOOTH",
"138 309 OFFCURVE",
"158 363 OFFCURVE",
"177 394 QCURVE SMOOTH",
"223 468 OFFCURVE",
"313 527 QCURVE SMOOTH",
"357 556 OFFCURVE",
"401 556 QCURVE SMOOTH",
"435 556 OFFCURVE",
"469 538 QCURVE SMOOTH",
"527 508 OFFCURVE",
"587 410 OFFCURVE",
"596 343 QCURVE SMOOTH",
"598 327 OFFCURVE",
"598 320 QCURVE SMOOTH",
"598 254 OFFCURVE",
"539 214 QCURVE",
"527 207 OFFCURVE",
"521 207 QCURVE SMOOTH",
"509 207 OFFCURVE",
"501 222 QCURVE SMOOTH",
"497 229 OFFCURVE",
"491 242 OFFCURVE",
"488 248 QCURVE SMOOTH",
"479 266 OFFCURVE",
"449 286 OFFCURVE",
"433 286 QCURVE SMOOTH",
"402 286 OFFCURVE",
"381 258 QCURVE",
"366 240 OFFCURVE",
"333 223 QCURVE",
"326 220 OFFCURVE",
"321 220 QCURVE SMOOTH",
"304 220 OFFCURVE",
"304 247 QCURVE SMOOTH",
"304 268 OFFCURVE",
"343 344 OFFCURVE",
"359 351 QCURVE SMOOTH",
"368 355 OFFCURVE",
"380 349 QCURVE",
"385 346 OFFCURVE",
"396 333 OFFCURVE",
"398 330 QCURVE",
"408 318 OFFCURVE",
"433 318 QCURVE SMOOTH",
"453 318 OFFCURVE",
"460 327 QCURVE SMOOTH",
"469 338 OFFCURVE",
"469 347 QCURVE SMOOTH",
"469 360 OFFCURVE",
"452 377 QCURVE",
"416 410 OFFCURVE",
"374 410 QCURVE SMOOTH",
"357 410 OFFCURVE",
"338 404 QCURVE SMOOTH",
"305 394 OFFCURVE",
"260 351 OFFCURVE",
"241 319 QCURVE SMOOTH",
"225 291 OFFCURVE",
"225 264 QCURVE SMOOTH",
"225 236 OFFCURVE",
"259 188 OFFCURVE",
"289 175 QCURVE SMOOTH",
"318 162 OFFCURVE",
"344 162 QCURVE SMOOTH",
"374 162 OFFCURVE",
"405 179 QCURVE SMOOTH",
"421 188 OFFCURVE",
"433 188 QCURVE SMOOTH",
"438 188 OFFCURVE",
"440 186 QCURVE",
"475 154 OFFCURVE",
"525 154 QCURVE SMOOTH",
"539 154 OFFCURVE",
"567 158 QCURVE",
"641 194 OFFCURVE",
"677 239 OFFCURVE",
"678 259 QCURVE SMOOTH",
"679 280 LINE SMOOTH",
"681 308 OFFCURVE",
"681 322 QCURVE SMOOTH",
"681 388 OFFCURVE",
"651 429 QCURVE SMOOTH",
"614 481 OFFCURVE",
"597 499 QCURVE SMOOTH",
"508 595 OFFCURVE",
"396 591 QCURVE",
"373 589 LINE",
"353 588 OFFCURVE",
"328 584 OFFCURVE",
"317 579 QCURVE SMOOTH",
"241 544 OFFCURVE",
"186 503 QCURVE SMOOTH",
"115 450 OFFCURVE",
"76 364 QCURVE SMOOTH",
"60 329 OFFCURVE",
"60 294 QCURVE SMOOTH",
"60 250 OFFCURVE",
"85 195 QCURVE SMOOTH",
"163 25 OFFCURVE",
"345 1 QCURVE",
"358 0 LINE"
);
}
);
userData = {
assembly = "NPUSHB[ ]	/* 10 values pushed */
68 1 4 3 3 1 5 6 2 76 
MPPEM[ ]	/* MeasurePixelPerEm */
PUSHB[ ]	/* 1 value pushed */
29 
LT[ ]	/* LessThan */
IF[ ]	/* If */
NPUSHB[ ]	/* 53 values pushed */
12 1 11 0 8 3 11 8 105 0 5 7 0 5 89 0 6 0 1 0 6 1 105 0 7 2 1 0 9 7 0 105 0 4 4 3 97 0 3 3 33 77 0 9 9 10 97 0 10 10 40 10 78 
ELSE[ ]	/* Else */
MPPEM[ ]	/* MeasurePixelPerEm */
PUSHB[ ]	/* 1 value pushed */
44 
LT[ ]	/* LessThan */
IF[ ]	/* If */
NPUSHB[ ]	/* 54 values pushed */
12 1 11 0 8 3 11 8 105 0 6 0 1 2 6 1 105 0 5 0 2 0 5 2 105 0 7 0 0 9 7 0 105 0 4 4 3 97 0 3 3 33 77 0 9 9 10 97 0 10 10 40 10 78 
ELSE[ ]	/* Else */
MPPEM[ ]	/* MeasurePixelPerEm */
PUSHB[ ]	/* 1 value pushed */
46 
LT[ ]	/* LessThan */
IF[ ]	/* If */
NPUSHB[ ]	/* 51 values pushed */
12 1 11 0 8 3 11 8 105 0 6 0 1 2 6 1 105 0 5 0 2 0 5 2 105 0 7 0 0 9 7 0 105 0 9 0 10 9 10 101 0 4 4 3 97 0 3 3 33 4 78 
ELSE[ ]	/* Else */
MPPEM[ ]	/* MeasurePixelPerEm */
PUSHB[ ]	/* 1 value pushed */
49 
LT[ ]	/* LessThan */
IF[ ]	/* If */
NPUSHB[ ]	/* 57 values pushed */
0 11 12 8 12 11 114 0 12 0 8 3 12 8 105 0 6 0 1 2 6 1 105 0 5 0 2 0 5 2 105 0 7 0 0 9 7 0 105 0 9 0 10 9 10 101 0 4 4 3 97 0 3 3 33 4 78 
ELSE[ ]	/* Else */
NPUSHB[ ]	/* 63 values pushed */
0 11 12 8 12 11 114 0 12 0 8 3 12 8 105 0 3 0 4 6 3 4 105 0 6 0 1 2 6 1 105 0 5 0 2 0 5 2 105 0 7 0 0 9 7 0 105 0 9 10 10 9 89 0 9 9 10 97 0 10 9 10 81 
EIF[ ]	/* EndIf */
EIF[ ]	/* EndIf */
EIF[ ]	/* EndIf */
EIF[ ]	/* EndIf */
NPUSHB[ ]	/* 20 values pushed */
114 113 112 111 98 97 90 89 42 22 37 26 38 42 34 19 41 13 8 31 
CALL[ ]	/* CallFunction */";
};
width = 731;
}
);
note = at;
unicode = 0040;
},
{
glyphname = A;
lastChange = "2021-12-18 13:40:08 +0000";
layers = (
{
layerId = "D6A4831D-747C-4592-93C0-305F4CD57904";
paths = (
{
closed = 1;
nodes = (
"635 -14 OFFCURVE",
"657 5 OFFCURVE",
"658 21 QCURVE SMOOTH",
"660 45 OFFCURVE",
"660 59 QCURVE SMOOTH",
"660 84 OFFCURVE",
"655 100 QCURVE SMOOTH",
"619 215 OFFCURVE",
"617 359 QCURVE SMOOTH",
"615 411 LINE",
"609 492 OFFCURVE",
"603 536 QCURVE SMOOTH",
"594 602 OFFCURVE",
"574 643 QCURVE SMOOTH",
"560 671 OFFCURVE",
"509 702 OFFCURVE",
"479 702 QCURVE SMOOTH",
"455 702 OFFCURVE",
"432 691 QCURVE SMOOTH",
"326 640 OFFCURVE",
"261 523 QCURVE",
"239 476 OFFCURVE",
"125 245 QCURVE SMOOTH",
"56 105 LINE SMOOTH",
"50 93 OFFCURVE",
"50 82 QCURVE SMOOTH",
"50 66 OFFCURVE",
"65 49 QCURVE SMOOTH",
"75 37 OFFCURVE",
"104 22 OFFCURVE",
"119 22 QCURVE SMOOTH",
"150 22 OFFCURVE",
"169 56 QCURVE SMOOTH",
"198 108 OFFCURVE",
"215 137 QCURVE SMOOTH",
"234 169 OFFCURVE",
"269 178 QCURVE",
"304 185 OFFCURVE",
"345 197 QCURVE SMOOTH",
"393 211 LINE SMOOTH",
"411 216 OFFCURVE",
"458 231 OFFCURVE",
"489 241 QCURVE SMOOTH",
"498 244 OFFCURVE",
"505 244 QCURVE SMOOTH",
"524 244 OFFCURVE",
"530 217 QCURVE SMOOTH",
"545 151 OFFCURVE",
"555 113 QCURVE SMOOTH",
"559 98 OFFCURVE",
"557 80 QCURVE SMOOTH",
"556 69 OFFCURVE",
"557 63 QCURVE",
"556 59 OFFCURVE",
"556 51 QCURVE SMOOTH",
"556 27 OFFCURVE",
"582 -6 OFFCURVE",
"607 -12 QCURVE SMOOTH",
"616 -14 OFFCURVE",
"618 -14 QCURVE SMOOTH"
);
},
{
closed = 1;
nodes = (
"297 322 LINE SMOOTH",
"317 367 OFFCURVE",
"323 380 QCURVE SMOOTH",
"360 462 OFFCURVE",
"413 533 QCURVE SMOOTH",
"445 576 OFFCURVE",
"493 585 QCURVE",
"504 529 OFFCURVE",
"511 418 OFFCURVE",
"513 322 QCURVE",
"417 307 OFFCURVE",
"280 283 QCURVE"
);
}
);
userData = {
assembly = "NPUSHB[ ]	/* 18 values pushed */
71 64 61 2 4 1 3 18 16 2 2 1 8 1 0 2 3 76 
MPPEM[ ]	/* MeasurePixelPerEm */
PUSHB[ ]	/* 1 value pushed */
21 
LT[ ]	/* LessThan */
IF[ ]	/* If */
NPUSHB[ ]	/* 24 values pushed */
0 1 3 2 3 1 2 128 0 3 3 36 77 0 2 2 34 77 0 0 0 31 0 78 
ELSE[ ]	/* Else */
NPUSHB[ ]	/* 21 values pushed */
0 3 1 3 133 0 1 2 1 133 0 2 2 34 77 0 0 0 31 0 78 
EIF[ ]	/* EndIf */
PUSHB[ ]	/* 7 values pushed */
44 45 30 26 4 8 26 
CALL[ ]	/* CallFunction */";
};
width = 710;
}
);
leftKerningGroup = A;
note = A;
rightKerningGroup = A;
unicode = 0041;
},
{
glyphname = B;
lastChange = "2020-12-09 22:30:33 +0000";
layers = (
{
layerId = "D6A4831D-747C-4592-93C0-305F4CD57904";
paths = (
{
closed = 1;
nodes = (
"331 -55 OFFCURVE",
"365 -38 QCURVE SMOOTH",
"503 31 OFFCURVE",
"565 146 QCURVE SMOOTH",
"590 193 OFFCURVE",
"590 241 QCURVE SMOOTH",
"590 290 OFFCURVE",
"537 371 OFFCURVE",
"484 391 QCURVE SMOOTH",
"474 395 OFFCURVE",
"449 410 QCURVE",
"476 455 OFFCURVE",
"481 465 QCURVE SMOOTH",
"491 484 OFFCURVE",
"498 500 QCURVE",
"508 520 LINE",
"519 545 OFFCURVE",
"519 570 QCURVE SMOOTH",
"519 600 OFFCURVE",
"490 652 OFFCURVE",
"464 668 QCURVE SMOOTH",
"414 700 OFFCURVE",
"340 700 QCURVE SMOOTH",
"324 700 OFFCURVE",
"294 698 QCURVE SMOOTH",
"229 692 OFFCURVE",
"134 626 OFFCURVE",
"110 568 QCURVE SMOOTH",
"79 491 OFFCURVE",
"68 403 QCURVE SMOOTH",
"60 343 OFFCURVE",
"60 267 QCURVE SMOOTH",
"60 227 OFFCURVE",
"62 167 OFFCURVE",
"63 147 QCURVE SMOOTH",
"64 131 OFFCURVE",
"66 83 OFFCURVE",
"66 51 QCURVE SMOOTH",
"66 9 OFFCURVE",
"102 -24 QCURVE",
"115 -37 OFFCURVE",
"131 -37 QCURVE SMOOTH",
"149 -37 OFFCURVE",
"161 -19 QCURVE",
"164 -15 OFFCURVE",
"169 2 OFFCURVE",
"171 8 QCURVE",
"193 -8 OFFCURVE",
"209 -21 QCURVE SMOOTH",
"250 -55 OFFCURVE",
"298 -55 QCURVE SMOOTH"
);
},
{
closed = 1;
nodes = (
"252 34 OFFCURVE",
"234 57 OFFCURVE",
"225 62 QCURVE SMOOTH",
"215 68 OFFCURVE",
"196 70 QCURVE",
"182 72 OFFCURVE",
"176 74 QCURVE",
"172 107 LINE SMOOTH",
"162 191 OFFCURVE",
"161 218 QCURVE SMOOTH",
"159 252 OFFCURVE",
"157 267 QCURVE",
"153 317 OFFCURVE",
"153 343 QCURVE SMOOTH",
"153 391 OFFCURVE",
"165 430 QCURVE",
"214 548 OFFCURVE",
"271 605 OFFCURVE",
"314 619 QCURVE SMOOTH",
"334 626 OFFCURVE",
"357 626 QCURVE SMOOTH",
"384 626 OFFCURVE",
"414 613 QCURVE",
"411 591 LINE SMOOTH",
"407 561 OFFCURVE",
"402 548 QCURVE SMOOTH",
"353 431 OFFCURVE",
"256 379 QCURVE SMOOTH",
"237 368 OFFCURVE",
"201 342 QCURVE SMOOTH",
"178 326 LINE",
"187 305 OFFCURVE",
"213 279 OFFCURVE",
"232 268 QCURVE SMOOTH",
"248 259 OFFCURVE",
"263 259 QCURVE SMOOTH",
"287 259 OFFCURVE",
"311 280 QCURVE SMOOTH",
"358 324 OFFCURVE",
"403 337 QCURVE SMOOTH",
"416 341 OFFCURVE",
"431 341 QCURVE SMOOTH",
"456 341 OFFCURVE",
"485 313 OFFCURVE",
"485 286 QCURVE SMOOTH",
"485 274 OFFCURVE",
"482 259 QCURVE SMOOTH",
"474 221 OFFCURVE",
"443 173 QCURVE SMOOTH",
"402 114 OFFCURVE",
"317 40 OFFCURVE",
"257 28 QCURVE"
);
}
);
userData = {
assembly = "NPUSHB[ ]	/* 16 values pushed */
53 1 2 4 3 98 1 5 4 77 16 2 1 5 3 76 
MPPEM[ ]	/* MeasurePixelPerEm */
PUSHB[ ]	/* 1 value pushed */
21 
LT[ ]	/* LessThan */
IF[ ]	/* If */
NPUSHB[ ]	/* 36 values pushed */
0 4 3 5 3 4 5 128 0 5 1 3 5 1 126 0 0 1 0 134 0 3 3 2 97 0 2 2 36 77 0 1 1 31 1 78 
ELSE[ ]	/* Else */
MPPEM[ ]	/* MeasurePixelPerEm */
PUSHB[ ]	/* 1 value pushed */
26 
LT[ ]	/* LessThan */
IF[ ]	/* If */
NPUSHB[ ]	/* 34 values pushed */
0 4 3 5 3 4 5 128 0 5 1 3 5 1 126 0 0 1 0 134 0 2 0 3 4 2 3 105 0 1 1 31 1 78 
ELSE[ ]	/* Else */
NPUSHB[ ]	/* 42 values pushed */
0 4 3 5 3 4 5 128 0 5 1 3 5 1 126 0 1 0 3 1 0 126 0 0 0 132 0 2 3 3 2 89 0 2 2 3 97 0 3 2 3 81 
EIF[ ]	/* EndIf */
EIF[ ]	/* EndIf */
NPUSHB[ ]	/* 13 values pushed */
94 92 88 86 56 54 41 38 39 43 6 8 24 
CALL[ ]	/* CallFunction */";
};
width = 640;
}
);
leftMetricsKey = "=H";
note = B;
unicode = 0042;
},
{
glyphname = C;
lastChange = "2021-01-11 05:16:06 +0000";
layers = (
{
layerId = "D6A4831D-747C-4592-93C0-305F4CD57904";
paths = (
{
closed = 1;
nodes = (
"376 7 OFFCURVE",
"421 12 QCURVE SMOOTH",
"472 18 OFFCURVE",
"572 92 QCURVE",
"623 146 OFFCURVE",
"659 197 OFFCURVE",
"663 204 QCURVE",
"674 218 OFFCURVE",
"674 234 QCURVE SMOOTH",
"674 257 OFFCURVE",
"653 272 QCURVE SMOOTH",
"634 285 OFFCURVE",
"621 285 QCURVE SMOOTH",
"613 285 OFFCURVE",
"594 274 OFFCURVE",
"581 261 QCURVE SMOOTH",
"561 240 LINE SMOOTH",
"524 201 OFFCURVE",
"508 190 QCURVE",
"444 139 OFFCURVE",
"379 107 OFFCURVE",
"316 99 QCURVE SMOOTH",
"298 96 OFFCURVE",
"283 96 QCURVE SMOOTH",
"240 96 OFFCURVE",
"189 139 OFFCURVE",
"179 185 QCURVE SMOOTH",
"170 226 OFFCURVE",
"170 270 QCURVE SMOOTH",
"170 393 OFFCURVE",
"255 482 QCURVE SMOOTH",
"305 535 OFFCURVE",
"356 535 QCURVE SMOOTH",
"383 535 OFFCURVE",
"412 519 QCURVE SMOOTH",
"418 515 OFFCURVE",
"421 515 QCURVE SMOOTH",
"427 514 OFFCURVE",
"438 514 QCURVE SMOOTH",
"452 514 OFFCURVE",
"469 529 OFFCURVE",
"469 544 QCURVE SMOOTH",
"469 548 OFFCURVE",
"467 560 QCURVE",
"456 600 OFFCURVE",
"348 645 OFFCURVE",
"288 637 QCURVE",
"157 594 OFFCURVE",
"96 482 QCURVE SMOOTH",
"75 444 OFFCURVE",
"55 369 OFFCURVE",
"49 331 OFFCURVE",
"50 324 QCURVE",
"49 216 OFFCURVE",
"144 19 OFFCURVE",
"333 7 QCURVE"
);
}
);
userData = {
assembly = "PUSHB[ ]	/* 6 values pushed */
61 1 3 4 1 76 
MPPEM[ ]	/* MeasurePixelPerEm */
PUSHB[ ]	/* 1 value pushed */
21 
LT[ ]	/* LessThan */
IF[ ]	/* If */
NPUSHB[ ]	/* 36 values pushed */
0 1 2 4 2 1 4 128 0 4 3 2 4 3 126 0 2 2 0 97 0 0 0 36 77 0 3 3 5 97 0 5 5 40 5 78 
ELSE[ ]	/* Else */
MPPEM[ ]	/* MeasurePixelPerEm */
PUSHB[ ]	/* 1 value pushed */
44 
LT[ ]	/* LessThan */
IF[ ]	/* If */
NPUSHB[ ]	/* 34 values pushed */
0 1 2 4 2 1 4 128 0 4 3 2 4 3 126 0 0 0 2 1 0 2 105 0 3 3 5 97 0 5 5 40 5 78 
ELSE[ ]	/* Else */
NPUSHB[ ]	/* 39 values pushed */
0 1 2 4 2 1 4 128 0 4 3 2 4 3 126 0 0 0 2 1 0 2 105 0 3 5 5 3 89 0 3 3 5 97 0 5 3 5 81 
EIF[ ]	/* EndIf */
EIF[ ]	/* EndIf */
NPUSHB[ ]	/* 9 values pushed */
44 41 39 36 38 39 6 8 28 
CALL[ ]	/* CallFunction */";
};
width = 724;
}
);
leftKerningGroup = C;
leftMetricsKey = "=O";
note = C;
rightKerningGroup = C;
unicode = 0043;
},
{
glyphname = D;
lastChange = "2021-12-18 10:53:16 +0000";
layers = (
{
layerId = "D6A4831D-747C-4592-93C0-305F4CD57904";
paths = (
{
closed = 1;
nodes = (
"233 -48 OFFCURVE",
"267 -31 QCURVE SMOOTH",
"359 12 OFFCURVE",
"435 79 QCURVE SMOOTH",
"560 187 OFFCURVE",
"678 374 QCURVE SMOOTH",
"709 424 OFFCURVE",
"709 471 QCURVE SMOOTH",
"709 526 OFFCURVE",
"668 579 QCURVE SMOOTH",
"640 613 OFFCURVE",
"599 638 QCURVE SMOOTH",
"540 676 OFFCURVE",
"404 718 OFFCURVE",
"315 734 QCURVE SMOOTH",
"284 740 OFFCURVE",
"254 740 QCURVE SMOOTH",
"223 740 OFFCURVE",
"196 733 QCURVE SMOOTH",
"170 727 OFFCURVE",
"138 705 OFFCURVE",
"134 678 QCURVE",
"143 671 OFFCURVE",
"161 655 QCURVE SMOOTH",
"187 632 OFFCURVE",
"186 633 QCURVE",
"182 615 LINE",
"175 531 OFFCURVE",
"145 372 OFFCURVE",
"115 242 QCURVE SMOOTH",
"110 220 LINE SMOOTH",
"100 175 OFFCURVE",
"88 83 QCURVE SMOOTH",
"81 31 LINE",
"80 22 LINE",
"80 8 OFFCURVE",
"96 -13 OFFCURVE",
"111 -23 QCURVE",
"152 -48 OFFCURVE",
"196 -48 QCURVE SMOOTH"
);
},
{
closed = 1;
nodes = (
"200 42 OFFCURVE",
"191 46 QCURVE",
"191 52 OFFCURVE",
"192 79 OFFCURVE",
"195 90 QCURVE",
"213 174 OFFCURVE",
"237 272 QCURVE SMOOTH",
"273 416 LINE SMOOTH",
"295 501 OFFCURVE",
"308 559 QCURVE SMOOTH",
"310 569 OFFCURVE",
"310 573 QCURVE SMOOTH",
"310 590 OFFCURVE",
"288 620 OFFCURVE",
"264 640 QCURVE",
"286 643 LINE SMOOTH",
"306 646 OFFCURVE",
"318 645 QCURVE",
"433 628 OFFCURVE",
"533 583 QCURVE SMOOTH",
"560 570 OFFCURVE",
"591 520 OFFCURVE",
"591 489 QCURVE SMOOTH",
"591 471 OFFCURVE",
"587 458 QCURVE SMOOTH",
"572 404 OFFCURVE",
"513 306 OFFCURVE",
"470 251 QCURVE SMOOTH",
"364 120 OFFCURVE",
"214 47 QCURVE",
"201 42 LINE"
);
}
);
userData = {
assembly = "NPUSHB[ ]	/* 24 values pushed */
45 42 39 30 3 5 1 0 1 76 0 0 1 0 133 0 1 1 118 47 39 2 8 24 
CALL[ ]	/* CallFunction */";
};
width = 759;
}
);
note = D;
rightKerningGroup = D;
rightMetricsKey = "=O";
unicode = 0044;
},
{
glyphname = E;
lastChange = "2021-12-18 10:27:17 +0000";
layers = (
{
layerId = "D6A4831D-747C-4592-93C0-305F4CD57904";
paths = (
{
closed = 1;
nodes = (
"519 -25 OFFCURVE",
"552 -21 QCURVE SMOOTH",
"584 -17 OFFCURVE",
"624 0 OFFCURVE",
"635 24 QCURVE",
"620 53 OFFCURVE",
"587 76 OFFCURVE",
"562 76 QCURVE",
"547 75 LINE SMOOTH",
"455 69 OFFCURVE",
"396 67 QCURVE SMOOTH",
"338 65 OFFCURVE",
"271 132 OFFCURVE",
"271 180 QCURVE SMOOTH",
"271 213 OFFCURVE",
"287 248 QCURVE",
"357 258 LINE SMOOTH",
"437 269 OFFCURVE",
"477 275 QCURVE SMOOTH",
"522 282 OFFCURVE",
"562 317 QCURVE",
"575 330 OFFCURVE",
"575 342 QCURVE SMOOTH",
"575 352 OFFCURVE",
"566 366 QCURVE SMOOTH",
"549 392 OFFCURVE",
"520 392 QCURVE SMOOTH",
"506 392 OFFCURVE",
"485 384 QCURVE SMOOTH",
"410 354 OFFCURVE",
"341 354 QCURVE SMOOTH",
"325 354 OFFCURVE",
"317 355 QCURVE",
"316 359 OFFCURVE",
"314 368 OFFCURVE",
"314 372 QCURVE",
"315 376 LINE",
"340 455 OFFCURVE",
"366 535 QCURVE SMOOTH",
"376 566 OFFCURVE",
"413 566 QCURVE SMOOTH",
"418 566 OFFCURVE",
"438 561 OFFCURVE",
"442 561 QCURVE",
"497 565 OFFCURVE",
"522 566 QCURVE SMOOTH",
"630 570 OFFCURVE",
"684 579 QCURVE SMOOTH",
"719 585 OFFCURVE",
"787 600 QCURVE",
"793 602 OFFCURVE",
"807 613 OFFCURVE",
"807 617 QCURVE SMOOTH",
"807 625 OFFCURVE",
"800 642 OFFCURVE",
"794 645 QCURVE SMOOTH",
"760 662 OFFCURVE",
"738 664 QCURVE",
"696 666 OFFCURVE",
"611 666 QCURVE SMOOTH",
"484 666 LINE SMOOTH",
"446 666 OFFCURVE",
"391 682 OFFCURVE",
"367 706 QCURVE SMOOTH",
"363 710 OFFCURVE",
"350 715 OFFCURVE",
"344 715 QCURVE",
"324 717 OFFCURVE",
"314 717 QCURVE SMOOTH",
"299 717 OFFCURVE",
"278 705 OFFCURVE",
"271 688 QCURVE",
"269 681 OFFCURVE",
"243 670 OFFCURVE",
"239 668 QCURVE",
"232 665 OFFCURVE",
"216 661 QCURVE",
"194 654 LINE",
"198 646 OFFCURVE",
"207 619 OFFCURVE",
"214 614 QCURVE",
"233 599 OFFCURVE",
"233 579 QCURVE SMOOTH",
"233 566 OFFCURVE",
"224 546 QCURVE",
"221 540 OFFCURVE",
"216 519 OFFCURVE",
"214 512 QCURVE",
"163 365 LINE",
"50 358 LINE",
"54 330 OFFCURVE",
"83 302 OFFCURVE",
"110 287 QCURVE",
"143 271 OFFCURVE",
"143 237 QCURVE SMOOTH",
"143 233 OFFCURVE",
"143 194 OFFCURVE",
"148 177 QCURVE SMOOTH",
"184 54 OFFCURVE",
"313 4 QCURVE SMOOTH",
"386 -25 OFFCURVE",
"477 -25 QCURVE SMOOTH"
);
}
);
userData = {
assembly = "NPUSHB[ ]	/* 14 values pushed */
59 1 8 7 94 1 1 8 30 1 4 2 3 76 
MPPEM[ ]	/* MeasurePixelPerEm */
PUSHB[ ]	/* 1 value pushed */
21 
LT[ ]	/* LessThan */
IF[ ]	/* If */
NPUSHB[ ]	/* 42 values pushed */
5 1 0 1 2 1 0 2 128 0 6 6 36 77 9 1 8 8 7 95 0 7 7 30 77 0 1 1 33 77 3 1 2 2 4 98 0 4 4 31 4 78 
ELSE[ ]	/* Else */
MPPEM[ ]	/* MeasurePixelPerEm */
PUSHB[ ]	/* 1 value pushed */
29 
LT[ ]	/* LessThan */
IF[ ]	/* If */
NPUSHB[ ]	/* 40 values pushed */
0 6 7 6 133 5 1 0 1 2 1 0 2 128 0 7 9 1 8 1 7 8 105 0 1 1 33 77 3 1 2 2 4 98 0 4 4 31 4 78 
ELSE[ ]	/* Else */
MPPEM[ ]	/* MeasurePixelPerEm */
PUSHB[ ]	/* 1 value pushed */
34 
LT[ ]	/* LessThan */
IF[ ]	/* If */
NPUSHB[ ]	/* 46 values pushed */
0 6 7 6 133 5 1 0 1 3 1 0 3 128 0 3 2 1 3 2 126 0 7 9 1 8 1 7 8 105 0 1 1 33 77 0 2 2 4 98 0 4 4 31 4 78 
ELSE[ ]	/* Else */
NPUSHB[ ]	/* 52 values pushed */
0 6 7 6 133 0 5 1 0 1 5 0 128 0 0 3 1 0 3 126 0 3 2 1 3 2 126 0 7 9 1 8 1 7 8 105 0 1 1 33 77 0 2 2 4 98 0 4 4 31 4 78 
EIF[ ]	/* EndIf */
EIF[ ]	/* EndIf */
EIF[ ]	/* EndIf */
NPUSHB[ ]	/* 17 values pushed */
98 96 93 92 81 75 69 67 27 38 33 46 34 35 10 8 28 
CALL[ ]	/* CallFunction */";
};
width = 817;
}
);
leftMetricsKey = O;
note = E;
unicode = 0045;
},
{
glyphname = F;
lastChange = "2021-12-18 10:29:24 +0000";
layers = (
{
layerId = "D6A4831D-747C-4592-93C0-305F4CD57904";
paths = (
{
closed = 1;
nodes = (
"180 -33 OFFCURVE",
"186 17 QCURVE SMOOTH",
"188 31 OFFCURVE",
"188 58 QCURVE SMOOTH",
"188 98 LINE",
"193 152 OFFCURVE",
"214 161 OFFCURVE",
"246 168 QCURVE SMOOTH",
"251 169 OFFCURVE",
"260 174 OFFCURVE",
"265 175 QCURVE",
"459 228 LINE",
"552 248 LINE",
"571 254 OFFCURVE",
"589 264 OFFCURVE",
"589 276 QCURVE SMOOTH",
"589 294 OFFCURVE",
"560 319 QCURVE SMOOTH",
"553 325 OFFCURVE",
"536 325 QCURVE",
"524 324 OFFCURVE",
"500 324 QCURVE SMOOTH",
"493 324 OFFCURVE",
"449 322 OFFCURVE",
"430 319 QCURVE SMOOTH",
"387 312 OFFCURVE",
"355 305 OFFCURVE",
"334 300 QCURVE SMOOTH",
"277 288 LINE",
"270 287 OFFCURVE",
"224 286 OFFCURVE",
"214 286 QCURVE",
"220 329 OFFCURVE",
"237 391 OFFCURVE",
"266 445 QCURVE SMOOTH",
"290 490 LINE",
"315 522 OFFCURVE",
"349 547 QCURVE SMOOTH",
"413 597 OFFCURVE",
"487 637 OFFCURVE",
"517 628 QCURVE",
"539 628 OFFCURVE",
"556 616 QCURVE",
"560 614 OFFCURVE",
"575 610 OFFCURVE",
"580 608 QCURVE",
"589 605 OFFCURVE",
"597 605 QCURVE SMOOTH",
"620 605 OFFCURVE",
"633 626 QCURVE",
"638 636 OFFCURVE",
"638 642 QCURVE SMOOTH",
"638 656 OFFCURVE",
"619 675 QCURVE SMOOTH",
"572 725 OFFCURVE",
"506 725 QCURVE SMOOTH",
"484 725 OFFCURVE",
"467 721 QCURVE",
"382 705 OFFCURVE",
"297 646 QCURVE SMOOTH",
"211 587 OFFCURVE",
"106 445 OFFCURVE",
"93 352 QCURVE SMOOTH",
"85 293 OFFCURVE",
"75 204 OFFCURVE",
"72 175 QCURVE SMOOTH",
"69 141 OFFCURVE",
"61 71 QCURVE",
"60 66 OFFCURVE",
"60 57 QCURVE SMOOTH",
"60 32 OFFCURVE",
"85 -5 OFFCURVE",
"110 -20 QCURVE SMOOTH",
"132 -33 OFFCURVE",
"149 -33 QCURVE SMOOTH"
);
}
);
userData = {
assembly = "PUSHB[ ]	/* 6 values pushed */
58 1 6 4 1 76 
MPPEM[ ]	/* MeasurePixelPerEm */
PUSHB[ ]	/* 1 value pushed */
21 
LT[ ]	/* LessThan */
IF[ ]	/* If */
NPUSHB[ ]	/* 39 values pushed */
0 5 6 1 6 5 1 128 2 1 1 0 6 1 0 126 0 0 3 6 0 3 126 0 6 6 4 97 0 4 4 36 77 0 3 3 31 3 78 
ELSE[ ]	/* Else */
MPPEM[ ]	/* MeasurePixelPerEm */
PUSHB[ ]	/* 1 value pushed */
34 
LT[ ]	/* LessThan */
IF[ ]	/* If */
NPUSHB[ ]	/* 37 values pushed */
0 5 6 1 6 5 1 128 2 1 1 0 6 1 0 126 0 0 3 6 0 3 126 0 4 0 6 5 4 6 105 0 3 3 31 3 78 
ELSE[ ]	/* Else */
NPUSHB[ ]	/* 43 values pushed */
0 5 6 1 6 5 1 128 2 1 1 0 6 1 0 126 0 0 3 6 0 3 126 0 3 3 132 0 4 6 6 4 89 0 4 4 6 97 0 6 4 6 81 
EIF[ ]	/* EndIf */
EIF[ ]	/* EndIf */
NPUSHB[ ]	/* 14 values pushed */
70 68 62 61 55 53 36 34 17 54 34 7 8 25 
CALL[ ]	/* CallFunction */";
};
width = 648;
}
);
leftMetricsKey = "=H";
note = F;
rightMetricsKey = "=E";
unicode = 0046;
},
{
glyphname = G;
lastChange = "2021-01-11 03:41:22 +0000";
layers = (
{
layerId = "D6A4831D-747C-4592-93C0-305F4CD57904";
paths = (
{
closed = 1;
nodes = (
"304 17 OFFCURVE",
"313 18 QCURVE SMOOTH",
"351 21 OFFCURVE",
"430 45 OFFCURVE",
"475 72 QCURVE SMOOTH",
"532 105 OFFCURVE",
"601 183 OFFCURVE",
"624 232 QCURVE SMOOTH",
"635 252 OFFCURVE",
"640 267 QCURVE SMOOTH",
"650 294 OFFCURVE",
"650 319 QCURVE SMOOTH",
"650 387 OFFCURVE",
"560 402 QCURVE SMOOTH",
"495 413 OFFCURVE",
"446 410 QCURVE SMOOTH",
"386 406 OFFCURVE",
"271 393 QCURVE SMOOTH",
"236 389 LINE SMOOTH",
"233 389 OFFCURVE",
"225 381 OFFCURVE",
"222 379 QCURVE",
"235 334 OFFCURVE",
"282 295 OFFCURVE",
"323 295 QCURVE SMOOTH",
"361 298 OFFCURVE",
"380 299 QCURVE SMOOTH",
"409 301 LINE SMOOTH",
"475 306 OFFCURVE",
"509 308 QCURVE",
"511 298 OFFCURVE",
"511 293 QCURVE SMOOTH",
"511 280 OFFCURVE",
"482 175 OFFCURVE",
"343 106 OFFCURVE",
"265 118 QCURVE",
"202 118 OFFCURVE",
"161 194 QCURVE",
"152 253 OFFCURVE",
"152 291 QCURVE SMOOTH",
"152 464 OFFCURVE",
"367 594 OFFCURVE",
"535 576 QCURVE",
"556 577 OFFCURVE",
"585 594 OFFCURVE",
"598 613 QCURVE",
"561 663 OFFCURVE",
"506 670 QCURVE SMOOTH",
"468 676 OFFCURVE",
"427 676 QCURVE SMOOTH",
"330 676 OFFCURVE",
"134 600 OFFCURVE",
"95 515 QCURVE",
"56 410 OFFCURVE",
"50 318 OFFCURVE",
"50 261 QCURVE SMOOTH",
"50 249 OFFCURVE",
"52 219 QCURVE SMOOTH",
"55 175 OFFCURVE",
"92 106 OFFCURVE",
"127 76 QCURVE SMOOTH",
"198 17 OFFCURVE",
"285 17 QCURVE SMOOTH"
);
}
);
userData = {
assembly = "MPPEM[ ]	/* MeasurePixelPerEm */
PUSHB[ ]	/* 1 value pushed */
39 
LT[ ]	/* LessThan */
IF[ ]	/* If */
NPUSHB[ ]	/* 15 values pushed */
1 1 0 6 35 27 2 2 4 25 1 1 2 3 76 
ELSE[ ]	/* Else */
NPUSHB[ ]	/* 15 values pushed */
1 1 0 6 35 27 2 2 4 25 1 1 3 3 76 
EIF[ ]	/* EndIf */
MPPEM[ ]	/* MeasurePixelPerEm */
PUSHB[ ]	/* 1 value pushed */
21 
LT[ ]	/* LessThan */
IF[ ]	/* If */
NPUSHB[ ]	/* 32 values pushed */
0 0 0 6 97 0 6 6 30 77 3 1 2 2 4 97 0 4 4 33 77 0 1 1 5 97 0 5 5 34 5 78 
ELSE[ ]	/* Else */
MPPEM[ ]	/* MeasurePixelPerEm */
PUSHB[ ]	/* 1 value pushed */
39 
LT[ ]	/* LessThan */
IF[ ]	/* If */
NPUSHB[ ]	/* 30 values pushed */
0 6 0 0 4 6 0 105 3 1 2 2 4 97 0 4 4 33 77 0 1 1 5 97 0 5 5 34 5 78 
ELSE[ ]	/* Else */
MPPEM[ ]	/* MeasurePixelPerEm */
PUSHB[ ]	/* 1 value pushed */
49 
LT[ ]	/* LessThan */
IF[ ]	/* If */
NPUSHB[ ]	/* 37 values pushed */
0 3 2 1 2 3 1 128 0 6 0 0 4 6 0 105 0 2 2 4 97 0 4 4 33 77 0 1 1 5 97 0 5 5 34 5 78 
ELSE[ ]	/* Else */
NPUSHB[ ]	/* 35 values pushed */
0 3 2 1 2 3 1 128 0 6 0 0 4 6 0 105 0 4 0 2 3 4 2 105 0 1 1 5 97 0 5 5 34 5 78 
EIF[ ]	/* EndIf */
EIF[ ]	/* EndIf */
EIF[ ]	/* EndIf */
NPUSHB[ ]	/* 10 values pushed */
43 46 39 33 45 40 35 7 8 29 
CALL[ ]	/* CallFunction */";
};
width = 700;
}
);
leftMetricsKey = "=O";
note = G;
unicode = 0047;
},
{
glyphname = H;
lastChange = "2021-12-18 23:03:01 +0000";
layers = (
{
layerId = "D6A4831D-747C-4592-93C0-305F4CD57904";
paths = (
{
closed = 1;
nodes = (
"492 17 OFFCURVE",
"493 42 OFFCURVE",
"493 46 QCURVE",
"497 97 OFFCURVE",
"525 178 OFFCURVE",
"542 258 QCURVE SMOOTH",
"565 366 LINE",
"581 366 OFFCURVE",
"614 365 QCURVE SMOOTH",
"641 362 OFFCURVE",
"681 356 OFFCURVE",
"693 375 QCURVE",
"689 406 OFFCURVE",
"655 430 OFFCURVE",
"624 439 QCURVE",
"620 440 OFFCURVE",
"598 447 OFFCURVE",
"590 452 QCURVE",
"607 497 OFFCURVE",
"607 526 QCURVE SMOOTH",
"607 556 OFFCURVE",
"588 603 OFFCURVE",
"567 622 QCURVE SMOOTH",
"545 642 OFFCURVE",
"516 604 QCURVE",
"508 570 LINE",
"474 465 LINE",
"335 476 LINE",
"270 459 LINE",
"298 555 LINE",
"311 615 OFFCURVE",
"309 592 QCURVE SMOOTH",
"309 653 OFFCURVE",
"272 703 OFFCURVE",
"240 702 QCURVE",
"231 683 OFFCURVE",
"229 676 QCURVE SMOOTH",
"218 640 LINE SMOOTH",
"195 564 OFFCURVE",
"176 498 QCURVE SMOOTH",
"169 473 OFFCURVE",
"150 445 OFFCURVE",
"129 440 QCURVE",
"123 439 OFFCURVE",
"108 429 OFFCURVE",
"104 427 QCURVE",
"60 403 OFFCURVE",
"60 375 QCURVE SMOOTH",
"60 352 OFFCURVE",
"117 344 OFFCURVE",
"117 321 QCURVE SMOOTH",
"117 313 OFFCURVE",
"114 304 QCURVE",
"107 232 OFFCURVE",
"96 184 OFFCURVE",
"94 101 OFFCURVE",
"118 67 OFFCURVE",
"149 73 OFFCURVE",
"168 92 OFFCURVE",
"174 99 QCURVE",
"184 112 OFFCURVE",
"189 130 QCURVE SMOOTH",
"200 166 LINE",
"210 257 OFFCURVE",
"235 345 OFFCURVE",
"257 349 QCURVE SMOOTH",
"297 355 OFFCURVE",
"405 364 QCURVE",
"423 364 OFFCURVE",
"447 366 QCURVE",
"427 285 LINE",
"414 186 OFFCURVE",
"410 160 QCURVE SMOOTH",
"408 149 OFFCURVE",
"408 128 QCURVE SMOOTH",
"408 90 OFFCURVE",
"427 37 QCURVE",
"434 -1 OFFCURVE",
"467 2 QCURVE"
);
}
);
userData = {
assembly = "NPUSHB[ ]	/* 19 values pushed */
96 71 65 54 52 47 6 0 3 22 1 1 4 83 1 5 1 3 76 
MPPEM[ ]	/* MeasurePixelPerEm */
PUSHB[ ]	/* 1 value pushed */
21 
LT[ ]	/* LessThan */
IF[ ]	/* If */
NPUSHB[ ]	/* 38 values pushed */
0 0 3 4 3 0 4 128 0 4 1 3 4 1 126 0 1 5 3 1 5 126 0 2 2 36 77 0 3 3 32 77 0 5 5 31 5 78 
ELSE[ ]	/* Else */
NPUSHB[ ]	/* 38 values pushed */
0 2 3 2 133 0 0 3 4 3 0 4 128 0 4 1 3 4 1 126 0 1 5 3 1 5 126 0 3 3 32 77 0 5 5 31 5 78 
EIF[ ]	/* EndIf */
NPUSHB[ ]	/* 13 values pushed */
87 86 77 75 59 57 45 44 42 32 6 8 24 
CALL[ ]	/* CallFunction */";
};
width = 755;
}
);
leftKerningGroup = H;
note = H;
rightKerningGroup = H;
unicode = 0048;
},
{
glyphname = I;
lastChange = "2021-12-19 04:24:22 +0000";
layers = (
{
layerId = "D6A4831D-747C-4592-93C0-305F4CD57904";
paths = (
{
closed = 1;
nodes = (
"170 16 OFFCURVE",
"191 22 QCURVE SMOOTH",
"240 36 OFFCURVE",
"283 52 QCURVE SMOOTH",
"348 76 OFFCURVE",
"438 101 OFFCURVE",
"485 107 QCURVE SMOOTH",
"507 109 OFFCURVE",
"567 128 QCURVE SMOOTH",
"586 134 LINE SMOOTH",
"614 141 OFFCURVE",
"639 153 OFFCURVE",
"649 166 QCURVE",
"640 194 OFFCURVE",
"596 212 OFFCURVE",
"563 212 QCURVE SMOOTH",
"536 213 OFFCURVE",
"482 206 QCURVE SMOOTH",
"458 203 OFFCURVE",
"390 194 QCURVE",
"402 253 LINE SMOOTH",
"418 334 OFFCURVE",
"428 382 QCURVE SMOOTH",
"438 437 OFFCURVE",
"451 531 QCURVE SMOOTH",
"456 567 LINE",
"527 559 LINE",
"549 558 LINE SMOOTH",
"575 557 OFFCURVE",
"588 556 QCURVE SMOOTH",
"605 555 OFFCURVE",
"638 585 OFFCURVE",
"616 607 OFFCURVE",
"603 609 OFFCURVE",
"601 609 QCURVE",
"538 627 LINE SMOOTH",
"517 633 OFFCURVE",
"454 650 OFFCURVE",
"412 663 QCURVE SMOOTH",
"367 677 OFFCURVE",
"321 676 QCURVE SMOOTH",
"220 675 OFFCURVE",
"131 609 QCURVE SMOOTH",
"108 592 OFFCURVE",
"97 576 QCURVE SMOOTH",
"89 565 OFFCURVE",
"89 553 QCURVE SMOOTH",
"89 544 OFFCURVE",
"100 528 OFFCURVE",
"109 524 QCURVE SMOOTH",
"112 523 OFFCURVE",
"145 508 OFFCURVE",
"160 508 QCURVE SMOOTH",
"174 508 OFFCURVE",
"187 515 QCURVE SMOOTH",
"224 535 OFFCURVE",
"253 547 QCURVE",
"293 554 OFFCURVE",
"341 543 OFFCURVE",
"328 508 QCURVE",
"328 502 OFFCURVE",
"327 499 QCURVE",
"323 468 LINE SMOOTH",
"310 367 OFFCURVE",
"289 248 OFFCURVE",
"271 187 QCURVE SMOOTH",
"265 163 OFFCURVE",
"240 155 QCURVE SMOOTH",
"182 137 OFFCURVE",
"127 115 QCURVE SMOOTH",
"94 101 OFFCURVE",
"66 80 OFFCURVE",
"60 58 QCURVE",
"104 16 OFFCURVE",
"152 16 QCURVE SMOOTH"
);
}
);
userData = {
assembly = "NPUSHB[ ]	/* 18 values pushed */
51 22 2 3 2 73 66 3 3 0 5 2 76 17 1 1 1 75 
MPPEM[ ]	/* MeasurePixelPerEm */
PUSHB[ ]	/* 1 value pushed */
21 
LT[ ]	/* LessThan */
IF[ ]	/* If */
NPUSHB[ ]	/* 34 values pushed */
4 1 3 2 1 2 3 1 128 0 1 5 2 1 5 126 0 5 0 2 5 0 126 0 2 2 30 77 0 0 0 34 0 78 
ELSE[ ]	/* Else */
NPUSHB[ ]	/* 27 values pushed */
0 2 3 2 133 4 1 3 1 3 133 0 1 5 1 133 0 5 0 5 133 0 0 0 34 0 78 
EIF[ ]	/* EndIf */
NPUSHB[ ]	/* 14 values pushed */
71 69 59 58 57 53 40 38 28 26 32 6 8 23 
CALL[ ]	/* CallFunction */";
};
width = 711;
}
);
leftKerningGroup = I;
leftMetricsKey = "=H";
note = I;
rightKerningGroup = I;
rightMetricsKey = "=H";
unicode = 0049;
},
{
glyphname = J;
lastChange = "2020-12-09 22:30:33 +0000";
layers = (
{
layerId = "D6A4831D-747C-4592-93C0-305F4CD57904";
paths = (
{
closed = 1;
nodes = (
"288 9 OFFCURVE",
"340 20 QCURVE SMOOTH",
"407 33 OFFCURVE",
"494 113 OFFCURVE",
"520 178 QCURVE SMOOTH",
"543 237 OFFCURVE",
"557 360 OFFCURVE",
"559 449 QCURVE SMOOTH",
"560 477 LINE",
"560 512 LINE SMOOTH",
"560 569 OFFCURVE",
"559 597 QCURVE",
"559 654 LINE",
"526 683 OFFCURVE",
"485 683 QCURVE SMOOTH",
"465 683 OFFCURVE",
"435 676 QCURVE",
"425 673 OFFCURVE",
"404 671 QCURVE SMOOTH",
"381 669 OFFCURVE",
"365 664 QCURVE",
"298 639 OFFCURVE",
"223 603 QCURVE SMOOTH",
"213 598 OFFCURVE",
"199 580 OFFCURVE",
"199 570 QCURVE SMOOTH",
"199 563 OFFCURVE",
"202 557 QCURVE",
"206 548 OFFCURVE",
"229 533 OFFCURVE",
"240 530 QCURVE SMOOTH",
"253 526 OFFCURVE",
"269 526 QCURVE SMOOTH",
"295 526 OFFCURVE",
"318 539 QCURVE SMOOTH",
"352 559 OFFCURVE",
"395 577 OFFCURVE",
"423 578 QCURVE",
"435 491 OFFCURVE",
"435 426 QCURVE SMOOTH",
"435 284 OFFCURVE",
"378 178 QCURVE SMOOTH",
"356 137 OFFCURVE",
"267 89 OFFCURVE",
"216 89 QCURVE SMOOTH",
"184 89 OFFCURVE",
"155 99 QCURVE",
"150 101 OFFCURVE",
"119 111 OFFCURVE",
"106 111 QCURVE SMOOTH",
"79 111 OFFCURVE",
"60 87 QCURVE",
"83 52 OFFCURVE",
"122 34 QCURVE SMOOTH",
"178 9 OFFCURVE",
"242 9 QCURVE SMOOTH"
);
}
);
userData = {
assembly = "NPUSHB[ ]	/* 10 values pushed */
40 1 2 4 1 1 5 1 2 76 
MPPEM[ ]	/* MeasurePixelPerEm */
PUSHB[ ]	/* 1 value pushed */
21 
LT[ ]	/* LessThan */
IF[ ]	/* If */
NPUSHB[ ]	/* 38 values pushed */
0 2 4 3 4 2 3 128 0 3 0 4 3 0 126 0 0 1 4 0 1 126 0 4 4 30 77 0 1 1 5 97 0 5 5 40 5 78 
ELSE[ ]	/* Else */
NPUSHB[ ]	/* 31 values pushed */
0 4 2 4 133 0 2 3 2 133 0 3 0 3 133 0 0 1 0 133 0 1 1 5 97 0 5 5 40 5 78 
EIF[ ]	/* EndIf */
NPUSHB[ ]	/* 11 values pushed */
54 52 39 37 35 22 35 34 6 8 26 
CALL[ ]	/* CallFunction */";
};
width = 610;
}
);
note = J;
unicode = 004A;
},
{
glyphname = K;
lastChange = "2020-12-09 22:30:33 +0000";
layers = (
{
layerId = "D6A4831D-747C-4592-93C0-305F4CD57904";
paths = (
{
closed = 1;
nodes = (
"158 -29 OFFCURVE",
"167 2 OFFCURVE",
"167 25 QCURVE",
"166 124 LINE",
"166 157 OFFCURVE",
"167 173 QCURVE SMOOTH",
"168 187 OFFCURVE",
"178 216 OFFCURVE",
"187 224 QCURVE",
"215 251 OFFCURVE",
"270 295 QCURVE SMOOTH",
"299 319 LINE",
"323 285 OFFCURVE",
"325 281 QCURVE",
"355 241 OFFCURVE",
"375 209 QCURVE SMOOTH",
"414 145 OFFCURVE",
"522 38 OFFCURVE",
"591 -13 QCURVE",
"602 -22 OFFCURVE",
"614 -22 QCURVE SMOOTH",
"627 -22 OFFCURVE",
"644 -8 QCURVE",
"627 11 LINE SMOOTH",
"569 72 OFFCURVE",
"474 208 OFFCURVE",
"408 314 QCURVE SMOOTH",
"390 342 LINE SMOOTH",
"373 370 OFFCURVE",
"373 382 QCURVE SMOOTH",
"373 391 OFFCURVE",
"386 408 OFFCURVE",
"400 420 QCURVE SMOOTH",
"423 441 OFFCURVE",
"471 479 QCURVE SMOOTH",
"499 502 LINE",
"609 595 LINE",
"625 611 OFFCURVE",
"625 624 QCURVE SMOOTH",
"625 633 OFFCURVE",
"619 642 QCURVE SMOOTH",
"612 653 OFFCURVE",
"579 666 OFFCURVE",
"561 666 QCURVE SMOOTH",
"539 666 OFFCURVE",
"528 658 QCURVE SMOOTH",
"309 503 LINE SMOOTH",
"267 473 OFFCURVE",
"230 445 QCURVE",
"228 446 OFFCURVE",
"224 448 OFFCURVE",
"222 450 QCURVE",
"231 487 OFFCURVE",
"235 499 QCURVE SMOOTH",
"251 543 OFFCURVE",
"258 565 QCURVE SMOOTH",
"292 662 LINE SMOOTH",
"298 679 OFFCURVE",
"298 688 QCURVE SMOOTH",
"298 697 OFFCURVE",
"287 709 OFFCURVE",
"272 716 QCURVE SMOOTH",
"241 731 OFFCURVE",
"226 731 QCURVE SMOOTH",
"216 731 OFFCURVE",
"201 719 OFFCURVE",
"194 706 QCURVE SMOOTH",
"190 698 OFFCURVE",
"148 617 OFFCURVE",
"136 580 QCURVE SMOOTH",
"110 495 OFFCURVE",
"90 394 QCURVE SMOOTH",
"75 323 OFFCURVE",
"60 228 OFFCURVE",
"60 181 QCURVE SMOOTH",
"60 150 OFFCURVE",
"65 108 QCURVE",
"69 57 LINE",
"79 -8 OFFCURVE",
"106 -26 OFFCURVE",
"142 -39 QCURVE"
);
}
);
userData = {
assembly = "NPUSHB[ ]	/* 12 values pushed */
55 45 39 3 1 0 1 76 51 1 1 73 
MPPEM[ ]	/* MeasurePixelPerEm */
PUSHB[ ]	/* 1 value pushed */
21 
LT[ ]	/* LessThan */
IF[ ]	/* If */
NPUSHB[ ]	/* 16 values pushed */
0 2 0 2 133 0 0 0 30 77 0 1 1 31 1 78 
ELSE[ ]	/* Else */
NPUSHB[ ]	/* 16 values pushed */
0 2 0 2 133 0 0 1 0 133 0 1 1 31 1 78 
EIF[ ]	/* EndIf */
PUSHB[ ]	/* 8 values pushed */
70 68 31 29 38 3 8 23 
CALL[ ]	/* CallFunction */";
};
width = 694;
}
);
leftMetricsKey = "=H";
note = K;
unicode = 004B;
},
{
glyphname = L;
lastChange = "2020-12-09 22:30:33 +0000";
layers = (
{
layerId = "D6A4831D-747C-4592-93C0-305F4CD57904";
paths = (
{
closed = 1;
nodes = (
"300 -58 OFFCURVE",
"355 -47 OFFCURVE",
"390 -37 QCURVE SMOOTH",
"418 -29 LINE SMOOTH",
"422 -28 OFFCURVE",
"429 -18 OFFCURVE",
"432 -16 QCURVE",
"457 3 OFFCURVE",
"474 19 OFFCURVE",
"474 28 QCURVE SMOOTH",
"474 35 OFFCURVE",
"455 56 OFFCURVE",
"442 69 QCURVE",
"362 52 LINE SMOOTH",
"274 34 OFFCURVE",
"246 29 QCURVE SMOOTH",
"241 28 OFFCURVE",
"232 28 QCURVE SMOOTH",
"187 28 OFFCURVE",
"187 78 QCURVE SMOOTH",
"187 105 OFFCURVE",
"193 130 QCURVE SMOOTH",
"239 328 OFFCURVE",
"323 541 QCURVE SMOOTH",
"346 597 OFFCURVE",
"354 630 QCURVE SMOOTH",
"358 645 OFFCURVE",
"358 660 QCURVE SMOOTH",
"358 717 OFFCURVE",
"294 722 QCURVE",
"289 722 OFFCURVE",
"279 724 OFFCURVE",
"274 724 QCURVE",
"249 726 OFFCURVE",
"223 707 OFFCURVE",
"216 684 QCURVE SMOOTH",
"189 595 OFFCURVE",
"177 550 QCURVE SMOOTH",
"120 362 OFFCURVE",
"98 283 QCURVE SMOOTH",
"78 212 OFFCURVE",
"61 109 QCURVE SMOOTH",
"60 104 OFFCURVE",
"60 93 QCURVE SMOOTH",
"60 67 OFFCURVE",
"86 22 OFFCURVE",
"110 1 QCURVE SMOOTH",
"173 -58 OFFCURVE",
"272 -58 QCURVE SMOOTH"
);
}
);
userData = {
assembly = "PUSHB[ ]	/* 4 values pushed */
2 1 1 74 
MPPEM[ ]	/* MeasurePixelPerEm */
PUSHB[ ]	/* 1 value pushed */
36 
LT[ ]	/* LessThan */
IF[ ]	/* If */
NPUSHB[ ]	/* 11 values pushed */
0 1 1 0 97 0 0 0 31 0 78 
ELSE[ ]	/* Else */
NPUSHB[ ]	/* 16 values pushed */
0 1 0 0 1 89 0 1 1 0 97 0 0 1 0 81 
EIF[ ]	/* EndIf */
PUSHB[ ]	/* 6 values pushed */
47 45 46 2 8 23 
CALL[ ]	/* CallFunction */";
};
width = 524;
}
);
leftKerningGroup = L;
leftMetricsKey = "=H";
note = L;
rightKerningGroup = A;
unicode = 004C;
},
{
glyphname = M;
lastChange = "2021-12-19 04:24:22 +0000";
layers = (
{
layerId = "D6A4831D-747C-4592-93C0-305F4CD57904";
paths = (
{
closed = 1;
nodes = (
"875 30 OFFCURVE",
"875 56 OFFCURVE",
"876 66 QCURVE",
"878 98 LINE",
"878 133 OFFCURVE",
"882 161 QCURVE SMOOTH",
"896 283 OFFCURVE",
"928 527 QCURVE SMOOTH",
"930 545 OFFCURVE",
"935 572 OFFCURVE",
"937 581 QCURVE SMOOTH",
"938 586 OFFCURVE",
"938 596 QCURVE SMOOTH",
"938 607 OFFCURVE",
"936 611 QCURVE",
"927 632 OFFCURVE",
"868 672 OFFCURVE",
"844 672 QCURVE SMOOTH",
"837 672 OFFCURVE",
"834 671 QCURVE",
"816 667 OFFCURVE",
"809 656 QCURVE SMOOTH",
"753 574 OFFCURVE",
"705 501 QCURVE SMOOTH",
"693 484 OFFCURVE",
"662 425 QCURVE SMOOTH",
"635 373 OFFCURVE",
"599 312 OFFCURVE",
"578 289 QCURVE",
"546 356 LINE SMOOTH",
"491 474 OFFCURVE",
"415 623 OFFCURVE",
"404 625 QCURVE",
"388 627 OFFCURVE",
"381 627 QCURVE SMOOTH",
"341 627 OFFCURVE",
"317 592 QCURVE SMOOTH",
"285 545 OFFCURVE",
"222 462 QCURVE SMOOTH",
"191 421 LINE SMOOTH",
"108 310 OFFCURVE",
"66 186 QCURVE SMOOTH",
"60 170 OFFCURVE",
"60 154 QCURVE SMOOTH",
"60 124 OFFCURVE",
"87 100 QCURVE",
"122 66 OFFCURVE",
"141 66 QCURVE SMOOTH",
"153 66 OFFCURVE",
"171 95 OFFCURVE",
"181 129 QCURVE SMOOTH",
"233 291 OFFCURVE",
"379 485 QCURVE",
"392 459 LINE SMOOTH",
"396 451 OFFCURVE",
"425 389 OFFCURVE",
"430 371 QCURVE SMOOTH",
"458 275 OFFCURVE",
"477 186 QCURVE SMOOTH",
"489 128 OFFCURVE",
"543 95 QCURVE SMOOTH",
"562 84 OFFCURVE",
"574 84 QCURVE SMOOTH",
"587 84 OFFCURVE",
"606 108 OFFCURVE",
"616 133 QCURVE",
"697 283 OFFCURVE",
"770 392 OFFCURVE",
"779 400 QCURVE",
"777 321 LINE",
"776 266 LINE SMOOTH",
"774 190 OFFCURVE",
"774 153 QCURVE SMOOTH",
"774 117 OFFCURVE",
"775 100 QCURVE SMOOTH",
"777 67 OFFCURVE",
"811 30 OFFCURVE",
"843 23 QCURVE SMOOTH",
"855 20 OFFCURVE",
"861 20 QCURVE"
);
}
);
userData = {
assembly = "NPUSHB[ ]	/* 14 values pushed */
61 44 19 3 4 2 4 1 76 29 1 3 1 75 
MPPEM[ ]	/* MeasurePixelPerEm */
PUSHB[ ]	/* 1 value pushed */
21 
LT[ ]	/* LessThan */
IF[ ]	/* If */
NPUSHB[ ]	/* 31 values pushed */
0 2 4 3 4 2 3 128 0 3 1 4 3 1 126 0 0 0 30 77 0 4 4 32 77 0 1 1 34 1 78 
ELSE[ ]	/* Else */
NPUSHB[ ]	/* 31 values pushed */
0 0 4 0 133 0 2 4 3 4 2 3 128 0 3 1 4 3 1 126 0 4 4 32 77 0 1 1 34 1 78 
EIF[ ]	/* EndIf */
NPUSHB[ ]	/* 12 values pushed */
79 78 67 65 52 50 34 32 30 5 8 23 
CALL[ ]	/* CallFunction */";
};
width = 1000;
}
);
leftMetricsKey = "=H";
note = M;
rightKerningGroup = A;
rightMetricsKey = "=H";
unicode = 004D;
},
{
glyphname = N;
lastChange = "2021-01-11 02:53:08 +0000";
layers = (
{
layerId = "D6A4831D-747C-4592-93C0-305F4CD57904";
paths = (
{
closed = 1;
nodes = (
"161 -55 OFFCURVE",
"201 -9 OFFCURVE",
"202 22 QCURVE SMOOTH",
"205 64 OFFCURVE",
"207 127 OFFCURVE",
"208 147 QCURVE SMOOTH",
"214 272 LINE SMOOTH",
"218 314 OFFCURVE",
"233 388 QCURVE SMOOTH",
"242 432 LINE",
"299 360 OFFCURVE",
"326 323 QCURVE SMOOTH",
"347 295 LINE SMOOTH",
"393 233 OFFCURVE",
"424 195 QCURVE SMOOTH",
"454 159 OFFCURVE",
"495 162 QCURVE SMOOTH",
"536 164 OFFCURVE",
"584 204 OFFCURVE",
"592 245 QCURVE SMOOTH",
"597 272 OFFCURVE",
"600 285 QCURVE SMOOTH",
"621 383 OFFCURVE",
"654 511 OFFCURVE",
"678 574 QCURVE",
"689 593 OFFCURVE",
"698 630 QCURVE SMOOTH",
"704 655 OFFCURVE",
"684 671 QCURVE",
"611 702 OFFCURVE",
"570 596 OFFCURVE",
"503 374 QCURVE SMOOTH",
"486 318 LINE",
"460 355 OFFCURVE",
"433 389 QCURVE",
"314 555 LINE SMOOTH",
"310 560 OFFCURVE",
"306 570 OFFCURVE",
"281 607 OFFCURVE",
"265 621 QCURVE SMOOTH",
"220 661 OFFCURVE",
"175 624 QCURVE",
"148 595 OFFCURVE",
"127 525 OFFCURVE",
"131 488 QCURVE SMOOTH",
"132 477 OFFCURVE",
"125 450 OFFCURVE",
"124 441 QCURVE SMOOTH",
"96 275 OFFCURVE",
"83 180 QCURVE SMOOTH",
"80 164 OFFCURVE",
"77 131 QCURVE SMOOTH",
"74 77 OFFCURVE",
"65 52 QCURVE SMOOTH",
"60 38 OFFCURVE",
"60 20 QCURVE SMOOTH",
"60 -1 OFFCURVE",
"67 -28 QCURVE SMOOTH",
"71 -43 OFFCURVE",
"116 -67 OFFCURVE",
"131 -63 QCURVE SMOOTH"
);
}
);
userData = {
assembly = "NPUSHB[ ]	/* 11 values pushed */
19 1 0 74 57 45 38 14 4 0 73 
MPPEM[ ]	/* MeasurePixelPerEm */
PUSHB[ ]	/* 1 value pushed */
39 
LT[ ]	/* LessThan */
IF[ ]	/* If */
PUSHB[ ]	/* 6 values pushed */
0 0 0 32 0 78 
ELSE[ ]	/* Else */
PUSHB[ ]	/* 4 values pushed */
0 0 0 118 
EIF[ ]	/* EndIf */
PUSHB[ ]	/* 4 values pushed */
36 1 8 23 
CALL[ ]	/* CallFunction */";
};
width = 719;
}
);
leftKerningGroup = N;
leftMetricsKey = "=H";
note = N;
rightKerningGroup = N;
unicode = 004E;
},
{
glyphname = O;
lastChange = "2021-12-18 10:37:32 +0000";
layers = (
{
layerId = "D6A4831D-747C-4592-93C0-305F4CD57904";
paths = (
{
closed = 1;
nodes = (
"419 0 OFFCURVE",
"523 67 QCURVE SMOOTH",
"585 106 OFFCURVE",
"685 216 OFFCURVE",
"731 289 QCURVE SMOOTH",
"766 344 OFFCURVE",
"766 397 QCURVE SMOOTH",
"766 464 OFFCURVE",
"711 521 QCURVE",
"707 526 OFFCURVE",
"681 547 QCURVE",
"665 560 OFFCURVE",
"650 573 QCURVE SMOOTH",
"609 613 OFFCURVE",
"484 656 OFFCURVE",
"416 656 QCURVE SMOOTH",
"321 656 OFFCURVE",
"250 615 QCURVE SMOOTH",
"159 563 OFFCURVE",
"116 494 QCURVE",
"127 485 LINE",
"178 497 OFFCURVE",
"202 505 QCURVE SMOOTH",
"328 540 LINE SMOOTH",
"336 542 OFFCURVE",
"350 546 OFFCURVE",
"357 548 QCURVE SMOOTH",
"420 568 OFFCURVE",
"427 570 QCURVE SMOOTH",
"451 577 OFFCURVE",
"473 577 QCURVE SMOOTH",
"534 577 OFFCURVE",
"573 526 QCURVE SMOOTH",
"596 494 OFFCURVE",
"621 443 OFFCURVE",
"621 417 QCURVE SMOOTH",
"621 385 OFFCURVE",
"600 351 QCURVE SMOOTH",
"569 303 OFFCURVE",
"487 218 OFFCURVE",
"432 172 QCURVE SMOOTH",
"402 147 OFFCURVE",
"328 122 OFFCURVE",
"276 112 QCURVE SMOOTH",
"271 111 OFFCURVE",
"262 111 QCURVE SMOOTH",
"244 111 OFFCURVE",
"221 128 OFFCURVE",
"219 144 QCURVE",
"209 199 OFFCURVE",
"209 238 QCURVE SMOOTH",
"209 256 OFFCURVE",
"210 266 QCURVE SMOOTH",
"213 291 OFFCURVE",
"213 306 QCURVE SMOOTH",
"213 327 OFFCURVE",
"192 350 OFFCURVE",
"158 368 QCURVE",
"134 380 LINE",
"108 391 LINE",
"104 388 OFFCURVE",
"90 378 OFFCURVE",
"88 372 QCURVE",
"50 308 OFFCURVE",
"50 243 QCURVE SMOOTH",
"50 159 OFFCURVE",
"169 26 OFFCURVE",
"265 6 QCURVE SMOOTH",
"294 0 OFFCURVE",
"323 0 QCURVE SMOOTH"
);
}
);
userData = {
assembly = "PUSHB[ ]	/* 6 values pushed */
69 1 2 3 1 76 
MPPEM[ ]	/* MeasurePixelPerEm */
PUSHB[ ]	/* 1 value pushed */
21 
LT[ ]	/* LessThan */
IF[ ]	/* If */
NPUSHB[ ]	/* 24 values pushed */
0 2 3 1 3 2 1 128 0 3 3 0 97 0 0 0 30 77 0 1 1 34 1 78 
ELSE[ ]	/* Else */
MPPEM[ ]	/* MeasurePixelPerEm */
PUSHB[ ]	/* 1 value pushed */
24 
LT[ ]	/* LessThan */
IF[ ]	/* If */
NPUSHB[ ]	/* 24 values pushed */
0 2 3 1 3 2 1 128 0 3 3 0 97 0 0 0 32 77 0 1 1 34 1 78 
ELSE[ ]	/* Else */
MPPEM[ ]	/* MeasurePixelPerEm */
PUSHB[ ]	/* 1 value pushed */
26 
LT[ ]	/* LessThan */
IF[ ]	/* If */
NPUSHB[ ]	/* 22 values pushed */
0 2 3 1 3 2 1 128 0 0 0 3 2 0 3 105 0 1 1 34 1 78 
ELSE[ ]	/* Else */
NPUSHB[ ]	/* 28 values pushed */
0 2 3 1 3 2 1 128 0 1 1 132 0 0 3 3 0 89 0 0 0 3 97 0 3 0 3 81 
EIF[ ]	/* EndIf */
EIF[ ]	/* EndIf */
EIF[ ]	/* EndIf */
NPUSHB[ ]	/* 9 values pushed */
59 57 43 42 46 34 4 8 24 
CALL[ ]	/* CallFunction */";
};
width = 816;
}
);
leftKerningGroup = O;
leftMetricsKey = O;
note = O;
rightKerningGroup = O;
rightMetricsKey = o;
unicode = 004F;
},
{
glyphname = P;
lastChange = "2021-12-18 05:32:46 +0000";
layers = (
{
layerId = "D6A4831D-747C-4592-93C0-305F4CD57904";
paths = (
{
closed = 1;
nodes = (
"106 1 LINE SMOOTH",
"123 2 OFFCURVE",
"141 21 OFFCURVE",
"145 37 QCURVE SMOOTH",
"154 82 LINE SMOOTH",
"157 97 OFFCURVE",
"165 142 OFFCURVE",
"172 172 QCURVE SMOOTH",
"256 561 LINE SMOOTH",
"265 601 OFFCURVE",
"300 598 QCURVE SMOOTH",
"408 589 OFFCURVE",
"495 582 QCURVE SMOOTH",
"502 581 OFFCURVE",
"523 572 OFFCURVE",
"530 538 QCURVE",
"515 510 OFFCURVE",
"504 501 QCURVE SMOOTH",
"447 449 OFFCURVE",
"370 389 QCURVE SMOOTH",
"347 371 OFFCURVE",
"299 340 QCURVE SMOOTH",
"271 322 LINE",
"284 296 OFFCURVE",
"323 266 OFFCURVE",
"345 266 QCURVE SMOOTH",
"357 266 OFFCURVE",
"376 273 QCURVE SMOOTH",
"526 328 OFFCURVE",
"617 433 QCURVE SMOOTH",
"636 455 OFFCURVE",
"644 472 QCURVE SMOOTH",
"659 501 OFFCURVE",
"659 525 QCURVE SMOOTH",
"659 562 OFFCURVE",
"620 594 QCURVE SMOOTH",
"615 598 OFFCURVE",
"581 627 OFFCURVE",
"564 634 QCURVE SMOOTH",
"423 692 OFFCURVE",
"286 692 QCURVE SMOOTH",
"251 692 OFFCURVE",
"206 687 QCURVE SMOOTH",
"175 682 OFFCURVE",
"117 652 OFFCURVE",
"96 628 QCURVE SMOOTH",
"68 595 OFFCURVE",
"66 563 QCURVE SMOOTH",
"65 544 OFFCURVE",
"78 518 QCURVE",
"130 509 LINE",
"124 479 OFFCURVE",
"110 421 QCURVE SMOOTH",
"106 405 OFFCURVE",
"83 301 OFFCURVE",
"77 258 QCURVE SMOOTH",
"68 199 OFFCURVE",
"62 81 QCURVE SMOOTH",
"60 41 LINE SMOOTH",
"59 18 OFFCURVE",
"74 0 OFFCURVE",
"93 0 QCURVE SMOOTH"
);
}
);
userData = {
assembly = "PUSHB[ ]	/* 8 values pushed */
40 12 4 3 0 1 1 76 
MPPEM[ ]	/* MeasurePixelPerEm */
PUSHB[ ]	/* 1 value pushed */
21 
LT[ ]	/* LessThan */
IF[ ]	/* If */
NPUSHB[ ]	/* 25 values pushed */
0 0 1 2 1 0 2 128 0 1 1 4 97 0 4 4 36 77 3 1 2 2 40 2 78 
ELSE[ ]	/* Else */
MPPEM[ ]	/* MeasurePixelPerEm */
PUSHB[ ]	/* 1 value pushed */
49 
LT[ ]	/* LessThan */
IF[ ]	/* If */
NPUSHB[ ]	/* 23 values pushed */
0 0 1 2 1 0 2 128 0 4 0 1 0 4 1 105 3 1 2 2 40 2 78 
ELSE[ ]	/* Else */
NPUSHB[ ]	/* 29 values pushed */
0 0 1 2 1 0 2 128 3 1 2 2 132 0 4 1 1 4 89 0 4 4 1 97 0 1 4 1 81 
EIF[ ]	/* EndIf */
EIF[ ]	/* EndIf */
NPUSHB[ ]	/* 9 values pushed */
51 49 17 25 31 32 5 8 26 
CALL[ ]	/* CallFunction */";
};
width = 689;
}
);
leftKerningGroup = P;
leftMetricsKey = "=H";
note = P;
rightKerningGroup = P;
unicode = 0050;
},
{
glyphname = Q;
lastChange = "2020-12-09 22:30:33 +0000";
layers = (
{
layerId = "D6A4831D-747C-4592-93C0-305F4CD57904";
paths = (
{
closed = 1;
nodes = (
"170 -92 OFFCURVE",
"186 -89 QCURVE SMOOTH",
"207 -85 OFFCURVE",
"247 -75 QCURVE SMOOTH",
"301 -62 OFFCURVE",
"332 -56 QCURVE",
"396 -46 OFFCURVE",
"463 -37 OFFCURVE",
"500 -37 QCURVE SMOOTH",
"544 -37 OFFCURVE",
"587 -46 QCURVE",
"601 -48 OFFCURVE",
"610 -48 QCURVE SMOOTH",
"631 -48 OFFCURVE",
"656 -43 QCURVE",
"663 -42 OFFCURVE",
"678 -25 OFFCURVE",
"679 -17 QCURVE",
"679 -11 OFFCURVE",
"664 6 OFFCURVE",
"657 8 QCURVE SMOOTH",
"582 29 OFFCURVE",
"469 55 OFFCURVE",
"411 55 QCURVE",
"399 54 OFFCURVE",
"363 57 QCURVE SMOOTH",
"321 60 LINE",
"321 60 OFFCURVE",
"339 75 QCURVE SMOOTH",
"358 90 OFFCURVE",
"366 95 QCURVE",
"438 131 OFFCURVE",
"484 210 QCURVE SMOOTH",
"525 280 OFFCURVE",
"526 346 QCURVE SMOOTH",
"526 398 OFFCURVE",
"487 489 OFFCURVE",
"451 536 QCURVE SMOOTH",
"425 570 OFFCURVE",
"353 615 OFFCURVE",
"305 632 QCURVE",
"298 635 OFFCURVE",
"289 635 QCURVE SMOOTH",
"275 635 OFFCURVE",
"258 630 QCURVE",
"214 621 OFFCURVE",
"147 566 OFFCURVE",
"116 523 QCURVE SMOOTH",
"96 495 OFFCURVE",
"72 447 OFFCURVE",
"72 422 QCURVE SMOOTH",
"72 406 OFFCURVE",
"76 394 QCURVE",
"81 377 OFFCURVE",
"81 353 QCURVE SMOOTH",
"81 334 OFFCURVE",
"80 325 QCURVE",
"79 296 LINE SMOOTH",
"74 145 OFFCURVE",
"200 77 QCURVE SMOOTH",
"213 70 OFFCURVE",
"250 48 QCURVE",
"213 41 OFFCURVE",
"209 40 QCURVE",
"167 33 OFFCURVE",
"142 25 QCURVE SMOOTH",
"114 16 OFFCURVE",
"73 -8 OFFCURVE",
"60 -28 QCURVE",
"79 -62 OFFCURVE",
"123 -92 OFFCURVE",
"154 -92 QCURVE SMOOTH"
);
},
{
closed = 1;
nodes = (
"208 166 OFFCURVE",
"181 196 OFFCURVE",
"177 223 QCURVE SMOOTH",
"173 248 OFFCURVE",
"173 280 QCURVE",
"171 309 LINE",
"173 309 LINE",
"173 341 LINE",
"170 398 OFFCURVE",
"224 485 OFFCURVE",
"275 526 QCURVE SMOOTH",
"296 543 OFFCURVE",
"318 543 QCURVE SMOOTH",
"350 543 OFFCURVE",
"373 503 QCURVE SMOOTH",
"402 453 OFFCURVE",
"401 404 QCURVE SMOOTH",
"400 362 OFFCURVE",
"380 318 QCURVE SMOOTH",
"344 239 OFFCURVE",
"273 185 QCURVE SMOOTH",
"248 166 OFFCURVE",
"227 166 QCURVE SMOOTH"
);
}
);
userData = {
assembly = "NPUSHB[ ]	/* 11 values pushed */
45 1 5 6 40 33 2 2 0 2 76 
MPPEM[ ]	/* MeasurePixelPerEm */
PUSHB[ ]	/* 1 value pushed */
21 
LT[ ]	/* LessThan */
IF[ ]	/* If */
NPUSHB[ ]	/* 41 values pushed */
0 6 4 5 4 6 5 128 0 5 0 4 5 0 126 0 3 1 3 134 0 4 4 30 77 0 0 0 2 97 0 2 2 31 77 0 1 1 31 1 78 
ELSE[ ]	/* Else */
MPPEM[ ]	/* MeasurePixelPerEm */
PUSHB[ ]	/* 1 value pushed */
36 
LT[ ]	/* LessThan */
IF[ ]	/* If */
NPUSHB[ ]	/* 36 values pushed */
0 4 6 4 133 0 6 5 6 133 0 5 0 5 133 0 3 1 3 134 0 0 0 2 97 0 2 2 31 77 0 1 1 31 1 78 
ELSE[ ]	/* Else */
NPUSHB[ ]	/* 34 values pushed */
0 4 6 4 133 0 6 5 6 133 0 5 0 5 133 0 3 1 3 134 0 0 0 2 1 0 2 105 0 1 1 31 1 78 
EIF[ ]	/* EndIf */
EIF[ ]	/* EndIf */
NPUSHB[ ]	/* 13 values pushed */
89 87 79 77 60 58 39 34 41 52 7 8 26 
CALL[ ]	/* CallFunction */";
};
width = 699;
}
);
leftKerningGroup = O;
note = Q;
rightKerningGroup = O;
unicode = 0051;
},
{
glyphname = R;
lastChange = "2021-02-11 01:17:52 +0000";
layers = (
{
layerId = "D6A4831D-747C-4592-93C0-305F4CD57904";
paths = (
{
closed = 1;
nodes = (
"160 -32 OFFCURVE",
"177 -8 OFFCURVE",
"177 28 QCURVE",
"176 44 LINE",
"194 192 LINE",
"208 190 OFFCURVE",
"238 188 QCURVE",
"305 181 OFFCURVE",
"323 178 QCURVE SMOOTH",
"363 171 OFFCURVE",
"398 152 QCURVE SMOOTH",
"425 137 OFFCURVE",
"466 110 QCURVE SMOOTH",
"520 74 OFFCURVE",
"540 65 QCURVE SMOOTH",
"566 53 OFFCURVE",
"611 43 QCURVE SMOOTH",
"615 42 OFFCURVE",
"621 42 QCURVE SMOOTH",
"637 42 OFFCURVE",
"656 61 OFFCURVE",
"656 77 QCURVE SMOOTH",
"656 86 OFFCURVE",
"653 96 QCURVE",
"650 104 OFFCURVE",
"640 124 OFFCURVE",
"637 129 QCURVE",
"630 128 OFFCURVE",
"617 128 QCURVE SMOOTH",
"574 128 OFFCURVE",
"536 151 QCURVE",
"497 177 OFFCURVE",
"414 222 QCURVE SMOOTH",
"392 234 LINE",
"390 236 OFFCURVE",
"387 241 OFFCURVE",
"386 241 QCURVE",
"451 325 LINE SMOOTH",
"530 428 OFFCURVE",
"573 484 QCURVE SMOOTH",
"609 531 OFFCURVE",
"609 577 QCURVE SMOOTH",
"609 610 OFFCURVE",
"588 645 QCURVE SMOOTH",
"565 684 OFFCURVE",
"496 725 OFFCURVE",
"456 725 QCURVE SMOOTH",
"417 725 OFFCURVE",
"379 706 QCURVE SMOOTH",
"261 647 OFFCURVE",
"204 538 QCURVE SMOOTH",
"103 343 OFFCURVE",
"75 162 QCURVE SMOOTH",
"67 103 OFFCURVE",
"67 27 QCURVE SMOOTH",
"67 2 OFFCURVE",
"107 -32 OFFCURVE",
"134 -32 QCURVE SMOOTH"
);
},
{
closed = 1;
nodes = (
"291 483 OFFCURVE",
"411 619 OFFCURVE",
"484 641 QCURVE",
"485 636 OFFCURVE",
"489 612 OFFCURVE",
"489 604 QCURVE SMOOTH",
"489 597 OFFCURVE",
"488 594 QCURVE SMOOTH",
"470 543 OFFCURVE",
"452 502 OFFCURVE",
"439 484 QCURVE SMOOTH",
"407 440 OFFCURVE",
"324 340 OFFCURVE",
"283 294 QCURVE SMOOTH",
"264 273 OFFCURVE",
"241 255 OFFCURVE",
"221 257 QCURVE"
);
}
);
userData = {
assembly = "NPUSHB[ ]	/* 11 values pushed */
73 44 2 1 3 19 1 0 4 2 76 
MPPEM[ ]	/* MeasurePixelPerEm */
PUSHB[ ]	/* 1 value pushed */
21 
LT[ ]	/* LessThan */
IF[ ]	/* If */
NPUSHB[ ]	/* 29 values pushed */
0 1 3 4 3 1 4 128 0 3 3 36 77 0 4 4 0 97 0 0 0 34 77 0 2 2 31 2 78 
ELSE[ ]	/* Else */
MPPEM[ ]	/* MeasurePixelPerEm */
PUSHB[ ]	/* 1 value pushed */
36 
LT[ ]	/* LessThan */
IF[ ]	/* If */
NPUSHB[ ]	/* 24 values pushed */
0 3 1 3 133 0 1 4 1 133 0 4 0 0 2 4 0 105 0 2 2 31 2 78 
ELSE[ ]	/* Else */
NPUSHB[ ]	/* 31 values pushed */
0 3 1 3 133 0 1 4 1 133 0 2 0 2 134 0 4 0 0 4 89 0 4 4 0 97 0 0 4 0 81 
EIF[ ]	/* EndIf */
EIF[ ]	/* EndIf */
NPUSHB[ ]	/* 9 values pushed */
53 51 41 37 28 19 5 8 26 
CALL[ ]	/* CallFunction */";
};
width = 699;
}
);
note = R;
unicode = 0052;
},
{
glyphname = S;
lastChange = "2021-12-19 04:24:22 +0000";
layers = (
{
layerId = "D6A4831D-747C-4592-93C0-305F4CD57904";
paths = (
{
closed = 1;
nodes = (
"203 -39 OFFCURVE",
"225 -37 OFFCURVE",
"233 -36 QCURVE",
"296 -31 OFFCURVE",
"396 8 OFFCURVE",
"434 50 QCURVE SMOOTH",
"467 86 OFFCURVE",
"467 129 QCURVE SMOOTH",
"467 146 OFFCURVE",
"459 167 QCURVE SMOOTH",
"439 215 OFFCURVE",
"382 289 OFFCURVE",
"333 342 QCURVE SMOOTH",
"310 366 LINE",
"244 445 OFFCURVE",
"215 475 QCURVE",
"185 500 OFFCURVE",
"185 527 QCURVE SMOOTH",
"185 543 OFFCURVE",
"196 555 QCURVE",
"211 575 OFFCURVE",
"232 588 QCURVE SMOOTH",
"277 614 OFFCURVE",
"361 639 OFFCURVE",
"407 639 QCURVE SMOOTH",
"428 639 OFFCURVE",
"439 638 QCURVE",
"464 666 OFFCURVE",
"464 684 QCURVE SMOOTH",
"464 702 OFFCURVE",
"439 712 QCURVE",
"429 717 OFFCURVE",
"407 719 QCURVE SMOOTH",
"383 721 OFFCURVE",
"370 721 QCURVE SMOOTH",
"276 721 OFFCURVE",
"186 670 QCURVE SMOOTH",
"139 644 OFFCURVE",
"92 562 OFFCURVE",
"92 516 QCURVE SMOOTH",
"92 482 OFFCURVE",
"117 419 OFFCURVE",
"139 395 QCURVE SMOOTH",
"178 353 OFFCURVE",
"226 310 QCURVE SMOOTH",
"277 262 OFFCURVE",
"359 161 OFFCURVE",
"352 141 QCURVE",
"340 111 OFFCURVE",
"233 70 OFFCURVE",
"173 70 QCURVE SMOOTH",
"119 70 OFFCURVE",
"80 88 QCURVE",
"78 94 OFFCURVE",
"78 97 QCURVE",
"81 118 OFFCURVE",
"76 131 OFFCURVE",
"62 133 QCURVE",
"34 99 OFFCURVE",
"34 66 QCURVE SMOOTH",
"34 27 OFFCURVE",
"72 -5 QCURVE SMOOTH",
"92 -21 OFFCURVE",
"140 -38 OFFCURVE",
"162 -37 QCURVE",
"180 -39 OFFCURVE",
"189 -39 QCURVE SMOOTH"
);
}
);
userData = {
assembly = "PUSHB[ ]	/* 6 values pushed */
39 1 3 0 1 76 
MPPEM[ ]	/* MeasurePixelPerEm */
PUSHB[ ]	/* 1 value pushed */
21 
LT[ ]	/* LessThan */
IF[ ]	/* If */
NPUSHB[ ]	/* 22 values pushed */
0 0 0 4 97 0 4 4 36 77 0 3 3 1 97 2 1 1 1 31 1 78 
ELSE[ ]	/* Else */
MPPEM[ ]	/* MeasurePixelPerEm */
PUSHB[ ]	/* 1 value pushed */
24 
LT[ ]	/* LessThan */
IF[ ]	/* If */
NPUSHB[ ]	/* 20 values pushed */
0 4 0 0 3 4 0 105 0 3 3 1 97 2 1 1 1 31 1 78 
ELSE[ ]	/* Else */
NPUSHB[ ]	/* 25 values pushed */
0 4 0 0 3 4 0 105 0 3 1 1 3 89 0 3 3 1 97 2 1 1 3 1 81 
EIF[ ]	/* EndIf */
EIF[ ]	/* EndIf */
NPUSHB[ ]	/* 12 values pushed */
64 62 48 46 33 32 31 29 36 5 8 23 
CALL[ ]	/* CallFunction */";
};
width = 529;
}
);
leftKerningGroup = S;
note = S;
rightKerningGroup = S;
rightMetricsKey = H;
unicode = 0053;
},
{
glyphname = T;
lastChange = "2020-12-09 22:30:33 +0000";
layers = (
{
layerId = "D6A4831D-747C-4592-93C0-305F4CD57904";
paths = (
{
closed = 1;
nodes = (
"376 4 OFFCURVE",
"386 21 OFFCURVE",
"394 47 QCURVE SMOOTH",
"406 88 OFFCURVE",
"407 117 QCURVE",
"411 170 OFFCURVE",
"427 309 QCURVE SMOOTH",
"443 463 OFFCURVE",
"448 526 QCURVE",
"455 570 OFFCURVE",
"473 577 OFFCURVE",
"497 579 QCURVE SMOOTH",
"536 582 OFFCURVE",
"614 587 QCURVE",
"634 589 OFFCURVE",
"673 591 QCURVE",
"711 595 OFFCURVE",
"801 605 QCURVE SMOOTH",
"837 609 OFFCURVE",
"837 634 QCURVE",
"825 653 OFFCURVE",
"806 653 OFFCURVE",
"802 653 QCURVE",
"732 658 LINE SMOOTH",
"716 659 OFFCURVE",
"531 673 OFFCURVE",
"446 673 QCURVE SMOOTH",
"267 674 OFFCURVE",
"128 623 QCURVE SMOOTH",
"99 612 OFFCURVE",
"66 590 OFFCURVE",
"60 568 QCURVE",
"73 539 OFFCURVE",
"118 509 OFFCURVE",
"145 509 QCURVE SMOOTH",
"163 509 OFFCURVE",
"184 517 QCURVE SMOOTH",
"272 551 OFFCURVE",
"350 563 QCURVE",
"342 483 LINE SMOOTH",
"339 455 OFFCURVE",
"333 386 OFFCURVE",
"330 345 QCURVE SMOOTH",
"315 133 OFFCURVE",
"293 46 QCURVE",
"291 36 OFFCURVE",
"291 33 QCURVE SMOOTH",
"291 18 OFFCURVE",
"312 1 OFFCURVE",
"331 1 QCURVE"
);
}
);
userData = {
assembly = "MPPEM[ ]	/* MeasurePixelPerEm */
PUSHB[ ]	/* 1 value pushed */
46 
LT[ ]	/* LessThan */
IF[ ]	/* If */
NPUSHB[ ]	/* 14 values pushed */
35 10 3 3 0 4 52 48 39 3 6 0 2 76 
ELSE[ ]	/* Else */
NPUSHB[ ]	/* 14 values pushed */
35 10 3 3 0 5 52 48 39 3 6 0 2 76 
EIF[ ]	/* EndIf */
MPPEM[ ]	/* MeasurePixelPerEm */
PUSHB[ ]	/* 1 value pushed */
21 
LT[ ]	/* LessThan */
IF[ ]	/* If */
NPUSHB[ ]	/* 33 values pushed */
5 1 4 2 0 2 4 0 128 0 0 6 2 0 6 126 0 1 1 30 77 3 1 2 2 32 77 0 6 6 31 6 78 
ELSE[ ]	/* Else */
MPPEM[ ]	/* MeasurePixelPerEm */
PUSHB[ ]	/* 1 value pushed */
39 
LT[ ]	/* LessThan */
IF[ ]	/* If */
NPUSHB[ ]	/* 33 values pushed */
0 1 2 1 133 5 1 4 2 0 2 4 0 128 0 0 6 2 0 6 126 3 1 2 2 32 77 0 6 6 31 6 78 
ELSE[ ]	/* Else */
MPPEM[ ]	/* MeasurePixelPerEm */
PUSHB[ ]	/* 1 value pushed */
44 
LT[ ]	/* LessThan */
IF[ ]	/* If */
NPUSHB[ ]	/* 37 values pushed */
0 1 2 1 133 5 1 4 3 0 3 4 0 128 0 0 6 3 0 6 126 0 2 2 32 77 0 3 3 32 77 0 6 6 31 6 78 
ELSE[ ]	/* Else */
MPPEM[ ]	/* MeasurePixelPerEm */
PUSHB[ ]	/* 1 value pushed */
46 
LT[ ]	/* LessThan */
IF[ ]	/* If */
NPUSHB[ ]	/* 37 values pushed */
0 1 2 1 133 0 2 3 2 133 5 1 4 3 0 3 4 0 128 0 0 6 3 0 6 126 0 3 3 32 77 0 6 6 31 6 78 
ELSE[ ]	/* Else */
NPUSHB[ ]	/* 43 values pushed */
0 1 2 1 133 0 2 3 2 133 0 4 3 5 3 4 5 128 0 5 0 3 5 0 126 0 0 6 3 0 6 126 0 3 3 32 77 0 6 6 31 6 78 
EIF[ ]	/* EndIf */
EIF[ ]	/* EndIf */
EIF[ ]	/* EndIf */
EIF[ ]	/* EndIf */
NPUSHB[ ]	/* 10 values pushed */
46 17 22 33 17 38 38 7 8 29 
CALL[ ]	/* CallFunction */";
};
width = 797;
}
);
leftKerningGroup = T;
note = T;
rightKerningGroup = T;
unicode = 0054;
},
{
glyphname = U;
lastChange = "2020-12-09 22:30:33 +0000";
layers = (
{
layerId = "D6A4831D-747C-4592-93C0-305F4CD57904";
paths = (
{
closed = 1;
nodes = (
"255 41 OFFCURVE",
"275 51 QCURVE SMOOTH",
"325 76 OFFCURVE",
"398 137 OFFCURVE",
"442 183 QCURVE SMOOTH",
"460 202 OFFCURVE",
"499 256 QCURVE",
"511 269 OFFCURVE",
"542 302 OFFCURVE",
"551 310 QCURVE",
"562 318 LINE",
"544 102 LINE",
"632 88 LINE",
"633 90 OFFCURVE",
"640 150 QCURVE SMOOTH",
"652 255 OFFCURVE",
"656 280 QCURVE SMOOTH",
"666 351 OFFCURVE",
"693 511 QCURVE",
"697 569 OFFCURVE",
"629 648 OFFCURVE",
"570 654 QCURVE",
"568 652 LINE",
"563 638 OFFCURVE",
"559 623 QCURVE SMOOTH",
"521 495 OFFCURVE",
"387 281 OFFCURVE",
"283 177 QCURVE SMOOTH",
"263 157 OFFCURVE",
"236 157 QCURVE SMOOTH",
"211 157 OFFCURVE",
"169 193 OFFCURVE",
"167 216 QCURVE",
"165 230 OFFCURVE",
"165 259 QCURVE SMOOTH",
"165 370 OFFCURVE",
"227 502 QCURVE SMOOTH",
"248 546 OFFCURVE",
"248 573 QCURVE SMOOTH",
"248 596 OFFCURVE",
"219 632 OFFCURVE",
"186 651 QCURVE SMOOTH",
"171 660 OFFCURVE",
"160 660 QCURVE SMOOTH",
"157 660 OFFCURVE",
"153 658 QCURVE",
"143 655 OFFCURVE",
"138 635 QCURVE SMOOTH",
"126 593 OFFCURVE",
"119 572 QCURVE",
"98 498 OFFCURVE",
"74 405 OFFCURVE",
"66 357 QCURVE SMOOTH",
"60 320 OFFCURVE",
"60 285 QCURVE SMOOTH",
"60 163 OFFCURVE",
"139 77 QCURVE SMOOTH",
"155 59 OFFCURVE",
"201 41 OFFCURVE",
"226 41 QCURVE SMOOTH"
);
}
);
userData = {
assembly = "NPUSHB[ ]	/* 11 values pushed */
58 5 2 2 3 4 1 0 2 2 76 
MPPEM[ ]	/* MeasurePixelPerEm */
PUSHB[ ]	/* 1 value pushed */
21 
LT[ ]	/* LessThan */
IF[ ]	/* If */
NPUSHB[ ]	/* 21 values pushed */
0 1 1 30 77 0 3 3 32 77 0 2 2 0 97 0 0 0 34 0 78 
ELSE[ ]	/* Else */
MPPEM[ ]	/* MeasurePixelPerEm */
PUSHB[ ]	/* 1 value pushed */
34 
LT[ ]	/* LessThan */
IF[ ]	/* If */
NPUSHB[ ]	/* 18 values pushed */
0 1 3 1 133 0 2 0 0 2 0 101 0 3 3 32 3 78 
ELSE[ ]	/* Else */
NPUSHB[ ]	/* 26 values pushed */
0 1 3 1 133 0 3 2 3 133 0 2 0 0 2 89 0 2 2 0 97 0 0 2 0 81 
EIF[ ]	/* EndIf */
EIF[ ]	/* EndIf */
PUSHB[ ]	/* 7 values pushed */
54 44 31 47 4 8 26 
CALL[ ]	/* CallFunction */";
};
width = 743;
}
);
leftKerningGroup = U;
note = U;
rightKerningGroup = U;
unicode = 0055;
},
{
glyphname = V;
lastChange = "2021-12-18 13:40:30 +0000";
layers = (
{
layerId = "D6A4831D-747C-4592-93C0-305F4CD57904";
paths = (
{
closed = 1;
nodes = (
"379 5 OFFCURVE",
"399 29 QCURVE",
"421 60 OFFCURVE",
"455 128 OFFCURVE",
"473 174 QCURVE SMOOTH",
"491 220 LINE SMOOTH",
"527 312 OFFCURVE",
"580 431 OFFCURVE",
"619 486 QCURVE SMOOTH",
"652 535 OFFCURVE",
"689 576 OFFCURVE",
"716 589 QCURVE SMOOTH",
"726 594 OFFCURVE",
"742 610 QCURVE SMOOTH",
"756 624 OFFCURVE",
"756 641 QCURVE SMOOTH",
"756 654 OFFCURVE",
"741 675 OFFCURVE",
"728 681 QCURVE SMOOTH",
"707 691 OFFCURVE",
"685 690 QCURVE SMOOTH",
"665 689 OFFCURVE",
"644 681 QCURVE SMOOTH",
"579 656 OFFCURVE",
"537 581 QCURVE",
"482 496 OFFCURVE",
"423 370 QCURVE SMOOTH",
"365 245 LINE",
"340 185 OFFCURVE",
"325 156 QCURVE SMOOTH",
"322 150 OFFCURVE",
"308 131 QCURVE SMOOTH",
"295 114 LINE",
"270 131 OFFCURVE",
"242 178 OFFCURVE",
"233 209 QCURVE SMOOTH",
"197 338 OFFCURVE",
"171 460 QCURVE SMOOTH",
"160 512 OFFCURVE",
"107 554 OFFCURVE",
"50 552 QCURVE",
"51 539 OFFCURVE",
"50 518 OFFCURVE",
"50 511 QCURVE SMOOTH",
"50 491 LINE SMOOTH",
"50 461 OFFCURVE",
"62 414 OFFCURVE",
"79 393 QCURVE",
"82 390 OFFCURVE",
"84 375 OFFCURVE",
"85 371 QCURVE",
"89 358 OFFCURVE",
"101 316 QCURVE",
"104 307 OFFCURVE",
"130 214 OFFCURVE",
"147 175 QCURVE SMOOTH",
"197 60 OFFCURVE",
"328 8 QCURVE SMOOTH",
"343 2 OFFCURVE",
"354 3 QCURVE SMOOTH"
);
}
);
userData = {
assembly = "PUSHB[ ]	/* 6 values pushed */
14 1 2 0 1 76 
MPPEM[ ]	/* MeasurePixelPerEm */
PUSHB[ ]	/* 1 value pushed */
21 
LT[ ]	/* LessThan */
IF[ ]	/* If */
NPUSHB[ ]	/* 19 values pushed */
0 0 1 2 1 0 2 128 0 1 1 36 77 0 2 2 40 2 78 
ELSE[ ]	/* Else */
NPUSHB[ ]	/* 16 values pushed */
0 1 0 1 133 0 0 2 0 133 0 2 2 40 2 78 
EIF[ ]	/* EndIf */
PUSHB[ ]	/* 8 values pushed */
49 47 27 25 22 3 8 23 
CALL[ ]	/* CallFunction */";
};
width = 776;
}
);
leftKerningGroup = V;
leftMetricsKey = "=|A";
note = V;
rightKerningGroup = V;
unicode = 0056;
},
{
glyphname = W;
lastChange = "2021-01-08 05:12:00 +0000";
layers = (
{
layerId = "D6A4831D-747C-4592-93C0-305F4CD57904";
paths = (
{
closed = 1;
nodes = (
"271 72 OFFCURVE",
"287 75 QCURVE",
"297 93 OFFCURVE",
"324 163 QCURVE SMOOTH",
"352 238 OFFCURVE",
"369 267 QCURVE SMOOTH",
"374 276 OFFCURVE",
"392 314 QCURVE SMOOTH",
"414 358 OFFCURVE",
"447 418 OFFCURVE",
"468 442 QCURVE",
"472 402 OFFCURVE",
"476 348 QCURVE SMOOTH",
"477 326 LINE",
"483 258 OFFCURVE",
"543 133 OFFCURVE",
"594 105 QCURVE SMOOTH",
"625 88 OFFCURVE",
"638 88 QCURVE SMOOTH",
"650 88 OFFCURVE",
"667 109 OFFCURVE",
"678 136 QCURVE SMOOTH",
"696 180 OFFCURVE",
"723 278 QCURVE SMOOTH",
"743 346 OFFCURVE",
"752 373 QCURVE SMOOTH",
"774 437 OFFCURVE",
"809 513 OFFCURVE",
"842 545 QCURVE SMOOTH",
"864 567 OFFCURVE",
"864 588 QCURVE SMOOTH",
"864 603 OFFCURVE",
"853 622 QCURVE",
"842 646 OFFCURVE",
"836 652 OFFCURVE",
"828 652 QCURVE SMOOTH",
"818 652 OFFCURVE",
"810 650 QCURVE",
"768 642 OFFCURVE",
"719 586 OFFCURVE",
"703 540 QCURVE SMOOTH",
"673 450 LINE SMOOTH",
"656 396 OFFCURVE",
"642 359 QCURVE",
"635 337 OFFCURVE",
"611 300 OFFCURVE",
"590 282 QCURVE",
"585 340 LINE SMOOTH",
"578 403 OFFCURVE",
"577 443 QCURVE SMOOTH",
"576 470 OFFCURVE",
"566 505 OFFCURVE",
"554 532 QCURVE",
"547 546 OFFCURVE",
"544 554 QCURVE",
"534 578 OFFCURVE",
"495 604 OFFCURVE",
"473 604 QCURVE SMOOTH",
"457 604 OFFCURVE",
"426 589 OFFCURVE",
"414 575 QCURVE SMOOTH",
"374 528 OFFCURVE",
"326 454 OFFCURVE",
"302 402 QCURVE SMOOTH",
"247 292 LINE",
"234 330 LINE SMOOTH",
"223 363 OFFCURVE",
"223 363 QCURVE",
"202 459 LINE SMOOTH",
"188 523 OFFCURVE",
"180 555 QCURVE SMOOTH",
"163 629 OFFCURVE",
"93 649 QCURVE",
"75 636 OFFCURVE",
"60 618 OFFCURVE",
"60 607 QCURVE SMOOTH",
"60 595 OFFCURVE",
"69 569 QCURVE SMOOTH",
"79 540 LINE SMOOTH",
"81 534 OFFCURVE",
"97 488 OFFCURVE",
"100 468 QCURVE SMOOTH",
"111 399 OFFCURVE",
"156 223 OFFCURVE",
"179 148 QCURVE SMOOTH",
"191 108 OFFCURVE",
"227 72 OFFCURVE",
"257 72 QCURVE SMOOTH"
);
}
);
userData = {
assembly = "NPUSHB[ ]	/* 14 values pushed */
83 1 0 1 57 55 54 20 2 5 2 0 2 76 
MPPEM[ ]	/* MeasurePixelPerEm */
PUSHB[ ]	/* 1 value pushed */
21 
LT[ ]	/* LessThan */
IF[ ]	/* If */
NPUSHB[ ]	/* 25 values pushed */
0 0 1 2 1 0 2 128 0 2 3 1 2 3 126 0 3 3 132 0 1 1 30 1 78 
ELSE[ ]	/* Else */
MPPEM[ ]	/* MeasurePixelPerEm */
PUSHB[ ]	/* 1 value pushed */
31 
LT[ ]	/* LessThan */
IF[ ]	/* If */
NPUSHB[ ]	/* 25 values pushed */
0 0 1 2 1 0 2 128 0 2 3 1 2 3 126 0 3 3 132 0 1 1 32 1 78 
ELSE[ ]	/* Else */
NPUSHB[ ]	/* 19 values pushed */
0 1 0 1 133 0 0 2 0 133 0 2 3 2 133 0 3 3 118 
EIF[ ]	/* EndIf */
EIF[ ]	/* EndIf */
NPUSHB[ ]	/* 10 values pushed */
69 67 50 48 31 30 40 4 8 23 
CALL[ ]	/* CallFunction */";
};
width = 894;
}
);
leftKerningGroup = W;
note = W;
rightKerningGroup = W;
unicode = 0057;
},
{
glyphname = X;
lastChange = "2020-12-09 22:30:33 +0000";
layers = (
{
layerId = "D6A4831D-747C-4592-93C0-305F4CD57904";
paths = (
{
closed = 1;
nodes = (
"82 35 OFFCURVE",
"98 35 OFFCURVE",
"104 37 QCURVE SMOOTH",
"214 70 OFFCURVE",
"308 138 QCURVE SMOOTH",
"321 147 OFFCURVE",
"341 159 OFFCURVE",
"347 159 QCURVE SMOOTH",
"355 159 OFFCURVE",
"375 147 OFFCURVE",
"389 138 QCURVE",
"445 99 OFFCURVE",
"555 49 OFFCURVE",
"614 41 QCURVE SMOOTH",
"631 39 OFFCURVE",
"653 50 OFFCURVE",
"653 61 QCURVE SMOOTH",
"653 66 OFFCURVE",
"650 72 QCURVE",
"645 84 OFFCURVE",
"629 94 QCURVE",
"506 165 LINE SMOOTH",
"494 172 OFFCURVE",
"448 201 QCURVE SMOOTH",
"419 219 LINE",
"423 226 OFFCURVE",
"427 236 OFFCURVE",
"429 239 QCURVE",
"662 495 LINE SMOOTH",
"673 507 OFFCURVE",
"685 538 OFFCURVE",
"685 553 QCURVE SMOOTH",
"685 582 OFFCURVE",
"666 600 QCURVE SMOOTH",
"642 622 OFFCURVE",
"603 644 OFFCURVE",
"578 641 QCURVE",
"538 573 OFFCURVE",
"439 454 OFFCURVE",
"356 364 QCURVE SMOOTH",
"325 331 LINE",
"312 355 LINE SMOOTH",
"301 374 OFFCURVE",
"297 383 QCURVE",
"292 399 OFFCURVE",
"284 433 QCURVE SMOOTH",
"276 463 LINE SMOOTH",
"264 506 OFFCURVE",
"202 563 OFFCURVE",
"164 566 QCURVE",
"153 522 OFFCURVE",
"153 496 QCURVE SMOOTH",
"153 459 OFFCURVE",
"169 424 QCURVE SMOOTH",
"221 314 OFFCURVE",
"251 253 QCURVE",
"60 88 LINE",
"78 35 LINE"
);
}
);
userData = {
assembly = "NPUSHB[ ]	/* 20 values pushed */
35 19 10 4 4 0 74 3 1 0 73 0 0 0 118 53 51 1 8 22 
CALL[ ]	/* CallFunction */";
};
width = 735;
}
);
leftKerningGroup = X;
note = X;
rightKerningGroup = X;
unicode = 0058;
},
{
glyphname = Y;
lastChange = "2020-12-09 22:30:33 +0000";
layers = (
{
layerId = "D6A4831D-747C-4592-93C0-305F4CD57904";
paths = (
{
closed = 1;
nodes = (
"275 -54 OFFCURVE",
"350 51 OFFCURVE",
"400 133 QCURVE SMOOTH",
"414 155 LINE SMOOTH",
"440 198 OFFCURVE",
"471 272 QCURVE SMOOTH",
"498 332 LINE",
"502 340 OFFCURVE",
"524 382 QCURVE SMOOTH",
"529 392 OFFCURVE",
"542 416 OFFCURVE",
"549 431 QCURVE SMOOTH",
"588 512 OFFCURVE",
"605 561 QCURVE SMOOTH",
"612 581 OFFCURVE",
"612 603 QCURVE SMOOTH",
"612 636 OFFCURVE",
"577 687 OFFCURVE",
"544 700 QCURVE",
"536 688 OFFCURVE",
"531 682 QCURVE",
"510 653 OFFCURVE",
"502 634 QCURVE SMOOTH",
"483 591 OFFCURVE",
"409 411 QCURVE SMOOTH",
"382 345 LINE SMOOTH",
"375 329 OFFCURVE",
"360 299 QCURVE",
"329 298 OFFCURVE",
"292 325 OFFCURVE",
"268 353 QCURVE SMOOTH",
"235 391 OFFCURVE",
"200 485 OFFCURVE",
"187 546 QCURVE SMOOTH",
"181 576 OFFCURVE",
"151 610 OFFCURVE",
"121 635 QCURVE",
"104 648 LINE",
"99 651 OFFCURVE",
"92 651 QCURVE",
"73 650 LINE",
"67 624 OFFCURVE",
"60 582 OFFCURVE",
"60 569 QCURVE SMOOTH",
"60 551 OFFCURVE",
"71 515 OFFCURVE",
"87 473 QCURVE SMOOTH",
"149 304 OFFCURVE",
"330 228 QCURVE",
"316 185 OFFCURVE",
"311 172 QCURVE SMOOTH",
"245 10 OFFCURVE",
"213 -71 QCURVE",
"212 -75 OFFCURVE",
"221 -94 OFFCURVE",
"223 -101 QCURVE"
);
}
);
userData = {
assembly = "PUSHB[ ]	/* 8 values pushed */
27 1 0 74 53 1 1 73 
MPPEM[ ]	/* MeasurePixelPerEm */
PUSHB[ ]	/* 1 value pushed */
36 
LT[ ]	/* LessThan */
IF[ ]	/* If */
NPUSHB[ ]	/* 11 values pushed */
0 1 0 1 134 0 0 0 32 0 78 
ELSE[ ]	/* Else */
NPUSHB[ ]	/* 9 values pushed */
0 0 1 0 133 0 1 1 118 
EIF[ ]	/* EndIf */
PUSHB[ ]	/* 5 values pushed */
27 21 2 8 24 
CALL[ ]	/* CallFunction */";
};
width = 632;
}
);
leftKerningGroup = V;
note = Y;
rightKerningGroup = V;
rightMetricsKey = "=V";
unicode = 0059;
},
{
glyphname = Z;
lastChange = "2021-12-19 04:37:56 +0000";
layers = (
{
layerId = "D6A4831D-747C-4592-93C0-305F4CD57904";
paths = (
{
closed = 1;
nodes = (
"202 -29 OFFCURVE",
"234 -23 QCURVE SMOOTH",
"267 -16 LINE SMOOTH",
"369 6 OFFCURVE",
"417 13 QCURVE SMOOTH",
"452 18 OFFCURVE",
"515 24 QCURVE SMOOTH",
"581 30 OFFCURVE",
"613 34 QCURVE SMOOTH",
"663 41 OFFCURVE",
"761 63 QCURVE",
"795 72 OFFCURVE",
"795 104 QCURVE SMOOTH",
"795 112 OFFCURVE",
"794 116 QCURVE",
"250 83 LINE",
"260 103 LINE SMOOTH",
"273 130 OFFCURVE",
"278 138 QCURVE",
"312 187 LINE SMOOTH",
"335 222 OFFCURVE",
"386 295 OFFCURVE",
"409 323 QCURVE SMOOTH",
"532 478 OFFCURVE",
"641 587 QCURVE SMOOTH",
"664 610 OFFCURVE",
"664 626 QCURVE SMOOTH",
"664 636 OFFCURVE",
"649 655 OFFCURVE",
"633 667 QCURVE SMOOTH",
"603 691 OFFCURVE",
"532 714 OFFCURVE",
"488 718 QCURVE SMOOTH",
"448 721 OFFCURVE",
"408 721 QCURVE SMOOTH",
"343 721 OFFCURVE",
"220 708 OFFCURVE",
"113 694 QCURVE SMOOTH",
"50 685 LINE",
"50 681 OFFCURVE",
"51 664 OFFCURVE",
"54 662 QCURVE",
"82 637 OFFCURVE",
"134 610 OFFCURVE",
"164 610 QCURVE",
"176 611 LINE SMOOTH",
"236 617 OFFCURVE",
"297 626 QCURVE SMOOTH",
"304 627 OFFCURVE",
"382 639 OFFCURVE",
"418 639 QCURVE SMOOTH",
"460 639 OFFCURVE",
"492 630 QCURVE",
"458 577 LINE SMOOTH",
"396 481 OFFCURVE",
"349 412 QCURVE SMOOTH",
"272 300 OFFCURVE",
"114 78 QCURVE SMOOTH",
"97 53 OFFCURVE",
"97 33 QCURVE SMOOTH",
"97 0 OFFCURVE",
"140 -19 QCURVE SMOOTH",
"161 -29 OFFCURVE",
"187 -29 QCURVE SMOOTH"
);
}
);
userData = {
assembly = "MPPEM[ ]	/* MeasurePixelPerEm */
PUSHB[ ]	/* 1 value pushed */
31 
LT[ ]	/* LessThan */
IF[ ]	/* If */
NPUSHB[ ]	/* 10 values pushed */
2 1 1 0 42 1 3 1 2 76 
ELSE[ ]	/* Else */
NPUSHB[ ]	/* 12 values pushed */
2 1 1 0 42 40 39 3 4 1 2 76 
EIF[ ]	/* EndIf */
MPPEM[ ]	/* MeasurePixelPerEm */
PUSHB[ ]	/* 1 value pushed */
21 
LT[ ]	/* LessThan */
IF[ ]	/* If */
NPUSHB[ ]	/* 31 values pushed */
0 1 0 3 0 1 3 128 0 3 4 0 3 4 126 0 0 0 2 97 0 2 2 36 77 0 4 4 31 4 78 
ELSE[ ]	/* Else */
MPPEM[ ]	/* MeasurePixelPerEm */
PUSHB[ ]	/* 1 value pushed */
31 
LT[ ]	/* LessThan */
IF[ ]	/* If */
NPUSHB[ ]	/* 29 values pushed */
0 1 0 3 0 1 3 128 0 3 4 0 3 4 126 0 2 0 0 1 2 0 105 0 4 4 31 4 78 
ELSE[ ]	/* Else */
MPPEM[ ]	/* MeasurePixelPerEm */
PUSHB[ ]	/* 1 value pushed */
44 
LT[ ]	/* LessThan */
IF[ ]	/* If */
NPUSHB[ ]	/* 22 values pushed */
0 1 0 4 0 1 4 128 0 2 0 0 1 2 0 105 0 4 4 31 4 78 
ELSE[ ]	/* Else */
NPUSHB[ ]	/* 28 values pushed */
0 1 0 4 0 1 4 128 0 4 4 132 0 2 0 0 2 89 0 2 2 0 97 0 0 2 0 81 
EIF[ ]	/* EndIf */
EIF[ ]	/* EndIf */
EIF[ ]	/* EndIf */
NPUSHB[ ]	/* 10 values pushed */
56 54 40 39 40 21 35 5 8 25 
CALL[ ]	/* CallFunction */";
};
width = 805;
}
);
leftKerningGroup = Z;
note = Z;
rightKerningGroup = Z;
unicode = 005A;
},
{
glyphname = bracketleft;
lastChange = "2020-12-09 22:30:36 +0000";
layers = (
{
layerId = "D6A4831D-747C-4592-93C0-305F4CD57904";
paths = (
{
closed = 1;
nodes = (
"141 -79 OFFCURVE",
"161 -77 QCURVE SMOOTH",
"212 -71 OFFCURVE",
"319 -55 QCURVE SMOOTH",
"339 -52 OFFCURVE",
"351 -44 QCURVE SMOOTH",
"357 -40 OFFCURVE",
"368 -26 OFFCURVE",
"367 -21 QCURVE",
"366 -14 OFFCURVE",
"353 0 OFFCURVE",
"346 3 QCURVE",
"329 9 LINE SMOOTH",
"295 22 OFFCURVE",
"276 22 QCURVE",
"256 21 OFFCURVE",
"236 9 QCURVE SMOOTH",
"231 6 OFFCURVE",
"213 3 OFFCURVE",
"209 2 QCURVE",
"204 1 OFFCURVE",
"196 1 QCURVE SMOOTH",
"166 1 OFFCURVE",
"166 32 QCURVE SMOOTH",
"166 38 OFFCURVE",
"166 41 QCURVE",
"174 123 OFFCURVE",
"176 166 QCURVE SMOOTH",
"186 377 OFFCURVE",
"190 482 QCURVE SMOOTH",
"191 511 OFFCURVE",
"191 526 QCURVE SMOOTH",
"191 544 OFFCURVE",
"188 559 QCURVE SMOOTH",
"186 571 OFFCURVE",
"186 579 QCURVE SMOOTH",
"186 619 OFFCURVE",
"231 634 QCURVE",
"252 639 OFFCURVE",
"294 649 QCURVE SMOOTH",
"303 651 OFFCURVE",
"343 660 OFFCURVE",
"358 665 QCURVE",
"368 667 OFFCURVE",
"387 691 OFFCURVE",
"393 696 QCURVE",
"379 704 LINE",
"359 720 OFFCURVE",
"348 719 QCURVE SMOOTH",
"282 713 OFFCURVE",
"200 688 OFFCURVE",
"160 675 QCURVE SMOOTH",
"90 652 OFFCURVE",
"90 577 QCURVE SMOOTH",
"90 563 OFFCURVE",
"93 546 QCURVE",
"93 542 OFFCURVE",
"93 534 QCURVE SMOOTH",
"93 522 LINE",
"82 333 OFFCURVE",
"66 86 QCURVE SMOOTH",
"64 56 OFFCURVE",
"60 1 QCURVE",
"60 -44 OFFCURVE",
"87 -80 OFFCURVE",
"125 -80 QCURVE"
);
}
);
userData = {
assembly = "NPUSHB[ ]	/* 34 values pushed */
58 1 0 1 1 76 43 21 6 3 2 74 0 2 1 2 133 0 1 0 1 133 0 0 0 118 53 51 46 44 32 3 8 23 
CALL[ ]	/* CallFunction */";
};
width = 443;
}
);
note = bracketleft;
unicode = 005B;
},
{
glyphname = backslash;
lastChange = "2020-12-09 22:30:36 +0000";
layers = (
{
layerId = "D6A4831D-747C-4592-93C0-305F4CD57904";
paths = (
{
closed = 1;
nodes = (
"355 -34 OFFCURVE",
"369 17 OFFCURVE",
"369 51 QCURVE SMOOTH",
"369 87 OFFCURVE",
"364 102 QCURVE",
"350 138 OFFCURVE",
"273 344 OFFCURVE",
"253 403 QCURVE SMOOTH",
"240 439 OFFCURVE",
"225 493 QCURVE SMOOTH",
"211 538 LINE SMOOTH",
"184 623 OFFCURVE",
"162 690 QCURVE SMOOTH",
"149 726 OFFCURVE",
"118 722 QCURVE SMOOTH",
"97 720 OFFCURVE",
"60 672 OFFCURVE",
"60 650 QCURVE SMOOTH",
"60 644 OFFCURVE",
"61 641 QCURVE",
"125 353 LINE",
"209 148 OFFCURVE",
"299 -15 OFFCURVE",
"328 -30 QCURVE SMOOTH",
"336 -34 OFFCURVE",
"340 -34 QCURVE SMOOTH"
);
}
);
userData = {
assembly = "PUSHB[ ]	/* 4 values pushed */
6 1 0 74 
MPPEM[ ]	/* MeasurePixelPerEm */
PUSHB[ ]	/* 1 value pushed */
31 
LT[ ]	/* LessThan */
IF[ ]	/* If */
PUSHB[ ]	/* 6 values pushed */
0 0 0 31 0 78 
ELSE[ ]	/* Else */
PUSHB[ ]	/* 4 values pushed */
0 0 0 118 
EIF[ ]	/* EndIf */
PUSHB[ ]	/* 5 values pushed */
24 23 1 8 22 
CALL[ ]	/* CallFunction */";
};
width = 419;
}
);
note = backslash;
unicode = 005C;
},
{
glyphname = bracketright;
lastChange = "2020-12-09 22:30:36 +0000";
layers = (
{
layerId = "D6A4831D-747C-4592-93C0-305F4CD57904";
paths = (
{
closed = 1;
nodes = (
"194 -74 OFFCURVE",
"264 -52 QCURVE",
"321 -26 OFFCURVE",
"328 4 OFFCURVE",
"329 40 QCURVE SMOOTH",
"335 274 OFFCURVE",
"344 485 QCURVE",
"349 532 OFFCURVE",
"360 611 QCURVE SMOOTH",
"367 661 LINE",
"347 671 LINE SMOOTH",
"326 681 OFFCURVE",
"322 683 QCURVE SMOOTH",
"282 703 OFFCURVE",
"235 703 QCURVE SMOOTH",
"201 703 OFFCURVE",
"143 683 OFFCURVE",
"123 664 QCURVE SMOOTH",
"117 658 OFFCURVE",
"108 640 OFFCURVE",
"110 632 QCURVE",
"112 626 OFFCURVE",
"130 614 OFFCURVE",
"138 613 QCURVE",
"155 610 OFFCURVE",
"169 610 QCURVE SMOOTH",
"187 610 OFFCURVE",
"200 613 QCURVE",
"209 616 OFFCURVE",
"221 616 QCURVE SMOOTH",
"240 616 OFFCURVE",
"259 595 OFFCURVE",
"257 576 QCURVE SMOOTH",
"250 510 LINE SMOOTH",
"239 405 OFFCURVE",
"236 355 QCURVE SMOOTH",
"228 233 OFFCURVE",
"228 50 QCURVE SMOOTH",
"228 31 OFFCURVE",
"197 3 OFFCURVE",
"176 -2 QCURVE",
"171 -4 OFFCURVE",
"128 -12 QCURVE SMOOTH",
"109 -15 OFFCURVE",
"88 -19 QCURVE SMOOTH",
"82 -20 OFFCURVE",
"65 -33 OFFCURVE",
"60 -35 QCURVE",
"63 -40 OFFCURVE",
"72 -57 OFFCURVE",
"78 -61 QCURVE",
"104 -72 OFFCURVE",
"125 -80 OFFCURVE",
"136 -79 QCURVE SMOOTH"
);
}
);
userData = {
assembly = "PUSHB[ ]	/* 6 values pushed */
2 1 0 2 1 76 
MPPEM[ ]	/* MeasurePixelPerEm */
PUSHB[ ]	/* 1 value pushed */
29 
LT[ ]	/* LessThan */
IF[ ]	/* If */
NPUSHB[ ]	/* 17 values pushed */
0 2 0 0 2 89 0 2 2 0 97 1 1 0 2 0 81 
ELSE[ ]	/* Else */
NPUSHB[ ]	/* 21 values pushed */
0 1 0 1 134 0 2 0 0 2 89 0 2 2 0 97 0 0 2 0 81 
EIF[ ]	/* EndIf */
NPUSHB[ ]	/* 9 values pushed */
54 52 43 41 39 37 3 8 22 
CALL[ ]	/* CallFunction */";
};
width = 417;
}
);
note = bracketright;
unicode = 005D;
},
{
glyphname = underscore;
lastChange = "2020-12-09 22:30:36 +0000";
layers = (
{
layerId = "D6A4831D-747C-4592-93C0-305F4CD57904";
paths = (
{
closed = 1;
nodes = (
"546 -108 OFFCURVE",
"567 -107 OFFCURVE",
"573 -103 QCURVE",
"600 -89 OFFCURVE",
"608 -73 QCURVE",
"610 -70 OFFCURVE",
"610 -64 QCURVE SMOOTH",
"610 -53 OFFCURVE",
"594 -29 OFFCURVE",
"584 -25 QCURVE SMOOTH",
"556 -13 OFFCURVE",
"529 -12 QCURVE",
"411 -12 LINE SMOOTH",
"379 -12 OFFCURVE",
"362 -11 QCURVE SMOOTH",
"322 -9 OFFCURVE",
"263 -3 OFFCURVE",
"244 -2 QCURVE",
"182 4 OFFCURVE",
"155 6 QCURVE",
"148 7 OFFCURVE",
"127 9 OFFCURVE",
"114 9 QCURVE",
"94 8 OFFCURVE",
"66 -11 OFFCURVE",
"62 -25 QCURVE SMOOTH",
"60 -33 OFFCURVE",
"60 -38 QCURVE SMOOTH",
"60 -52 OFFCURVE",
"78 -78 OFFCURVE",
"94 -86 QCURVE",
"122 -103 OFFCURVE",
"159 -103 QCURVE SMOOTH",
"222 -102 LINE SMOOTH",
"273 -102 OFFCURVE",
"299 -103 QCURVE SMOOTH",
"540 -109 LINE"
);
}
);
userData = {
assembly = "PUSHB[ ]	/* 2 values pushed */
6 100 
WCVTP[ ]	/* WriteCVTInPixels */
MPPEM[ ]	/* MeasurePixelPerEm */
PUSHB[ ]	/* 1 value pushed */
29 
LT[ ]	/* LessThan */
IF[ ]	/* If */
PUSHB[ ]	/* 7 values pushed */
33 11 2 0 2 1 76 
ELSE[ ]	/* Else */
PUSHB[ ]	/* 7 values pushed */
33 11 2 0 3 1 76 
EIF[ ]	/* EndIf */
MPPEM[ ]	/* MeasurePixelPerEm */
PUSHB[ ]	/* 1 value pushed */
29 
LT[ ]	/* LessThan */
IF[ ]	/* If */
NPUSHB[ ]	/* 24 values pushed */
0 1 2 2 1 112 3 1 2 0 0 2 89 3 1 2 2 0 96 0 0 2 0 80 
ELSE[ ]	/* Else */
NPUSHB[ ]	/* 28 values pushed */
0 1 2 3 1 112 0 2 3 3 2 112 0 3 0 0 3 87 0 3 3 0 96 0 0 3 0 80 
EIF[ ]	/* EndIf */
PUSHB[ ]	/* 7 values pushed */
97 20 40 112 4 8 26 
CALL[ ]	/* CallFunction */
PUSHB[ ]	/* 2 values pushed */
6 0 
WCVTP[ ]	/* WriteCVTInPixels */";
};
width = 660;
}
);
note = underscore;
unicode = 005F;
},
{
glyphname = grave;
lastChange = "2020-12-09 22:30:36 +0000";
layers = (
{
layerId = "D6A4831D-747C-4592-93C0-305F4CD57904";
paths = (
{
closed = 1;
nodes = (
"317 502 OFFCURVE",
"335 513 QCURVE SMOOTH",
"343 518 OFFCURVE",
"328 499 OFFCURVE",
"335 510 QCURVE",
"347 531 LINE",
"336 559 LINE",
"330 577 OFFCURVE",
"321 596 OFFCURVE",
"314 603 QCURVE SMOOTH",
"246 671 OFFCURVE",
"126 776 QCURVE",
"116 786 OFFCURVE",
"80 799 OFFCURVE",
"74 795 QCURVE",
"58 783 OFFCURVE",
"63 791 OFFCURVE",
"61 775 QCURVE",
"60 758 OFFCURVE",
"75 717 OFFCURVE",
"88 701 QCURVE SMOOTH",
"120 662 OFFCURVE",
"213 560 QCURVE SMOOTH",
"246 524 LINE SMOOTH",
"268 501 OFFCURVE",
"296 501 QCURVE"
);
}
);
userData = {
assembly = "PUSHB[ ]	/* 2 values pushed */
6 100 
WCVTP[ ]	/* WriteCVTInPixels */
NPUSHB[ ]	/* 13 values pushed */
17 3 2 0 74 0 0 0 118 40 1 8 23 
CALL[ ]	/* CallFunction */
PUSHB[ ]	/* 2 values pushed */
6 0 
WCVTP[ ]	/* WriteCVTInPixels */";
};
width = 397;
}
);
note = grave;
unicode = 0060;
},
{
glyphname = a;
lastChange = "2022-01-25 04:21:39 +0000";
layers = (
{
layerId = "D6A4831D-747C-4592-93C0-305F4CD57904";
paths = (
{
closed = 1;
nodes = (
"240 2 OFFCURVE",
"254 4 QCURVE",
"286 10 OFFCURVE",
"298 17 QCURVE SMOOTH",
"311 25 OFFCURVE",
"323 37 QCURVE",
"331 46 OFFCURVE",
"353 63 OFFCURVE",
"362 63 QCURVE SMOOTH",
"366 62 OFFCURVE",
"371 51 QCURVE",
"378 39 LINE",
"387 29 OFFCURVE",
"411 16 OFFCURVE",
"420 16 QCURVE SMOOTH",
"427 16 OFFCURVE",
"435 21 QCURVE",
"444 26 OFFCURVE",
"444 58 QCURVE SMOOTH",
"444 174 OFFCURVE",
"436 249 QCURVE SMOOTH",
"429 316 OFFCURVE",
"406 354 QCURVE SMOOTH",
"383 392 OFFCURVE",
"284 443 OFFCURVE",
"226 443 QCURVE SMOOTH",
"180 442 OFFCURVE",
"137 426 QCURVE SMOOTH",
"116 418 OFFCURVE",
"116 388 QCURVE SMOOTH",
"116 371 OFFCURVE",
"120 369 QCURVE",
"135 358 OFFCURVE",
"169 358 QCURVE SMOOTH",
"180 358 OFFCURVE",
"208 360 QCURVE SMOOTH",
"236 362 OFFCURVE",
"250 362 QCURVE SMOOTH",
"288 362 OFFCURVE",
"313 339 OFFCURVE",
"313 325 QCURVE SMOOTH",
"313 318 OFFCURVE",
"268 310 OFFCURVE",
"256 310 QCURVE",
"201 305 OFFCURVE",
"138 267 OFFCURVE",
"100 221 QCURVE SMOOTH",
"61 173 OFFCURVE",
"60 125 QCURVE SMOOTH",
"59 93 OFFCURVE",
"79 65 QCURVE SMOOTH",
"98 39 OFFCURVE",
"189 2 OFFCURVE",
"231 2 QCURVE SMOOTH"
);
},
{
closed = 1;
nodes = (
"190 72 OFFCURVE",
"183 77 QCURVE SMOOTH",
"170 86 OFFCURVE",
"168 102 QCURVE",
"168 122 OFFCURVE",
"189 169 OFFCURVE",
"208 192 QCURVE SMOOTH",
"227 214 OFFCURVE",
"271 240 OFFCURVE",
"290 241 QCURVE",
"299 242 OFFCURVE",
"321 228 OFFCURVE",
"326 220 QCURVE",
"331 210 OFFCURVE",
"336 184 OFFCURVE",
"337 181 QCURVE",
"338 172 OFFCURVE",
"335 143 OFFCURVE",
"333 140 QCURVE SMOOTH",
"331 137 OFFCURVE",
"315 113 OFFCURVE",
"305 108 QCURVE SMOOTH",
"260 88 OFFCURVE",
"213 74 QCURVE",
"208 72 OFFCURVE",
"200 72 QCURVE SMOOTH"
);
}
);
userData = {
assembly = "NPUSHB[ ]	/* 10 values pushed */
34 1 3 5 74 1 8 7 2 76 
MPPEM[ ]	/* MeasurePixelPerEm */
PUSHB[ ]	/* 1 value pushed */
11 
LT[ ]	/* LessThan */
IF[ ]	/* If */
NPUSHB[ ]	/* 47 values pushed */
0 2 3 7 3 2 7 128 0 7 8 3 7 112 0 0 8 6 8 0 6 128 0 5 4 1 3 2 5 3 105 0 6 6 34 77 0 8 8 1 97 0 1 1 40 1 78 
ELSE[ ]	/* Else */
NPUSHB[ ]	/* 48 values pushed */
0 2 3 7 3 2 7 128 0 7 8 3 7 8 126 0 0 8 6 8 0 6 128 0 5 4 1 3 2 5 3 105 0 6 6 34 77 0 8 8 1 97 0 1 1 40 1 78 
EIF[ ]	/* EndIf */
NPUSHB[ ]	/* 14 values pushed */
78 77 69 68 41 38 34 36 25 39 32 9 8 29 
CALL[ ]	/* CallFunction */";
};
width = 494;
}
);
leftKerningGroup = a;
note = a;
rightKerningGroup = a;
rightMetricsKey = "=n";
unicode = 0061;
},
{
glyphname = b;
lastChange = "2020-12-09 22:50:51 +0000";
layers = (
{
layerId = "D6A4831D-747C-4592-93C0-305F4CD57904";
paths = (
{
closed = 1;
nodes = (
"201 -1 OFFCURVE",
"207 0 QCURVE SMOOTH",
"327 18 OFFCURVE",
"393 107 QCURVE SMOOTH",
"439 168 OFFCURVE",
"439 223 QCURVE SMOOTH",
"439 293 OFFCURVE",
"368 345 QCURVE SMOOTH",
"321 380 OFFCURVE",
"279 380 QCURVE SMOOTH",
"239 380 OFFCURVE",
"195 349 QCURVE",
"186 342 OFFCURVE",
"177 332 QCURVE SMOOTH",
"161 314 OFFCURVE",
"149 309 QCURVE",
"150 332 OFFCURVE",
"154 370 QCURVE",
"159 403 OFFCURVE",
"159 422 QCURVE",
"162 462 LINE SMOOTH",
"171 550 OFFCURVE",
"171 609 QCURVE",
"149 648 OFFCURVE",
"119 664 OFFCURVE",
"107 661 QCURVE SMOOTH",
"79 655 OFFCURVE",
"50 636 OFFCURVE",
"50 611 QCURVE SMOOTH",
"50 310 OFFCURVE",
"51 159 QCURVE SMOOTH",
"51 129 OFFCURVE",
"101 80 OFFCURVE",
"131 80 QCURVE SMOOTH",
"168 79 OFFCURVE",
"172 115 QCURVE SMOOTH",
"184 208 OFFCURVE",
"250 280 QCURVE",
"259 291 OFFCURVE",
"289 310 OFFCURVE",
"295 307 QCURVE",
"316 295 OFFCURVE",
"332 258 QCURVE SMOOTH",
"335 251 OFFCURVE",
"335 241 QCURVE SMOOTH",
"335 231 OFFCURVE",
"333 217 OFFCURVE",
"332 213 QCURVE",
"270 106 OFFCURVE",
"193 47 OFFCURVE",
"162 44 QCURVE SMOOTH",
"153 43 OFFCURVE",
"130 32 OFFCURVE",
"123 29 QCURVE",
"126 17 OFFCURVE",
"126 7 QCURVE",
"170 -1 OFFCURVE",
"189 -1 QCURVE SMOOTH"
);
}
);
userData = {
assembly = "NPUSHB[ ]	/* 14 values pushed */
3 1 2 0 21 1 1 2 2 76 59 1 0 74 
MPPEM[ ]	/* MeasurePixelPerEm */
PUSHB[ ]	/* 1 value pushed */
24 
LT[ ]	/* LessThan */
IF[ ]	/* If */
NPUSHB[ ]	/* 19 values pushed */
0 2 0 1 0 2 1 128 0 0 0 33 77 0 1 1 40 1 78 
ELSE[ ]	/* Else */
MPPEM[ ]	/* MeasurePixelPerEm */
PUSHB[ ]	/* 1 value pushed */
41 
LT[ ]	/* LessThan */
IF[ ]	/* If */
NPUSHB[ ]	/* 16 values pushed */
0 0 2 0 133 0 2 1 2 133 0 1 1 40 1 78 
ELSE[ ]	/* Else */
NPUSHB[ ]	/* 14 values pushed */
0 0 2 0 133 0 2 1 2 133 0 1 1 118 
EIF[ ]	/* EndIf */
EIF[ ]	/* EndIf */
PUSHB[ ]	/* 7 values pushed */
45 43 55 40 3 8 24 
CALL[ ]	/* CallFunction */";
};
width = 489;
}
);
leftKerningGroup = b;
leftMetricsKey = "=n";
note = b;
rightKerningGroup = b;
rightMetricsKey = "=o";
unicode = 0062;
},
{
glyphname = c;
lastChange = "2020-12-09 22:50:45 +0000";
layers = (
{
layerId = "D6A4831D-747C-4592-93C0-305F4CD57904";
paths = (
{
closed = 1;
nodes = (
"311 27 OFFCURVE",
"388 56 OFFCURVE",
"428 102 QCURVE",
"435 109 OFFCURVE",
"435 131 QCURVE SMOOTH",
"435 136 OFFCURVE",
"426 161 OFFCURVE",
"393 158 OFFCURVE",
"383 153 QCURVE",
"364 141 LINE SMOOTH",
"331 120 OFFCURVE",
"281 97 OFFCURVE",
"253 97 QCURVE SMOOTH",
"208 97 OFFCURVE",
"169 135 OFFCURVE",
"169 181 QCURVE SMOOTH",
"169 251 OFFCURVE",
"251 332 OFFCURVE",
"319 324 QCURVE SMOOTH",
"329 323 OFFCURVE",
"353 342 OFFCURVE",
"353 350 QCURVE SMOOTH",
"353 356 OFFCURVE",
"345 375 OFFCURVE",
"341 378 QCURVE SMOOTH",
"319 395 OFFCURVE",
"261 415 OFFCURVE",
"231 415 QCURVE SMOOTH",
"173 415 OFFCURVE",
"138 381 QCURVE SMOOTH",
"131 374 OFFCURVE",
"116 356 QCURVE SMOOTH",
"97 333 LINE",
"79 313 OFFCURVE",
"50 251 OFFCURVE",
"50 217 QCURVE SMOOTH",
"51 178 OFFCURVE",
"64 150 QCURVE",
"104 20 OFFCURVE",
"238 21 QCURVE"
);
}
);
userData = {
assembly = "PUSHB[ ]	/* 6 values pushed */
39 1 3 2 1 76 
MPPEM[ ]	/* MeasurePixelPerEm */
PUSHB[ ]	/* 1 value pushed */
26 
LT[ ]	/* LessThan */
IF[ ]	/* If */
NPUSHB[ ]	/* 17 values pushed */
0 2 2 33 77 0 3 3 0 98 1 1 0 0 34 0 78 
ELSE[ ]	/* Else */
MPPEM[ ]	/* MeasurePixelPerEm */
PUSHB[ ]	/* 1 value pushed */
44 
LT[ ]	/* LessThan */
IF[ ]	/* If */
NPUSHB[ ]	/* 17 values pushed */
0 2 3 2 133 0 3 3 0 98 1 1 0 0 34 0 78 
ELSE[ ]	/* Else */
NPUSHB[ ]	/* 22 values pushed */
0 2 3 2 133 0 3 0 0 3 89 0 3 3 0 98 1 1 0 3 0 82 
EIF[ ]	/* EndIf */
EIF[ ]	/* EndIf */
PUSHB[ ]	/* 7 values pushed */
45 42 34 17 4 8 26 
CALL[ ]	/* CallFunction */";
};
width = 485;
}
);
leftKerningGroup = o;
leftMetricsKey = "=o";
note = c;
rightKerningGroup = o;
unicode = 0063;
},
{
glyphname = d;
lastChange = "2022-01-25 04:02:43 +0000";
layers = (
{
layerId = "D6A4831D-747C-4592-93C0-305F4CD57904";
paths = (
{
closed = 1;
nodes = (
"215 6 OFFCURVE",
"275 31 OFFCURVE",
"299 59 QCURVE SMOOTH",
"309 71 OFFCURVE",
"317 71 QCURVE SMOOTH",
"325 70 OFFCURVE",
"336 55 QCURVE",
"350 33 OFFCURVE",
"374 12 OFFCURVE",
"389 10 QCURVE SMOOTH",
"409 9 OFFCURVE",
"444 24 QCURVE",
"442 33 OFFCURVE",
"438 45 OFFCURVE",
"437 50 QCURVE",
"426 78 OFFCURVE",
"426 95 QCURVE SMOOTH",
"423 164 OFFCURVE",
"418 301 QCURVE SMOOTH",
"414 454 LINE SMOOTH",
"409 554 OFFCURVE",
"400 617 QCURVE SMOOTH",
"397 634 OFFCURVE",
"354 665 OFFCURVE",
"333 667 QCURVE SMOOTH",
"325 667 OFFCURVE",
"319 665 QCURVE SMOOTH",
"303 659 OFFCURVE",
"289 639 OFFCURVE",
"288 625 QCURVE SMOOTH",
"288 618 OFFCURVE",
"290 596 OFFCURVE",
"290 591 QCURVE SMOOTH",
"296 536 OFFCURVE",
"300 421 QCURVE SMOOTH",
"301 412 LINE",
"299 391 OFFCURVE",
"276 393 QCURVE SMOOTH",
"270 393 OFFCURVE",
"267 394 QCURVE",
"260 396 OFFCURVE",
"247 397 QCURVE SMOOTH",
"207 401 OFFCURVE",
"138 367 OFFCURVE",
"111 337 QCURVE SMOOTH",
"88 310 OFFCURVE",
"55 222 OFFCURVE",
"51 178 QCURVE SMOOTH",
"46 118 OFFCURVE",
"63 85 QCURVE SMOOTH",
"80 53 OFFCURVE",
"145 13 OFFCURVE",
"182 9 QCURVE SMOOTH"
);
},
{
closed = 1;
nodes = (
"141 98 OFFCURVE",
"146 155 QCURVE",
"148 196 OFFCURVE",
"170 243 QCURVE SMOOTH",
"182 267 OFFCURVE",
"211 305 OFFCURVE",
"236 330 QCURVE",
"242 336 OFFCURVE",
"281 346 OFFCURVE",
"289 343 QCURVE",
"294 342 OFFCURVE",
"300 318 OFFCURVE",
"299 309 QCURVE",
"291 247 OFFCURVE",
"269 166 OFFCURVE",
"243 135 QCURVE",
"231 117 LINE SMOOTH",
"216 97 OFFCURVE",
"195 75 OFFCURVE",
"178 68 QCURVE"
);
}
);
userData = {
assembly = "NPUSHB[ ]	/* 15 values pushed */
33 1 3 5 63 1 1 3 56 4 2 0 1 3 76 
MPPEM[ ]	/* MeasurePixelPerEm */
PUSHB[ ]	/* 1 value pushed */
21 
LT[ ]	/* LessThan */
IF[ ]	/* If */
NPUSHB[ ]	/* 30 values pushed */
0 1 3 0 3 1 0 128 0 5 5 30 77 4 1 3 3 33 77 0 0 0 34 77 0 2 2 40 2 78 
ELSE[ ]	/* Else */
MPPEM[ ]	/* MeasurePixelPerEm */
PUSHB[ ]	/* 1 value pushed */
44 
LT[ ]	/* LessThan */
IF[ ]	/* If */
NPUSHB[ ]	/* 30 values pushed */
0 5 3 5 133 0 1 3 0 3 1 0 128 4 1 3 3 33 77 0 0 0 34 77 0 2 2 40 2 78 
ELSE[ ]	/* Else */
NPUSHB[ ]	/* 32 values pushed */
0 5 3 5 133 0 1 3 0 3 1 0 128 0 0 2 3 0 2 126 4 1 3 3 33 77 0 2 2 40 2 78 
EIF[ ]	/* EndIf */
EIF[ ]	/* EndIf */
NPUSHB[ ]	/* 9 values pushed */
43 34 41 35 35 37 6 8 28 
CALL[ ]	/* CallFunction */";
};
width = 494;
}
);
leftKerningGroup = d;
leftMetricsKey = o;
note = d;
rightMetricsKey = h;
unicode = 0064;
},
{
glyphname = e;
lastChange = "2021-01-08 05:11:33 +0000";
layers = (
{
layerId = "D6A4831D-747C-4592-93C0-305F4CD57904";
paths = (
{
closed = 1;
nodes = (
"363 11 OFFCURVE",
"446 41 OFFCURVE",
"472 81 QCURVE",
"480 92 OFFCURVE",
"480 112 QCURVE SMOOTH",
"480 131 OFFCURVE",
"472 144 QCURVE",
"464 155 OFFCURVE",
"453 155 QCURVE SMOOTH",
"436 155 OFFCURVE",
"417 136 QCURVE SMOOTH",
"390 110 OFFCURVE",
"353 91 QCURVE",
"328 77 OFFCURVE",
"296 77 QCURVE SMOOTH",
"259 77 OFFCURVE",
"199 111 OFFCURVE",
"191 144 QCURVE",
"198 145 OFFCURVE",
"244 150 OFFCURVE",
"254 156 QCURVE",
"312 188 OFFCURVE",
"364 222 OFFCURVE",
"383 244 QCURVE SMOOTH",
"422 291 OFFCURVE",
"422 324 QCURVE SMOOTH",
"422 376 OFFCURVE",
"326 406 QCURVE SMOOTH",
"295 416 OFFCURVE",
"262 416 QCURVE SMOOTH",
"216 416 OFFCURVE",
"162 393 QCURVE SMOOTH",
"103 367 OFFCURVE",
"50 309 OFFCURVE",
"50 262 QCURVE SMOOTH",
"50 232 OFFCURVE",
"58 201 QCURVE",
"116 61 OFFCURVE",
"251 11 OFFCURVE",
"308 11 QCURVE SMOOTH"
);
},
{
closed = 1;
nodes = (
"169 205 OFFCURVE",
"161 242 QCURVE",
"184 291 OFFCURVE",
"254 356 OFFCURVE",
"281 354 QCURVE",
"282 353 OFFCURVE",
"295 346 OFFCURVE",
"296 341 QCURVE",
"297 337 OFFCURVE",
"297 327 QCURVE SMOOTH",
"297 311 OFFCURVE",
"291 305 QCURVE",
"255 273 OFFCURVE",
"184 220 QCURVE"
);
}
);
userData = {
assembly = "PUSHB[ ]	/* 6 values pushed */
50 1 2 4 1 76 
MPPEM[ ]	/* MeasurePixelPerEm */
PUSHB[ ]	/* 1 value pushed */
31 
LT[ ]	/* LessThan */
IF[ ]	/* If */
NPUSHB[ ]	/* 29 values pushed */
0 2 4 0 4 2 0 128 0 0 0 4 97 0 4 4 33 77 0 1 1 3 97 0 3 3 40 3 78 
ELSE[ ]	/* Else */
NPUSHB[ ]	/* 27 values pushed */
0 2 4 0 4 2 0 128 0 4 0 0 1 4 0 105 0 1 1 3 97 0 3 3 40 3 78 
EIF[ ]	/* EndIf */
PUSHB[ ]	/* 8 values pushed */
41 39 36 37 16 5 8 27 
CALL[ ]	/* CallFunction */";
};
width = 530;
}
);
leftKerningGroup = e;
leftMetricsKey = "=o";
note = e;
rightKerningGroup = e;
unicode = 0065;
},
{
glyphname = f;
lastChange = "2020-12-09 22:30:36 +0000";
layers = (
{
layerId = "D6A4831D-747C-4592-93C0-305F4CD57904";
paths = (
{
closed = 1;
nodes = (
"296 -243 OFFCURVE",
"314 -224 OFFCURVE",
"314 -205 QCURVE SMOOTH",
"314 -179 OFFCURVE",
"304 -131 QCURVE SMOOTH",
"286 -43 LINE SMOOTH",
"281 -16 OFFCURVE",
"265 65 OFFCURVE",
"253 119 QCURVE",
"251 133 OFFCURVE",
"251 138 QCURVE SMOOTH",
"251 173 OFFCURVE",
"287 180 QCURVE SMOOTH",
"310 184 OFFCURVE",
"319 185 QCURVE",
"365 193 OFFCURVE",
"388 198 QCURVE",
"395 199 OFFCURVE",
"411 212 OFFCURVE",
"415 215 QCURVE",
"413 218 OFFCURVE",
"403 235 OFFCURVE",
"398 237 QCURVE",
"385 262 OFFCURVE",
"328 262 QCURVE SMOOTH",
"305 262 LINE",
"277 256 OFFCURVE",
"264 256 QCURVE SMOOTH",
"250 256 OFFCURVE",
"243 278 OFFCURVE",
"243 314 QCURVE SMOOTH",
"243 339 OFFCURVE",
"246 363 QCURVE",
"248 387 OFFCURVE",
"248 400 QCURVE",
"250 422 OFFCURVE",
"262 452 OFFCURVE",
"296 445 QCURVE",
"348 450 OFFCURVE",
"338 507 QCURVE",
"336 527 OFFCURVE",
"282 562 OFFCURVE",
"261 564 QCURVE SMOOTH",
"252 565 OFFCURVE",
"236 565 QCURVE SMOOTH",
"199 565 OFFCURVE",
"157 538 OFFCURVE",
"153 509 QCURVE SMOOTH",
"148 475 OFFCURVE",
"144 387 OFFCURVE",
"143 345 QCURVE SMOOTH",
"141 281 LINE SMOOTH",
"140 249 OFFCURVE",
"115 219 OFFCURVE",
"79 214 QCURVE SMOOTH",
"73 213 OFFCURVE",
"60 200 OFFCURVE",
"60 195 QCURVE SMOOTH",
"60 189 OFFCURVE",
"70 176 OFFCURVE",
"76 171 QCURVE SMOOTH",
"83 165 OFFCURVE",
"101 165 QCURVE SMOOTH",
"156 165 OFFCURVE",
"158 107 QCURVE",
"190 -59 LINE",
"212 -151 OFFCURVE",
"221 -197 QCURVE SMOOTH",
"226 -221 OFFCURVE",
"248 -243 OFFCURVE",
"270 -243 QCURVE SMOOTH"
);
}
);
userData = {
assembly = "NPUSHB[ ]	/* 41 values pushed */
68 4 2 0 3 38 19 2 1 0 2 76 0 2 3 2 133 0 3 0 3 133 0 0 1 0 133 0 1 1 118 66 64 59 57 31 29 33 4 8 23 
CALL[ ]	/* CallFunction */";
};
width = 445;
}
);
note = f;
rightKerningGroup = f;
unicode = 0066;
},
{
glyphname = g;
lastChange = "2020-12-09 22:46:12 +0000";
layers = (
{
layerId = "D6A4831D-747C-4592-93C0-305F4CD57904";
paths = (
{
closed = 1;
nodes = (
"292 -368 OFFCURVE",
"394 -319 OFFCURVE",
"428 -269 QCURVE SMOOTH",
"460 -222 OFFCURVE",
"460 -174 QCURVE SMOOTH",
"460 -135 OFFCURVE",
"414 -70 OFFCURVE",
"369 -49 QCURVE SMOOTH",
"354 -42 OFFCURVE",
"322 -24 QCURVE SMOOTH",
"287 -5 LINE",
"374 106 OFFCURVE",
"388 180 OFFCURVE",
"391 252 QCURVE",
"402 262 OFFCURVE",
"422 267 OFFCURVE",
"431 272 QCURVE",
"444 283 OFFCURVE",
"456 301 OFFCURVE",
"463 314 QCURVE",
"477 336 OFFCURVE",
"480 340 QCURVE",
"483 345 OFFCURVE",
"483 354 QCURVE SMOOTH",
"483 359 OFFCURVE",
"481 367 QCURVE",
"474 387 OFFCURVE",
"444 408 OFFCURVE",
"425 408 QCURVE SMOOTH",
"399 408 OFFCURVE",
"376 389 QCURVE",
"360 374 OFFCURVE",
"329 360 OFFCURVE",
"310 360 QCURVE SMOOTH",
"296 360 OFFCURVE",
"281 364 QCURVE SMOOTH",
"260 370 LINE",
"257 371 OFFCURVE",
"221 381 OFFCURVE",
"204 381 QCURVE SMOOTH",
"181 381 OFFCURVE",
"160 370 QCURVE SMOOTH",
"71 324 OFFCURVE",
"53 214 QCURVE SMOOTH",
"50 196 OFFCURVE",
"50 176 QCURVE SMOOTH",
"50 104 OFFCURVE",
"104 72 QCURVE SMOOTH",
"119 63 OFFCURVE",
"160 35 OFFCURVE",
"158 29 QCURVE",
"146 -12 OFFCURVE",
"146 -22 QCURVE SMOOTH",
"146 -32 OFFCURVE",
"160 -46 OFFCURVE",
"178 -55 QCURVE SMOOTH",
"214 -73 OFFCURVE",
"265 -91 OFFCURVE",
"293 -96 QCURVE SMOOTH",
"319 -101 OFFCURVE",
"344 -125 OFFCURVE",
"344 -151 QCURVE SMOOTH",
"344 -169 OFFCURVE",
"327 -210 OFFCURVE",
"314 -226 QCURVE SMOOTH",
"276 -276 OFFCURVE",
"173 -283 QCURVE SMOOTH",
"145 -285 OFFCURVE",
"111 -249 OFFCURVE",
"97 -218 QCURVE",
"95 -211 OFFCURVE",
"90 -209 QCURVE",
"88 -208 OFFCURVE",
"77 -203 OFFCURVE",
"74 -203 QCURVE SMOOTH",
"71 -203 OFFCURVE",
"70 -204 QCURVE",
"66 -205 OFFCURVE",
"60 -216 OFFCURVE",
"59 -221 QCURVE",
"83 -301 OFFCURVE",
"125 -348 OFFCURVE",
"146 -355 QCURVE SMOOTH",
"191 -370 OFFCURVE",
"234 -369 QCURVE SMOOTH"
);
},
{
closed = 1;
nodes = (
"183 121 OFFCURVE",
"150 168 OFFCURVE",
"150 194 QCURVE SMOOTH",
"150 231 OFFCURVE",
"181 267 QCURVE SMOOTH",
"211 302 OFFCURVE",
"257 320 QCURVE",
"281 308 OFFCURVE",
"297 264 OFFCURVE",
"297 237 QCURVE SMOOTH",
"297 193 OFFCURVE",
"255 119 OFFCURVE",
"217 104 QCURVE"
);
}
);
userData = {
assembly = "NPUSHB[ ]	/* 11 values pushed */
98 92 49 25 20 3 6 1 3 1 76 
MPPEM[ ]	/* MeasurePixelPerEm */
PUSHB[ ]	/* 1 value pushed */
26 
LT[ ]	/* LessThan */
IF[ ]	/* If */
NPUSHB[ ]	/* 26 values pushed */
0 3 2 1 2 3 1 128 0 1 0 0 1 0 101 0 4 4 33 77 0 2 2 33 2 78 
ELSE[ ]	/* Else */
NPUSHB[ ]	/* 28 values pushed */
0 2 4 3 4 2 3 128 0 3 1 4 3 1 126 0 1 0 0 1 0 101 0 4 4 33 4 78 
EIF[ ]	/* EndIf */
NPUSHB[ ]	/* 12 values pushed */
72 70 67 65 61 59 34 32 45 5 8 23 
CALL[ ]	/* CallFunction */";
};
width = 503;
}
);
leftMetricsKey = "=o";
note = g;
unicode = 0067;
},
{
glyphname = h;
lastChange = "2020-12-09 22:46:44 +0000";
layers = (
{
layerId = "D6A4831D-747C-4592-93C0-305F4CD57904";
paths = (
{
closed = 1;
nodes = (
"430 -44 OFFCURVE",
"434 -43 QCURVE SMOOTH",
"442 -41 OFFCURVE",
"459 -22 OFFCURVE",
"459 -14 QCURVE SMOOTH",
"460 68 LINE SMOOTH",
"461 136 OFFCURVE",
"447 176 QCURVE SMOOTH",
"428 229 OFFCURVE",
"340 312 OFFCURVE",
"279 291 QCURVE SMOOTH",
"233 275 OFFCURVE",
"197 249 QCURVE",
"179 323 OFFCURVE",
"170 481 OFFCURVE",
"169 583 QCURVE",
"169 605 LINE SMOOTH",
"169 633 OFFCURVE",
"151 670 OFFCURVE",
"130 684 QCURVE",
"118 691 OFFCURVE",
"101 691 QCURVE SMOOTH",
"81 691 OFFCURVE",
"50 670 OFFCURVE",
"50 655 QCURVE SMOOTH",
"50 548 LINE SMOOTH",
"50 462 OFFCURVE",
"61 397 QCURVE SMOOTH",
"86 266 OFFCURVE",
"86 67 QCURVE",
"106 26 OFFCURVE",
"141 16 OFFCURVE",
"148 14 QCURVE",
"158 12 OFFCURVE",
"161 12 QCURVE SMOOTH",
"181 12 OFFCURVE",
"193 49 QCURVE SMOOTH",
"225 152 OFFCURVE",
"251 186 QCURVE",
"308 212 OFFCURVE",
"327 207 OFFCURVE",
"333 189 QCURVE",
"340 174 OFFCURVE",
"342 137 QCURVE SMOOTH",
"344 101 OFFCURVE",
"344 82 QCURVE",
"346 27 LINE SMOOTH",
"347 4 OFFCURVE",
"400 -44 OFFCURVE",
"424 -44 QCURVE SMOOTH"
);
}
);
userData = {
assembly = "NPUSHB[ ]	/* 10 values pushed */
2 1 2 0 10 1 1 3 2 76 
MPPEM[ ]	/* MeasurePixelPerEm */
PUSHB[ ]	/* 1 value pushed */
49 
LT[ ]	/* LessThan */
IF[ ]	/* If */
NPUSHB[ ]	/* 24 values pushed */
0 1 3 1 134 0 0 0 2 3 0 2 105 0 4 4 32 77 0 3 3 31 3 78 
ELSE[ ]	/* Else */
NPUSHB[ ]	/* 26 values pushed */
0 3 2 1 2 3 1 128 0 1 1 132 0 0 0 2 3 0 2 105 0 4 4 32 4 78 
EIF[ ]	/* EndIf */
PUSHB[ ]	/* 8 values pushed */
46 22 25 26 35 5 8 27 
CALL[ ]	/* CallFunction */";
};
width = 510;
}
);
leftKerningGroup = b;
leftMetricsKey = "=n";
note = h;
rightKerningGroup = b;
rightMetricsKey = "=n";
unicode = 0068;
},
{
glyphname = i;
lastChange = "2021-01-15 02:09:55 +0000";
layers = (
{
layerId = "D6A4831D-747C-4592-93C0-305F4CD57904";
paths = (
{
closed = 1;
nodes = (
"187 -1 OFFCURVE",
"207 28 OFFCURVE",
"205 55 QCURVE SMOOTH",
"191 226 LINE",
"191 231 OFFCURVE",
"189 265 OFFCURVE",
"186 279 QCURVE SMOOTH",
"181 307 OFFCURVE",
"138 342 OFFCURVE",
"110 342 QCURVE SMOOTH",
"86 342 OFFCURVE",
"69 326 OFFCURVE",
"69 312 QCURVE SMOOTH",
"69 305 OFFCURVE",
"67 293 OFFCURVE",
"64 280 QCURVE",
"68 261 LINE",
"94 49 LINE",
"98 27 OFFCURVE",
"133 -1 OFFCURVE",
"158 -1 QCURVE SMOOTH"
);
},
{
closed = 1;
nodes = (
"140 447 OFFCURVE",
"163 465 OFFCURVE",
"164 472 QCURVE",
"167 482 OFFCURVE",
"158 513 OFFCURVE",
"152 514 QCURVE",
"102 539 OFFCURVE",
"67 539 QCURVE SMOOTH",
"58 539 OFFCURVE",
"50 528 OFFCURVE",
"50 521 QCURVE SMOOTH",
"50 509 OFFCURVE",
"58 502 QCURVE",
"57 453 OFFCURVE",
"94 447 QCURVE SMOOTH",
"134 440 LINE"
);
}
);
userData = {
assembly = "NPUSHB[ ]	/* 11 values pushed */
7 2 2 1 0 16 1 2 1 2 76 
MPPEM[ ]	/* MeasurePixelPerEm */
PUSHB[ ]	/* 1 value pushed */
41 
LT[ ]	/* LessThan */
IF[ ]	/* If */
NPUSHB[ ]	/* 16 values pushed */
0 0 1 0 133 0 1 1 2 97 0 2 2 40 2 78 
ELSE[ ]	/* Else */
NPUSHB[ ]	/* 21 values pushed */
0 0 1 0 133 0 1 2 2 1 89 0 1 1 2 97 0 2 1 2 81 
EIF[ ]	/* EndIf */
PUSHB[ ]	/* 6 values pushed */
40 42 41 3 8 25 
CALL[ ]	/* CallFunction */";
};
width = 255;
}
);
leftKerningGroup = i;
leftMetricsKey = "=n";
note = i;
rightKerningGroup = i;
unicode = 0069;
},
{
glyphname = j;
lastChange = "2022-01-25 04:23:43 +0000";
layers = (
{
layerId = "D6A4831D-747C-4592-93C0-305F4CD57904";
paths = (
{
closed = 1;
nodes = (
"237 -374 OFFCURVE",
"266 -353 QCURVE SMOOTH",
"319 -315 OFFCURVE",
"319 -247 QCURVE SMOOTH",
"319 -226 OFFCURVE",
"315 -209 QCURVE",
"310 -179 OFFCURVE",
"298 -119 QCURVE SMOOTH",
"296 -109 OFFCURVE",
"279 -16 OFFCURVE",
"267 24 QCURVE SMOOTH",
"246 94 OFFCURVE",
"233 237 OFFCURVE",
"229 339 QCURVE SMOOTH",
"227 390 LINE SMOOTH",
"226 412 OFFCURVE",
"198 440 OFFCURVE",
"173 441 QCURVE",
"147 443 OFFCURVE",
"118 429 OFFCURVE",
"118 404 QCURVE SMOOTH",
"118 381 OFFCURVE",
"117 370 QCURVE",
"116 335 LINE SMOOTH",
"115 315 OFFCURVE",
"119 295 QCURVE SMOOTH",
"142 190 OFFCURVE",
"182 -18 QCURVE SMOOTH",
"188 -49 LINE SMOOTH",
"209 -158 OFFCURVE",
"220 -199 QCURVE",
"216 -219 LINE SMOOTH",
"210 -251 OFFCURVE",
"202 -271 QCURVE SMOOTH",
"196 -287 OFFCURVE",
"176 -304 OFFCURVE",
"165 -304 QCURVE SMOOTH",
"146 -304 OFFCURVE",
"128 -279 QCURVE",
"111 -258 OFFCURVE",
"83 -202 QCURVE SMOOTH",
"74 -184 LINE",
"61 -154 OFFCURVE",
"48 -138 OFFCURVE",
"36 -138 QCURVE SMOOTH",
"5 -138 OFFCURVE",
"5 -172 QCURVE SMOOTH",
"5 -179 OFFCURVE",
"7 -194 OFFCURVE",
"7 -201 QCURVE",
"13 -299 OFFCURVE",
"110 -349 QCURVE SMOOTH",
"158 -374 OFFCURVE",
"199 -374 QCURVE SMOOTH"
);
},
{
closed = 1;
nodes = (
"216 536 OFFCURVE",
"238 548 OFFCURVE",
"241 555 QCURVE",
"244 561 OFFCURVE",
"236 582 OFFCURVE",
"230 587 QCURVE",
"200 609 OFFCURVE",
"180 609 QCURVE SMOOTH",
"158 609 OFFCURVE",
"144 587 OFFCURVE",
"138 583 QCURVE",
"143 578 OFFCURVE",
"158 557 OFFCURVE",
"165 552 QCURVE SMOOTH",
"173 546 OFFCURVE",
"203 536 OFFCURVE",
"211 533 QCURVE"
);
}
);
userData = {
assembly = "NPUSHB[ ]	/* 63 values pushed */
8 1 0 1 28 1 4 2 55 1 5 4 3 76 0 1 0 1 133 0 0 2 0 133 0 2 4 2 133 0 4 5 4 133 0 5 3 3 5 89 0 5 5 3 97 0 3 5 3 81 70 68 61 59 52 50 34 33 40 33 6 8 24 
CALL[ ]	/* CallFunction */";
};
width = 329;
}
);
leftKerningGroup = j;
note = j;
rightKerningGroup = j;
unicode = 006A;
},
{
glyphname = k;
lastChange = "2021-01-08 05:07:00 +0000";
layers = (
{
layerId = "D6A4831D-747C-4592-93C0-305F4CD57904";
paths = (
{
closed = 1;
nodes = (
"114 -28 OFFCURVE",
"141 6 OFFCURVE",
"143 39 QCURVE SMOOTH",
"145 91 OFFCURVE",
"151 203 QCURVE",
"152 207 OFFCURVE",
"149 228 OFFCURVE",
"149 237 QCURVE SMOOTH",
"149 247 OFFCURVE",
"151 252 QCURVE",
"151 252 OFFCURVE",
"172 231 QCURVE SMOOTH",
"190 214 LINE SMOOTH",
"191 213 OFFCURVE",
"231 176 QCURVE SMOOTH",
"297 114 OFFCURVE",
"333 89 QCURVE SMOOTH",
"355 74 OFFCURVE",
"407 64 QCURVE",
"417 63 OFFCURVE",
"432 59 QCURVE",
"437 58 OFFCURVE",
"451 68 OFFCURVE",
"452 73 QCURVE",
"453 77 OFFCURVE",
"447 92 OFFCURVE",
"442 94 QCURVE",
"398 116 OFFCURVE",
"331 183 OFFCURVE",
"288 238 QCURVE SMOOTH",
"266 266 OFFCURVE",
"254 280 QCURVE SMOOTH",
"240 297 OFFCURVE",
"240 311 QCURVE SMOOTH",
"240 326 OFFCURVE",
"255 342 QCURVE",
"294 388 OFFCURVE",
"309 411 QCURVE",
"313 416 OFFCURVE",
"313 426 QCURVE SMOOTH",
"313 439 OFFCURVE",
"307 449 QCURVE SMOOTH",
"296 466 OFFCURVE",
"274 466 QCURVE SMOOTH",
"247 466 OFFCURVE",
"221 442 QCURVE",
"209 432 OFFCURVE",
"193 414 QCURVE",
"164 386 LINE",
"162 388 OFFCURVE",
"162 396 QCURVE SMOOTH",
"162 407 OFFCURVE",
"167 444 OFFCURVE",
"167 449 QCURVE",
"173 509 OFFCURVE",
"177 544 QCURVE SMOOTH",
"187 646 LINE SMOOTH",
"189 676 OFFCURVE",
"155 704 OFFCURVE",
"118 704 QCURVE SMOOTH",
"64 704 OFFCURVE",
"63 651 QCURVE SMOOTH",
"53 325 LINE SMOOTH",
"50 205 OFFCURVE",
"50 84 QCURVE SMOOTH",
"50 42 OFFCURVE",
"61 -2 QCURVE SMOOTH",
"63 -9 OFFCURVE",
"82 -23 OFFCURVE",
"90 -24 QCURVE"
);
}
);
userData = {
assembly = "NPUSHB[ ]	/* 12 values pushed */
66 1 0 1 1 76 45 4 2 3 0 73 
MPPEM[ ]	/* MeasurePixelPerEm */
PUSHB[ ]	/* 1 value pushed */
21 
LT[ ]	/* LessThan */
IF[ ]	/* If */
NPUSHB[ ]	/* 11 values pushed */
0 0 1 0 134 0 1 1 36 1 78 
ELSE[ ]	/* Else */
NPUSHB[ ]	/* 9 values pushed */
0 1 0 1 133 0 0 0 118 
EIF[ ]	/* EndIf */
PUSHB[ ]	/* 6 values pushed */
64 62 40 2 8 23 
CALL[ ]	/* CallFunction */";
};
width = 462;
}
);
leftKerningGroup = k;
leftMetricsKey = "=n";
note = k;
rightKerningGroup = k;
unicode = 006B;
},
{
glyphname = l;
lastChange = "2021-01-15 02:10:37 +0000";
layers = (
{
layerId = "D6A4831D-747C-4592-93C0-305F4CD57904";
paths = (
{
closed = 1;
nodes = (
"217 -30 OFFCURVE",
"254 -14 OFFCURVE",
"258 6 QCURVE SMOOTH",
"259 11 OFFCURVE",
"259 21 QCURVE SMOOTH",
"259 44 OFFCURVE",
"245 84 QCURVE",
"239 99 OFFCURVE",
"227 99 QCURVE SMOOTH",
"215 99 OFFCURVE",
"204 84 QCURVE",
"195 70 OFFCURVE",
"175 46 QCURVE",
"165 50 LINE",
"164 53 OFFCURVE",
"160 77 OFFCURVE",
"161 87 QCURVE",
"164 172 OFFCURVE",
"172 342 QCURVE SMOOTH",
"178 462 LINE SMOOTH",
"183 568 OFFCURVE",
"186 621 QCURVE SMOOTH",
"188 656 OFFCURVE",
"143 699 OFFCURVE",
"110 699 QCURVE SMOOTH",
"60 699 OFFCURVE",
"60 662 QCURVE SMOOTH",
"60 655 OFFCURVE",
"61 650 QCURVE",
"68 621 OFFCURVE",
"68 586 QCURVE SMOOTH",
"69 410 LINE SMOOTH",
"71 292 OFFCURVE",
"71 58 QCURVE SMOOTH",
"71 29 OFFCURVE",
"97 -2 QCURVE",
"140 -28 OFFCURVE",
"183 -28 OFFCURVE",
"192 -28 QCURVE"
);
}
);
userData = {
assembly = "NPUSHB[ ]	/* 11 values pushed */
25 1 0 2 39 35 2 1 0 2 76 
MPPEM[ ]	/* MeasurePixelPerEm */
PUSHB[ ]	/* 1 value pushed */
21 
LT[ ]	/* LessThan */
IF[ ]	/* If */
NPUSHB[ ]	/* 19 values pushed */
0 0 2 1 2 0 1 128 0 2 2 36 77 0 1 1 31 1 78 
ELSE[ ]	/* Else */
MPPEM[ ]	/* MeasurePixelPerEm */
PUSHB[ ]	/* 1 value pushed */
49 
LT[ ]	/* LessThan */
IF[ ]	/* If */
NPUSHB[ ]	/* 16 values pushed */
0 2 0 2 133 0 0 1 0 133 0 1 1 31 1 78 
ELSE[ ]	/* Else */
NPUSHB[ ]	/* 14 values pushed */
0 2 0 2 133 0 0 1 0 133 0 1 1 118 
EIF[ ]	/* EndIf */
EIF[ ]	/* EndIf */
PUSHB[ ]	/* 6 values pushed */
44 40 34 3 8 25 
CALL[ ]	/* CallFunction */";
};
width = 309;
}
);
leftKerningGroup = l;
note = l;
rightKerningGroup = l;
unicode = 006C;
},
{
glyphname = m;
lastChange = "2020-12-09 22:46:58 +0000";
layers = (
{
layerId = "D6A4831D-747C-4592-93C0-305F4CD57904";
paths = (
{
closed = 1;
nodes = (
"633 16 OFFCURVE",
"657 43 OFFCURVE",
"658 67 QCURVE SMOOTH",
"659 119 OFFCURVE",
"653 223 QCURVE SMOOTH",
"648 292 OFFCURVE",
"636 343 QCURVE SMOOTH",
"629 373 OFFCURVE",
"574 416 OFFCURVE",
"547 415 QCURVE SMOOTH",
"461 410 OFFCURVE",
"405 358 QCURVE",
"390 342 OFFCURVE",
"383 342 QCURVE SMOOTH",
"378 342 OFFCURVE",
"364 353 OFFCURVE",
"360 356 QCURVE SMOOTH",
"305 395 OFFCURVE",
"266 395 QCURVE SMOOTH",
"230 395 OFFCURVE",
"197 359 QCURVE SMOOTH",
"183 344 OFFCURVE",
"167 331 OFFCURVE",
"161 331 QCURVE SMOOTH",
"154 331 OFFCURVE",
"142 346 OFFCURVE",
"133 363 QCURVE",
"116 379 OFFCURVE",
"94 379 QCURVE SMOOTH",
"77 379 OFFCURVE",
"53 357 OFFCURVE",
"52 338 QCURVE SMOOTH",
"50 301 OFFCURVE",
"50 226 QCURVE SMOOTH",
"50 143 OFFCURVE",
"53 59 QCURVE",
"53 49 OFFCURVE",
"74 24 OFFCURVE",
"84 23 QCURVE",
"95 21 OFFCURVE",
"126 34 OFFCURVE",
"131 43 QCURVE",
"148 71 OFFCURVE",
"148 104 QCURVE",
"147 138 LINE",
"147 190 OFFCURVE",
"189 256 OFFCURVE",
"235 282 QCURVE",
"246 293 OFFCURVE",
"267 293 QCURVE SMOOTH",
"280 293 OFFCURVE",
"298 281 OFFCURVE",
"299 270 QCURVE SMOOTH",
"301 244 OFFCURVE",
"303 233 QCURVE",
"313 129 OFFCURVE",
"313 77 QCURVE",
"331 36 OFFCURVE",
"363 26 OFFCURVE",
"370 24 QCURVE",
"378 21 OFFCURVE",
"383 21 QCURVE SMOOTH",
"397 21 OFFCURVE",
"413 45 OFFCURVE",
"415 61 QCURVE SMOOTH",
"416 68 OFFCURVE",
"416 82 QCURVE",
"415 113 LINE SMOOTH",
"413 145 OFFCURVE",
"414 160 QCURVE",
"415 167 OFFCURVE",
"410 192 OFFCURVE",
"410 198 QCURVE SMOOTH",
"410 206 OFFCURVE",
"413 213 QCURVE",
"414 216 OFFCURVE",
"427 244 OFFCURVE",
"433 252 QCURVE SMOOTH",
"465 293 OFFCURVE",
"495 311 OFFCURVE",
"519 317 QCURVE",
"549 299 OFFCURVE",
"551 261 QCURVE SMOOTH",
"554 226 OFFCURVE",
"556 173 OFFCURVE",
"557 156 QCURVE SMOOTH",
"563 50 LINE",
"563 44 OFFCURVE",
"575 28 OFFCURVE",
"582 25 QCURVE",
"599 16 OFFCURVE",
"614 16 QCURVE SMOOTH"
);
}
);
userData = {
assembly = "NPUSHB[ ]	/* 11 values pushed */
1 1 1 3 93 79 2 0 1 2 76 
MPPEM[ ]	/* MeasurePixelPerEm */
PUSHB[ ]	/* 1 value pushed */
24 
LT[ ]	/* LessThan */
IF[ ]	/* If */
NPUSHB[ ]	/* 40 values pushed */
0 3 5 1 5 3 1 128 0 6 6 33 77 0 2 2 33 77 0 1 1 4 97 0 4 4 33 77 0 5 5 0 97 7 1 0 0 34 0 78 
ELSE[ ]	/* Else */
MPPEM[ ]	/* MeasurePixelPerEm */
PUSHB[ ]	/* 1 value pushed */
39 
LT[ ]	/* LessThan */
IF[ ]	/* If */
NPUSHB[ ]	/* 43 values pushed */
0 2 4 5 4 2 5 128 0 3 5 1 5 3 1 128 0 6 6 33 77 0 1 1 4 97 0 4 4 33 77 0 5 5 0 97 7 1 0 0 34 0 78 
ELSE[ ]	/* Else */
MPPEM[ ]	/* MeasurePixelPerEm */
PUSHB[ ]	/* 1 value pushed */
46 
LT[ ]	/* LessThan */
IF[ ]	/* If */
NPUSHB[ ]	/* 43 values pushed */
0 6 4 6 133 0 2 4 5 4 2 5 128 0 3 5 1 5 3 1 128 0 1 1 4 97 0 4 4 33 77 0 5 5 0 97 7 1 0 0 34 0 78 
ELSE[ ]	/* Else */
NPUSHB[ ]	/* 47 values pushed */
0 6 4 6 133 0 2 4 5 4 2 5 128 0 3 5 1 5 3 1 128 0 1 1 4 97 0 4 4 33 77 0 5 5 0 97 0 0 0 34 77 0 7 7 34 7 78 
EIF[ ]	/* EndIf */
EIF[ ]	/* EndIf */
EIF[ ]	/* EndIf */
NPUSHB[ ]	/* 19 values pushed */
85 83 75 73 71 69 66 64 61 59 56 54 35 33 21 20 8 8 22 
CALL[ ]	/* CallFunction */";
};
width = 708;
}
);
leftKerningGroup = m;
leftMetricsKey = "=n";
note = m;
rightKerningGroup = m;
rightMetricsKey = "=n";
unicode = 006D;
},
{
glyphname = n;
lastChange = "2021-12-18 13:24:40 +0000";
layers = (
{
layerId = "D6A4831D-747C-4592-93C0-305F4CD57904";
paths = (
{
closed = 1;
nodes = (
"147 6 OFFCURVE",
"153 36 OFFCURVE",
"154 40 QCURVE",
"169 129 OFFCURVE",
"182 193 QCURVE",
"182 195 OFFCURVE",
"188 225 OFFCURVE",
"195 230 QCURVE SMOOTH",
"217 246 OFFCURVE",
"240 256 OFFCURVE",
"274 265 QCURVE",
"296 270 OFFCURVE",
"312 270 QCURVE SMOOTH",
"329 270 OFFCURVE",
"350 255 OFFCURVE",
"353 237 QCURVE SMOOTH",
"359 193 OFFCURVE",
"361 133 QCURVE SMOOTH",
"362 112 LINE SMOOTH",
"365 66 OFFCURVE",
"384 49 OFFCURVE",
"407 49 QCURVE SMOOTH",
"429 49 OFFCURVE",
"461 78 OFFCURVE",
"464 102 QCURVE SMOOTH",
"468 138 OFFCURVE",
"468 157 QCURVE SMOOTH",
"468 231 OFFCURVE",
"437 292 QCURVE SMOOTH",
"399 364 OFFCURVE",
"324 364 QCURVE SMOOTH",
"276 364 OFFCURVE",
"207 349 QCURVE",
"206 352 OFFCURVE",
"210 371 OFFCURVE",
"210 377 QCURVE SMOOTH",
"210 379 LINE",
"205 403 OFFCURVE",
"167 429 OFFCURVE",
"138 429 QCURVE",
"93 414 OFFCURVE",
"87 392 OFFCURVE",
"84 369 QCURVE SMOOTH",
"81 339 OFFCURVE",
"74 293 OFFCURVE",
"72 277 QCURVE",
"66 242 OFFCURVE",
"59 185 QCURVE SMOOTH",
"49 106 OFFCURVE",
"50 48 QCURVE SMOOTH",
"51 3 OFFCURVE",
"114 -5 QCURVE"
);
}
);
userData = {
assembly = "NPUSHB[ ]	/* 34 values pushed */
0 3 0 3 133 0 1 2 1 134 0 0 2 2 0 89 0 0 0 2 97 0 2 0 2 81 51 49 40 39 35 4 8 25 
CALL[ ]	/* CallFunction */";
};
width = 518;
}
);
leftKerningGroup = n;
note = n;
rightKerningGroup = n;
unicode = 006E;
},
{
glyphname = o;
lastChange = "2021-12-18 13:44:51 +0000";
layers = (
{
layerId = "D6A4831D-747C-4592-93C0-305F4CD57904";
paths = (
{
closed = 1;
nodes = (
"268 20 OFFCURVE",
"300 40 QCURVE SMOOTH",
"351 71 OFFCURVE",
"391 133 QCURVE SMOOTH",
"425 187 OFFCURVE",
"425 234 QCURVE SMOOTH",
"425 282 OFFCURVE",
"392 315 QCURVE SMOOTH",
"329 377 OFFCURVE",
"237 377 QCURVE SMOOTH",
"208 377 OFFCURVE",
"178 371 QCURVE SMOOTH",
"131 361 OFFCURVE",
"75 330 OFFCURVE",
"65 291 QCURVE SMOOTH",
"61 261 OFFCURVE",
"50 198 QCURVE",
"95 54 OFFCURVE",
"180 20 OFFCURVE",
"226 20 QCURVE SMOOTH"
);
},
{
closed = 1;
nodes = (
"189 108 OFFCURVE",
"178 140 QCURVE",
"175 151 OFFCURVE",
"174 181 OFFCURVE",
"174 188 QCURVE",
"177 223 LINE SMOOTH",
"196 283 OFFCURVE",
"212 324 QCURVE",
"214 330 OFFCURVE",
"234 330 QCURVE SMOOTH",
"242 330 OFFCURVE",
"246 329 QCURVE SMOOTH",
"278 320 OFFCURVE",
"314 267 OFFCURVE",
"314 235 QCURVE SMOOTH",
"314 198 OFFCURVE",
"267 122 OFFCURVE",
"253 109 QCURVE",
"243 101 OFFCURVE",
"210 97 OFFCURVE",
"204 101 QCURVE"
);
}
);
userData = {
assembly = "PUSHB[ ]	/* 7 values pushed */
25 24 2 0 2 1 76 
MPPEM[ ]	/* MeasurePixelPerEm */
PUSHB[ ]	/* 1 value pushed */
49 
LT[ ]	/* LessThan */
IF[ ]	/* If */
NPUSHB[ ]	/* 16 values pushed */
0 0 2 0 134 0 2 2 1 97 0 1 1 33 2 78 
ELSE[ ]	/* Else */
NPUSHB[ ]	/* 21 values pushed */
0 0 2 0 134 0 1 2 2 1 89 0 1 1 2 97 0 2 1 2 81 
EIF[ ]	/* EndIf */
PUSHB[ ]	/* 7 values pushed */
43 42 42 32 3 8 24 
CALL[ ]	/* CallFunction */";
};
width = 475;
}
);
leftKerningGroup = o;
leftMetricsKey = o;
note = o;
rightKerningGroup = o;
rightMetricsKey = o;
unicode = 006F;
},
{
glyphname = p;
lastChange = "2020-12-09 23:00:25 +0000";
layers = (
{
layerId = "D6A4831D-747C-4592-93C0-305F4CD57904";
paths = (
{
closed = 1;
nodes = (
"118 -343 OFFCURVE",
"126 -341 QCURVE SMOOTH",
"137 -338 OFFCURVE",
"159 -317 OFFCURVE",
"160 -308 QCURVE SMOOTH",
"161 -301 OFFCURVE",
"161 -286 QCURVE SMOOTH",
"161 -272 OFFCURVE",
"159 -242 QCURVE SMOOTH",
"157 -212 OFFCURVE",
"157 -198 QCURVE SMOOTH",
"157 -124 OFFCURVE",
"162 -24 QCURVE SMOOTH",
"165 67 LINE",
"197 48 OFFCURVE",
"226 48 QCURVE SMOOTH",
"261 48 OFFCURVE",
"291 80 QCURVE",
"327 122 OFFCURVE",
"372 194 OFFCURVE",
"379 236 QCURVE SMOOTH",
"382 253 OFFCURVE",
"382 270 QCURVE SMOOTH",
"382 316 OFFCURVE",
"354 343 QCURVE SMOOTH",
"293 402 OFFCURVE",
"245 402 QCURVE SMOOTH",
"202 402 OFFCURVE",
"166 357 QCURVE SMOOTH",
"146 332 OFFCURVE",
"116 309 OFFCURVE",
"91 307 QCURVE",
"75 305 OFFCURVE",
"56 287 OFFCURVE",
"56 271 QCURVE SMOOTH",
"56 267 OFFCURVE",
"58 255 QCURVE",
"67 214 OFFCURVE",
"65 154 QCURVE SMOOTH",
"58 -64 LINE SMOOTH",
"52 -206 OFFCURVE",
"50 -281 QCURVE SMOOTH",
"49 -303 OFFCURVE",
"92 -343 OFFCURVE",
"115 -343 QCURVE SMOOTH"
);
},
{
closed = 1;
nodes = (
"177 124 LINE",
"176 129 OFFCURVE",
"176 140 QCURVE SMOOTH",
"176 187 OFFCURVE",
"198 247 QCURVE SMOOTH",
"205 267 OFFCURVE",
"227 303 OFFCURVE",
"230 307 QCURVE",
"238 320 OFFCURVE",
"256 320 QCURVE SMOOTH",
"270 320 OFFCURVE",
"277 307 QCURVE",
"282 295 OFFCURVE",
"282 283 QCURVE",
"253 182 OFFCURVE",
"209 124 OFFCURVE",
"189 118 QCURVE"
);
}
);
userData = {
assembly = "NPUSHB[ ]	/* 40 values pushed */
49 3 2 0 3 1 76 0 0 3 1 3 0 1 128 0 3 3 2 97 0 2 2 33 77 0 1 1 35 1 78 58 56 36 34 46 32 4 8 24 
CALL[ ]	/* CallFunction */";
};
width = 432;
}
);
leftKerningGroup = p;
leftMetricsKey = "=n";
note = p;
rightKerningGroup = p;
rightMetricsKey = "=o";
unicode = 0070;
},
{
glyphname = q;
lastChange = "2021-12-18 13:41:28 +0000";
layers = (
{
layerId = "D6A4831D-747C-4592-93C0-305F4CD57904";
paths = (
{
closed = 1;
nodes = (
"356 -273 OFFCURVE",
"372 -252 OFFCURVE",
"374 -230 QCURVE SMOOTH",
"378 -176 LINE",
"383 -134 OFFCURVE",
"383 -101 QCURVE SMOOTH",
"383 -76 OFFCURVE",
"407 -55 OFFCURVE",
"432 -53 QCURVE SMOOTH",
"457 -51 OFFCURVE",
"517 -43 OFFCURVE",
"529 -42 QCURVE SMOOTH",
"555 -39 LINE",
"555 -8 OFFCURVE",
"542 17 OFFCURVE",
"524 17 QCURVE SMOOTH",
"516 17 OFFCURVE",
"502 14 QCURVE SMOOTH",
"470 8 OFFCURVE",
"420 8 QCURVE SMOOTH",
"403 8 OFFCURVE",
"392 27 OFFCURVE",
"393 46 QCURVE SMOOTH",
"401 178 OFFCURVE",
"401 242 QCURVE SMOOTH",
"401 270 OFFCURVE",
"385 302 OFFCURVE",
"360 302 QCURVE SMOOTH",
"331 302 OFFCURVE",
"328 254 OFFCURVE",
"315 228 QCURVE",
"269 146 OFFCURVE",
"219 124 OFFCURVE",
"156 143 QCURVE",
"113 193 OFFCURVE",
"177 285 OFFCURVE",
"219 301 OFFCURVE",
"234 309 QCURVE SMOOTH",
"280 334 OFFCURVE",
"329 327 QCURVE SMOOTH",
"358 327 OFFCURVE",
"381 311 QCURVE",
"409 295 OFFCURVE",
"433 295 QCURVE SMOOTH",
"441 295 OFFCURVE",
"458 302 OFFCURVE",
"464 307 QCURVE",
"468 311 OFFCURVE",
"468 322 QCURVE SMOOTH",
"468 333 OFFCURVE",
"465 334 QCURVE",
"430 362 OFFCURVE",
"398 383 OFFCURVE",
"381 388 QCURVE",
"349 399 OFFCURVE",
"309 399 QCURVE SMOOTH",
"277 399 OFFCURVE",
"244 393 QCURVE",
"125 341 OFFCURVE",
"61 268 OFFCURVE",
"52 228 QCURVE SMOOTH",
"50 218 OFFCURVE",
"50 174 OFFCURVE",
"97 96 OFFCURVE",
"128 87 QCURVE",
"179 70 OFFCURVE",
"220 70 QCURVE SMOOTH",
"262 70 OFFCURVE",
"290 89 QCURVE",
"295 92 OFFCURVE",
"299 49 QCURVE SMOOTH",
"301 18 OFFCURVE",
"278 -16 OFFCURVE",
"246 -23 QCURVE SMOOTH",
"139 -50 OFFCURVE",
"83 -111 QCURVE",
"99 -133 OFFCURVE",
"147 -159 OFFCURVE",
"170 -159 QCURVE SMOOTH",
"190 -159 OFFCURVE",
"247 -123 OFFCURVE",
"270 -106 OFFCURVE",
"278 -106 QCURVE SMOOTH",
"295 -106 OFFCURVE",
"296 -143 QCURVE",
"297 -158 OFFCURVE",
"296 -180 OFFCURVE",
"296 -187 QCURVE SMOOTH",
"296 -203 OFFCURVE",
"298 -231 QCURVE",
"285 -274 OFFCURVE",
"334 -274 QCURVE"
);
}
);
userData = {
assembly = "NPUSHB[ ]	/* 110 values pushed */
93 1 1 10 77 1 0 9 68 1 3 7 30 1 5 2 63 1 6 5 45 40 2 4 6 6 76 0 1 10 9 10 1 9 128 0 9 0 10 9 0 126 0 3 7 2 7 3 2 128 0 2 5 7 2 5 126 0 5 6 7 5 6 126 0 6 4 7 6 4 126 0 4 4 132 0 0 0 7 3 0 7 105 0 10 10 8 97 0 8 8 33 10 78 103 101 99 97 43 42 39 23 46 34 38 40 36 11 8 31 
CALL[ ]	/* CallFunction */";
};
width = 575;
}
);
leftMetricsKey = o;
note = q;
rightKerningGroup = q;
unicode = 0071;
},
{
glyphname = r;
lastChange = "2022-01-25 04:08:51 +0000";
layers = (
{
layerId = "D6A4831D-747C-4592-93C0-305F4CD57904";
paths = (
{
closed = 1;
nodes = (
"167 3 OFFCURVE",
"195 22 OFFCURVE",
"198 50 QCURVE SMOOTH",
"210 155 OFFCURVE",
"288 254 QCURVE SMOOTH",
"321 296 OFFCURVE",
"412 348 OFFCURVE",
"472 368 QCURVE",
"477 370 OFFCURVE",
"489 392 OFFCURVE",
"472 403 OFFCURVE",
"465 403 QCURVE SMOOTH",
"394 404 OFFCURVE",
"276 386 OFFCURVE",
"229 341 QCURVE",
"206 305 OFFCURVE",
"186 256 OFFCURVE",
"181 252 QCURVE",
"193 370 LINE SMOOTH",
"195 391 OFFCURVE",
"192 401 QCURVE",
"191 422 OFFCURVE",
"156 450 OFFCURVE",
"131 450 QCURVE SMOOTH",
"97 450 OFFCURVE",
"71 427 OFFCURVE",
"71 398 QCURVE SMOOTH",
"71 186 OFFCURVE",
"70 80 QCURVE SMOOTH",
"70 51 OFFCURVE",
"114 3 OFFCURVE",
"142 3 QCURVE SMOOTH"
);
}
);
userData = {
assembly = "NPUSHB[ ]	/* 32 values pushed */
35 2 2 1 0 1 76 0 0 2 1 2 0 1 128 0 2 2 1 97 0 1 1 34 1 78 38 45 25 3 8 25 
CALL[ ]	/* CallFunction */";
};
width = 495;
}
);
leftKerningGroup = r;
note = r;
rightKerningGroup = r;
unicode = 0072;
},
{
glyphname = s;
lastChange = "2020-12-09 22:35:49 +0000";
layers = (
{
layerId = "D6A4831D-747C-4592-93C0-305F4CD57904";
paths = (
{
closed = 1;
nodes = (
"268 -22 OFFCURVE",
"309 78 QCURVE SMOOTH",
"321 107 OFFCURVE",
"321 133 QCURVE SMOOTH",
"321 181 OFFCURVE",
"285 226 QCURVE SMOOTH",
"237 284 OFFCURVE",
"210 329 QCURVE SMOOTH",
"198 350 OFFCURVE",
"198 370 QCURVE SMOOTH",
"198 396 OFFCURVE",
"235 433 OFFCURVE",
"267 436 QCURVE SMOOTH",
"281 437 OFFCURVE",
"308 437 QCURVE SMOOTH",
"336 437 OFFCURVE",
"350 439 QCURVE SMOOTH",
"359 440 OFFCURVE",
"384 453 OFFCURVE",
"391 456 QCURVE",
"387 463 OFFCURVE",
"372 488 OFFCURVE",
"365 493 QCURVE",
"332 513 OFFCURVE",
"289 513 QCURVE SMOOTH",
"263 513 OFFCURVE",
"211 503 QCURVE SMOOTH",
"179 497 LINE SMOOTH",
"139 490 OFFCURVE",
"98 435 OFFCURVE",
"98 399 QCURVE SMOOTH",
"98 360 OFFCURVE",
"118 328 QCURVE SMOOTH",
"135 300 OFFCURVE",
"156 269 QCURVE SMOOTH",
"188 222 OFFCURVE",
"210 183 QCURVE SMOOTH",
"220 164 OFFCURVE",
"220 144 QCURVE SMOOTH",
"220 114 OFFCURVE",
"199 85 QCURVE SMOOTH",
"169 45 OFFCURVE",
"124 45 QCURVE SMOOTH",
"118 45 OFFCURVE",
"104 47 QCURVE",
"95 49 OFFCURVE",
"68 50 OFFCURVE",
"60 50 QCURVE",
"83 -22 OFFCURVE",
"167 -22 QCURVE SMOOTH"
);
}
);
userData = {
assembly = "NPUSHB[ ]	/* 42 values pushed */
29 1 3 2 1 76 0 2 0 3 0 2 3 105 1 1 0 0 4 97 5 1 4 4 31 4 78 0 0 0 49 0 48 35 33 25 23 34 33 6 8 24 
CALL[ ]	/* CallFunction */";
};
width = 411;
}
);
leftKerningGroup = s;
note = s;
rightKerningGroup = s;
unicode = 0073;
},
{
glyphname = t;
lastChange = "2021-01-08 04:38:30 +0000";
layers = (
{
layerId = "D6A4831D-747C-4592-93C0-305F4CD57904";
paths = (
{
closed = 1;
nodes = (
"322 -6 OFFCURVE",
"352 5 QCURVE SMOOTH",
"368 11 OFFCURVE",
"387 27 OFFCURVE",
"387 40 QCURVE SMOOTH",
"387 47 OFFCURVE",
"384 54 QCURVE",
"376 75 OFFCURVE",
"357 75 QCURVE SMOOTH",
"345 75 OFFCURVE",
"329 68 QCURVE",
"299 57 OFFCURVE",
"283 57 QCURVE SMOOTH",
"263 57 OFFCURVE",
"243 86 OFFCURVE",
"240 119 QCURVE SMOOTH",
"236 158 OFFCURVE",
"237 197 QCURVE SMOOTH",
"238 248 OFFCURVE",
"240 297 QCURVE",
"241 307 OFFCURVE",
"263 331 OFFCURVE",
"274 334 QCURVE SMOOTH",
"295 340 OFFCURVE",
"339 348 QCURVE",
"376 353 OFFCURVE",
"403 361 QCURVE",
"407 362 OFFCURVE",
"412 380 OFFCURVE",
"412 391 QCURVE SMOOTH",
"412 403 OFFCURVE",
"407 422 OFFCURVE",
"403 424 QCURVE",
"399 427 OFFCURVE",
"387 427 QCURVE SMOOTH",
"376 427 OFFCURVE",
"371 426 QCURVE",
"347 423 OFFCURVE",
"301 413 QCURVE",
"274 412 OFFCURVE",
"247 420 OFFCURVE",
"247 429 QCURVE SMOOTH",
"236 433 OFFCURVE",
"266 610 QCURVE SMOOTH",
"269 632 OFFCURVE",
"274 673 OFFCURVE",
"246 707 OFFCURVE",
"205 716 QCURVE",
"198 718 OFFCURVE",
"186 718 QCURVE SMOOTH",
"169 718 OFFCURVE",
"150 698 OFFCURVE",
"149 677 QCURVE SMOOTH",
"147 638 OFFCURVE",
"144 579 OFFCURVE",
"143 559 QCURVE SMOOTH",
"140 499 LINE",
"140 458 OFFCURVE",
"130 434 OFFCURVE",
"110 434 QCURVE SMOOTH",
"105 434 OFFCURVE",
"93 436 QCURVE",
"69 436 OFFCURVE",
"60 415 QCURVE",
"62 399 OFFCURVE",
"67 381 OFFCURVE",
"74 373 QCURVE",
"81 366 OFFCURVE",
"104 362 QCURVE",
"118 359 OFFCURVE",
"130 354 OFFCURVE",
"131 348 QCURVE",
"136 281 OFFCURVE",
"136 216 QCURVE SMOOTH",
"136 175 OFFCURVE",
"135 156 QCURVE",
"150 34 OFFCURVE",
"249 -7 OFFCURVE",
"291 -7 QCURVE SMOOTH"
);
}
);
userData = {
assembly = "NPUSHB[ ]	/* 15 values pushed */
24 14 2 0 2 2 1 3 4 50 1 6 3 3 76 
MPPEM[ ]	/* MeasurePixelPerEm */
PUSHB[ ]	/* 1 value pushed */
21 
LT[ ]	/* LessThan */
IF[ ]	/* If */
NPUSHB[ ]	/* 45 values pushed */
1 1 0 2 4 2 0 4 128 0 4 3 2 4 3 126 0 6 3 5 3 6 5 128 0 2 2 36 77 0 3 3 33 77 0 5 5 7 98 0 7 7 31 7 78 
ELSE[ ]	/* Else */
MPPEM[ ]	/* MeasurePixelPerEm */
PUSHB[ ]	/* 1 value pushed */
39 
LT[ ]	/* LessThan */
IF[ ]	/* If */
NPUSHB[ ]	/* 40 values pushed */
0 2 0 2 133 1 1 0 4 0 133 0 4 3 4 133 0 6 3 5 3 6 5 128 0 3 3 33 77 0 5 5 7 98 0 7 7 31 7 78 
ELSE[ ]	/* Else */
MPPEM[ ]	/* MeasurePixelPerEm */
PUSHB[ ]	/* 1 value pushed */
41 
LT[ ]	/* LessThan */
IF[ ]	/* If */
NPUSHB[ ]	/* 37 values pushed */
0 2 0 2 133 1 1 0 4 0 133 0 4 3 4 133 0 3 6 3 133 0 6 5 6 133 0 5 5 7 98 0 7 7 31 7 78 
ELSE[ ]	/* Else */
NPUSHB[ ]	/* 42 values pushed */
0 2 0 2 133 1 1 0 4 0 133 0 4 3 4 133 0 3 6 3 133 0 6 5 6 133 0 5 7 7 5 89 0 5 5 7 98 0 7 5 7 82 
EIF[ ]	/* EndIf */
EIF[ ]	/* EndIf */
EIF[ ]	/* EndIf */
NPUSHB[ ]	/* 14 values pushed */
71 69 62 60 58 56 50 28 41 33 19 8 8 27 
CALL[ ]	/* CallFunction */";
};
width = 462;
}
);
leftKerningGroup = t;
note = t;
rightKerningGroup = t;
unicode = 0074;
},
{
glyphname = u;
lastChange = "2021-01-08 05:16:20 +0000";
layers = (
{
layerId = "D6A4831D-747C-4592-93C0-305F4CD57904";
paths = (
{
closed = 1;
nodes = (
"378 20 OFFCURVE",
"396 31 OFFCURVE",
"398 34 QCURVE",
"418 87 OFFCURVE",
"419 122 QCURVE SMOOTH",
"421 166 OFFCURVE",
"424 256 QCURVE SMOOTH",
"425 285 OFFCURVE",
"425 300 QCURVE SMOOTH",
"426 347 LINE",
"418 377 OFFCURVE",
"397 383 OFFCURVE",
"370 385 QCURVE",
"353 385 OFFCURVE",
"335 383 OFFCURVE",
"331 379 QCURVE",
"324 371 OFFCURVE",
"321 340 QCURVE SMOOTH",
"317 293 OFFCURVE",
"281 205 OFFCURVE",
"244 161 QCURVE SMOOTH",
"228 143 OFFCURVE",
"218 143 QCURVE SMOOTH",
"210 143 OFFCURVE",
"199 156 OFFCURVE",
"193 171 QCURVE SMOOTH",
"176 214 OFFCURVE",
"177 265 QCURVE SMOOTH",
"178 310 OFFCURVE",
"189 355 QCURVE SMOOTH",
"192 368 OFFCURVE",
"192 376 QCURVE SMOOTH",
"192 393 OFFCURVE",
"171 413 OFFCURVE",
"146 420 QCURVE SMOOTH",
"135 423 OFFCURVE",
"125 423 QCURVE SMOOTH",
"105 423 OFFCURVE",
"90 412 QCURVE",
"73 401 OFFCURVE",
"71 386 QCURVE",
"60 325 OFFCURVE",
"60 285 QCURVE SMOOTH",
"60 206 OFFCURVE",
"94 146 QCURVE SMOOTH",
"115 107 OFFCURVE",
"187 62 OFFCURVE",
"227 62 QCURVE SMOOTH",
"259 62 OFFCURVE",
"282 76 QCURVE",
"296 82 OFFCURVE",
"308 92 QCURVE",
"324 102 LINE",
"327 105 LINE",
"329 99 LINE",
"337 80 LINE",
"346 53 OFFCURVE",
"353 37 QCURVE",
"356 32 OFFCURVE",
"369 19 OFFCURVE",
"371 19 QCURVE"
);
}
);
userData = {
assembly = "NPUSHB[ ]	/* 41 values pushed */
16 1 0 1 43 1 2 0 2 76 35 1 2 73 0 3 1 3 133 0 0 0 2 0 2 101 0 1 1 33 1 78 60 58 49 47 40 42 4 8 24 
CALL[ ]	/* CallFunction */";
};
width = 476;
}
);
leftKerningGroup = u;
note = u;
rightKerningGroup = u;
unicode = 0075;
},
{
glyphname = v;
lastChange = "2020-12-09 22:30:36 +0000";
layers = (
{
layerId = "D6A4831D-747C-4592-93C0-305F4CD57904";
paths = (
{
closed = 1;
nodes = (
"262 -39 OFFCURVE",
"301 -12 OFFCURVE",
"310 13 QCURVE SMOOTH",
"353 124 LINE SMOOTH",
"412 276 OFFCURVE",
"427 315 QCURVE SMOOTH",
"435 337 OFFCURVE",
"435 359 QCURVE SMOOTH",
"435 368 OFFCURVE",
"434 372 QCURVE",
"432 384 OFFCURVE",
"419 400 OFFCURVE",
"409 400 QCURVE SMOOTH",
"398 400 OFFCURVE",
"390 392 QCURVE",
"350 358 OFFCURVE",
"321 314 QCURVE SMOOTH",
"305 290 OFFCURVE",
"276 230 QCURVE SMOOTH",
"258 193 OFFCURVE",
"237 155 QCURVE",
"235 159 OFFCURVE",
"224 193 QCURVE",
"219 211 OFFCURVE",
"215 219 QCURVE",
"208 235 OFFCURVE",
"200 267 QCURVE SMOOTH",
"192 298 OFFCURVE",
"174 336 OFFCURVE",
"154 351 QCURVE",
"126 370 OFFCURVE",
"107 370 QCURVE SMOOTH",
"90 370 OFFCURVE",
"75 359 QCURVE SMOOTH",
"60 348 OFFCURVE",
"60 334 QCURVE SMOOTH",
"60 326 OFFCURVE",
"71 301 OFFCURVE",
"74 293 QCURVE",
"105 192 OFFCURVE",
"151 51 QCURVE SMOOTH",
"167 7 OFFCURVE",
"182 -11 QCURVE SMOOTH",
"207 -39 OFFCURVE",
"240 -39 QCURVE SMOOTH"
);
}
);
userData = {
assembly = "PUSHB[ ]	/* 6 values pushed */
16 1 1 2 1 76 
MPPEM[ ]	/* MeasurePixelPerEm */
PUSHB[ ]	/* 1 value pushed */
24 
LT[ ]	/* LessThan */
IF[ ]	/* If */
NPUSHB[ ]	/* 19 values pushed */
0 2 0 1 0 2 1 128 0 0 0 33 77 0 1 1 31 1 78 
ELSE[ ]	/* Else */
NPUSHB[ ]	/* 18 values pushed */
0 2 0 1 0 2 1 128 0 1 1 132 0 0 0 33 0 78 
EIF[ ]	/* EndIf */
PUSHB[ ]	/* 6 values pushed */
43 43 42 3 8 25 
CALL[ ]	/* CallFunction */";
};
width = 485;
}
);
leftKerningGroup = v;
note = v;
rightKerningGroup = v;
unicode = 0076;
},
{
glyphname = w;
lastChange = "2020-12-09 22:30:33 +0000";
layers = (
{
layerId = "D6A4831D-747C-4592-93C0-305F4CD57904";
paths = (
{
closed = 1;
nodes = (
"253 -36 OFFCURVE",
"272 14 QCURVE",
"285 55 OFFCURVE",
"316 152 QCURVE",
"334 130 OFFCURVE",
"411 11 OFFCURVE",
"434 8 OFFCURVE",
"447 8 QCURVE",
"489 45 OFFCURVE",
"536 105 OFFCURVE",
"621 285 OFFCURVE",
"626 318 OFFCURVE",
"626 327 QCURVE",
"606 379 OFFCURVE",
"578 364 OFFCURVE",
"570 353 QCURVE SMOOTH",
"539 313 OFFCURVE",
"513 260 OFFCURVE",
"499 225 QCURVE SMOOTH",
"476 170 OFFCURVE",
"446 116 OFFCURVE",
"446 116 QCURVE",
"418 157 OFFCURVE",
"382 244 OFFCURVE",
"337 292 QCURVE",
"321 292 OFFCURVE",
"291 275 OFFCURVE",
"280 259 QCURVE SMOOTH",
"266 238 OFFCURVE",
"228 159 QCURVE",
"224 152 OFFCURVE",
"209 99 OFFCURVE",
"207 96 QCURVE",
"193 98 OFFCURVE",
"149 207 OFFCURVE",
"149 227 QCURVE",
"148 254 OFFCURVE",
"142 283 OFFCURVE",
"120 301 QCURVE SMOOTH",
"110 309 OFFCURVE",
"98 309 QCURVE SMOOTH",
"86 309 OFFCURVE",
"82 301 QCURVE",
"60 288 OFFCURVE",
"60 266 QCURVE SMOOTH",
"60 263 OFFCURVE",
"62 254 QCURVE SMOOTH",
"77 186 OFFCURVE",
"95 125 QCURVE SMOOTH",
"108 81 OFFCURVE",
"150 -8 OFFCURVE",
"186 -26 QCURVE SMOOTH",
"208 -37 OFFCURVE",
"218 -36 QCURVE"
);
}
);
userData = {
assembly = "NPUSHB[ ]	/* 41 values pushed */
1 1 3 2 1 76 0 1 2 1 133 0 2 3 2 133 0 3 3 4 97 0 4 4 34 77 0 0 0 31 0 78 73 71 40 47 43 36 5 8 26 
CALL[ ]	/* CallFunction */";
};
width = 676;
}
);
leftKerningGroup = w;
note = w;
rightKerningGroup = w;
unicode = 0077;
},
{
glyphname = x;
lastChange = "2020-12-09 22:30:36 +0000";
layers = (
{
layerId = "D6A4831D-747C-4592-93C0-305F4CD57904";
paths = (
{
closed = 1;
nodes = (
"150 7 OFFCURVE",
"183 22 OFFCURVE",
"194 37 QCURVE SMOOTH",
"227 83 LINE",
"251 116 LINE",
"257 111 OFFCURVE",
"273 98 OFFCURVE",
"277 93 QCURVE SMOOTH",
"294 71 LINE",
"296 69 OFFCURVE",
"317 40 OFFCURVE",
"330 31 QCURVE",
"340 25 OFFCURVE",
"368 21 OFFCURVE",
"371 21 QCURVE SMOOTH",
"380 21 OFFCURVE",
"394 19 QCURVE",
"394 27 OFFCURVE",
"396 41 OFFCURVE",
"396 49 QCURVE SMOOTH",
"396 60 OFFCURVE",
"393 67 QCURVE",
"383 93 OFFCURVE",
"356 136 QCURVE",
"332 168 LINE",
"317 186 OFFCURVE",
"317 193 QCURVE SMOOTH",
"317 199 OFFCURVE",
"335 216 OFFCURVE",
"350 228 QCURVE SMOOTH",
"355 232 OFFCURVE",
"364 240 OFFCURVE",
"368 243 QCURVE",
"406 274 OFFCURVE",
"431 303 QCURVE",
"434 307 OFFCURVE",
"439 321 OFFCURVE",
"439 327 QCURVE SMOOTH",
"439 331 OFFCURVE",
"437 335 QCURVE",
"422 352 OFFCURVE",
"394 370 OFFCURVE",
"378 370 QCURVE SMOOTH",
"364 370 OFFCURVE",
"349 362 QCURVE SMOOTH",
"334 354 OFFCURVE",
"304 335 OFFCURVE",
"293 324 QCURVE SMOOTH",
"279 309 OFFCURVE",
"260 291 OFFCURVE",
"256 291 QCURVE",
"247 299 OFFCURVE",
"239 320 OFFCURVE",
"236 328 QCURVE SMOOTH",
"229 347 OFFCURVE",
"188 372 OFFCURVE",
"160 383 QCURVE",
"148 387 OFFCURVE",
"119 374 QCURVE SMOOTH",
"105 368 OFFCURVE",
"98 366 QCURVE",
"100 360 OFFCURVE",
"108 332 OFFCURVE",
"114 323 QCURVE",
"136 293 LINE",
"156 269 OFFCURVE",
"161 260 QCURVE SMOOTH",
"168 248 OFFCURVE",
"183 231 OFFCURVE",
"183 229 QCURVE SMOOTH",
"183 226 OFFCURVE",
"166 209 OFFCURVE",
"158 201 QCURVE SMOOTH",
"115 155 OFFCURVE",
"69 93 QCURVE SMOOTH",
"60 80 OFFCURVE",
"60 63 QCURVE SMOOTH",
"60 58 OFFCURVE",
"62 52 QCURVE",
"71 30 OFFCURVE",
"109 7 OFFCURVE",
"132 7 QCURVE SMOOTH"
);
}
);
userData = {
assembly = "NPUSHB[ ]	/* 33 values pushed */
70 52 12 2 4 2 1 1 76 0 1 1 2 97 0 2 2 34 77 0 0 0 40 0 78 75 74 48 46 38 3 8 23 
CALL[ ]	/* CallFunction */";
};
width = 489;
}
);
leftKerningGroup = x;
note = x;
rightKerningGroup = x;
unicode = 0078;
},
{
glyphname = y;
lastChange = "2020-12-09 22:30:36 +0000";
layers = (
{
layerId = "D6A4831D-747C-4592-93C0-305F4CD57904";
paths = (
{
closed = 1;
nodes = (
"253 -330 OFFCURVE",
"333 -273 OFFCURVE",
"348 -215 QCURVE SMOOTH",
"360 -169 OFFCURVE",
"371 -78 OFFCURVE",
"377 4 QCURVE SMOOTH",
"380 44 LINE SMOOTH",
"385 105 OFFCURVE",
"389 229 QCURVE SMOOTH",
"392 322 LINE SMOOTH",
"394 376 OFFCURVE",
"342 386 QCURVE",
"338 387 OFFCURVE",
"329 387 QCURVE SMOOTH",
"296 387 OFFCURVE",
"279 349 QCURVE SMOOTH",
"265 318 OFFCURVE",
"239 285 QCURVE",
"231 274 OFFCURVE",
"220 274 QCURVE SMOOTH",
"206 274 OFFCURVE",
"201 295 QCURVE SMOOTH",
"189 348 OFFCURVE",
"184 393 QCURVE SMOOTH",
"181 422 OFFCURVE",
"137 461 OFFCURVE",
"109 461 QCURVE SMOOTH",
"88 461 OFFCURVE",
"72 450 QCURVE",
"68 447 OFFCURVE",
"60 432 OFFCURVE",
"60 426 QCURVE SMOOTH",
"60 424 LINE",
"65 402 OFFCURVE",
"77 358 QCURVE SMOOTH",
"83 335 OFFCURVE",
"88 318 QCURVE SMOOTH",
"103 263 OFFCURVE",
"182 191 OFFCURVE",
"236 185 QCURVE SMOOTH",
"261 182 OFFCURVE",
"280 157 OFFCURVE",
"279 134 QCURVE SMOOTH",
"275 70 LINE SMOOTH",
"266 -72 OFFCURVE",
"257 -143 QCURVE SMOOTH",
"248 -214 OFFCURVE",
"181 -270 OFFCURVE",
"109 -272 QCURVE",
"101 -273 OFFCURVE",
"79 -280 OFFCURVE",
"72 -282 QCURVE",
"74 -292 LINE",
"80 -296 OFFCURVE",
"104 -309 OFFCURVE",
"113 -313 QCURVE",
"156 -330 OFFCURVE",
"199 -330 QCURVE SMOOTH"
);
}
);
userData = {
assembly = "NPUSHB[ ]	/* 14 values pushed */
18 1 3 1 8 1 0 2 57 1 4 0 3 76 
MPPEM[ ]	/* MeasurePixelPerEm */
PUSHB[ ]	/* 1 value pushed */
39 
LT[ ]	/* LessThan */
IF[ ]	/* If */
NPUSHB[ ]	/* 29 values pushed */
0 1 3 1 133 0 2 3 0 3 2 0 128 0 3 3 33 77 0 0 0 4 97 0 4 4 35 4 78 
ELSE[ ]	/* Else */
NPUSHB[ ]	/* 31 values pushed */
0 1 3 1 133 0 3 2 3 133 0 2 0 2 133 0 0 4 4 0 89 0 0 0 4 97 0 4 0 4 81 
EIF[ ]	/* EndIf */
NPUSHB[ ]	/* 12 values pushed */
52 50 38 36 32 30 25 23 18 5 8 23 
CALL[ ]	/* CallFunction */";
};
width = 442;
}
);
note = y;
unicode = 0079;
},
{
glyphname = z;
lastChange = "2021-12-18 13:15:41 +0000";
layers = (
{
layerId = "D6A4831D-747C-4592-93C0-305F4CD57904";
paths = (
{
closed = 1;
nodes = (
"340 18 OFFCURVE",
"452 90 QCURVE",
"456 93 OFFCURVE",
"463 110 OFFCURVE",
"463 117 QCURVE SMOOTH",
"463 121 OFFCURVE",
"462 122 QCURVE",
"455 131 OFFCURVE",
"433 146 OFFCURVE",
"425 145 QCURVE",
"407 141 OFFCURVE",
"360 126 QCURVE",
"330 115 OFFCURVE",
"307 109 QCURVE SMOOTH",
"283 102 OFFCURVE",
"238 102 QCURVE SMOOTH",
"218 102 OFFCURVE",
"186 106 OFFCURVE",
"185 109 QCURVE",
"191 112 OFFCURVE",
"213 124 OFFCURVE",
"220 130 QCURVE SMOOTH",
"312 212 OFFCURVE",
"354 254 QCURVE",
"364 265 OFFCURVE",
"380 302 OFFCURVE",
"376 306 QCURVE",
"362 322 LINE",
"349 340 OFFCURVE",
"324 360 OFFCURVE",
"304 361 QCURVE SMOOTH",
"229 367 OFFCURVE",
"148 389 QCURVE SMOOTH",
"136 392 OFFCURVE",
"125 392 QCURVE SMOOTH",
"109 392 OFFCURVE",
"85 380 OFFCURVE",
"71 367 QCURVE",
"88 339 OFFCURVE",
"138 318 OFFCURVE",
"176 312 QCURVE SMOOTH",
"202 307 LINE",
"210 305 OFFCURVE",
"231 297 OFFCURVE",
"236 295 QCURVE",
"233 289 OFFCURVE",
"224 269 OFFCURVE",
"219 264 QCURVE SMOOTH",
"206 251 OFFCURVE",
"133 186 QCURVE SMOOTH",
"90 147 LINE SMOOTH",
"60 119 OFFCURVE",
"60 98 QCURVE SMOOTH",
"60 82 OFFCURVE",
"80 60 QCURVE SMOOTH",
"109 29 OFFCURVE",
"136 24 QCURVE SMOOTH",
"173 18 OFFCURVE",
"210 18 QCURVE SMOOTH"
);
}
);
userData = {
assembly = "NPUSHB[ ]	/* 45 values pushed */
39 1 3 2 58 50 32 3 0 3 2 76 0 3 2 0 2 3 0 128 0 2 2 33 77 0 0 0 1 98 0 1 1 34 1 78 47 46 43 41 46 33 4 8 24 
CALL[ ]	/* CallFunction */";
};
width = 503;
}
);
leftKerningGroup = z;
note = z;
rightKerningGroup = z;
unicode = 007A;
},
{
glyphname = braceleft;
lastChange = "2021-01-11 23:56:55 +0000";
layers = (
{
layerId = "D6A4831D-747C-4592-93C0-305F4CD57904";
paths = (
{
closed = 1;
nodes = (
"258 -164 OFFCURVE",
"281 -151 OFFCURVE",
"286 -145 QCURVE SMOOTH",
"289 -140 OFFCURVE",
"274 -120 OFFCURVE",
"272 -117 QCURVE SMOOTH",
"269 -113 OFFCURVE",
"248 -95 OFFCURVE",
"246 -89 QCURVE SMOOTH",
"227 -40 OFFCURVE",
"227 5 QCURVE SMOOTH",
"227 29 OFFCURVE",
"234 62 QCURVE SMOOTH",
"250 121 OFFCURVE",
"250 173 QCURVE SMOOTH",
"250 249 OFFCURVE",
"210 312 QCURVE SMOOTH",
"207 317 OFFCURVE",
"207 324 QCURVE SMOOTH",
"207 337 OFFCURVE",
"214 346 QCURVE SMOOTH",
"246 382 OFFCURVE",
"246 439 QCURVE SMOOTH",
"246 459 OFFCURVE",
"242 499 QCURVE SMOOTH",
"238 543 OFFCURVE",
"224 608 QCURVE SMOOTH",
"219 631 OFFCURVE",
"211 679 QCURVE SMOOTH",
"209 693 OFFCURVE",
"209 699 QCURVE SMOOTH",
"209 739 OFFCURVE",
"263 791 OFFCURVE",
"313 801 QCURVE SMOOTH",
"324 803 OFFCURVE",
"337 815 OFFCURVE",
"337 823 QCURVE SMOOTH",
"337 832 OFFCURVE",
"327 841 QCURVE SMOOTH",
"298 865 OFFCURVE",
"266 865 QCURVE SMOOTH",
"260 865 OFFCURVE",
"246 863 QCURVE SMOOTH",
"109 838 OFFCURVE",
"109 714 QCURVE SMOOTH",
"109 674 OFFCURVE",
"124 608 QCURVE SMOOTH",
"134 552 OFFCURVE",
"137 529 QCURVE SMOOTH",
"140 507 OFFCURVE",
"140 484 QCURVE SMOOTH",
"140 443 OFFCURVE",
"111 377 OFFCURVE",
"74 350 QCURVE SMOOTH",
"60 339 OFFCURVE",
"60 330 QCURVE SMOOTH",
"60 319 OFFCURVE",
"76 309 QCURVE SMOOTH",
"83 305 OFFCURVE",
"115 289 OFFCURVE",
"119 281 QCURVE SMOOTH",
"146 222 OFFCURVE",
"146 181 QCURVE SMOOTH",
"146 162 OFFCURVE",
"142 147 QCURVE SMOOTH",
"132 101 OFFCURVE",
"114 7 QCURVE",
"120 -43 OFFCURVE",
"163 -122 QCURVE",
"207 -149 OFFCURVE",
"245 -161 OFFCURVE",
"252 -163 QCURVE SMOOTH"
);
}
);
userData = {
assembly = "NPUSHB[ ]	/* 12 values pushed */
47 35 29 3 1 0 1 76 72 1 1 73 
MPPEM[ ]	/* MeasurePixelPerEm */
PUSHB[ ]	/* 1 value pushed */
44 
LT[ ]	/* LessThan */
IF[ ]	/* If */
NPUSHB[ ]	/* 11 values pushed */
0 0 1 0 133 0 1 1 34 1 78 
ELSE[ ]	/* Else */
NPUSHB[ ]	/* 9 values pushed */
0 0 1 0 133 0 1 1 118 
EIF[ ]	/* EndIf */
PUSHB[ ]	/* 7 values pushed */
75 74 26 24 2 8 22 
CALL[ ]	/* CallFunction */";
};
width = 387;
}
);
note = braceleft;
unicode = 007B;
},
{
glyphname = braceright;
lastChange = "2020-12-09 22:30:36 +0000";
layers = (
{
layerId = "D6A4831D-747C-4592-93C0-305F4CD57904";
paths = (
{
closed = 1;
nodes = (
"246 -136 OFFCURVE",
"282 -93 OFFCURVE",
"283 -71 QCURVE SMOOTH",
"284 -41 OFFCURVE",
"280 17 QCURVE SMOOTH",
"277 60 LINE",
"275 90 LINE SMOOTH",
"274 105 OFFCURVE",
"270 198 OFFCURVE",
"271 236 QCURVE SMOOTH",
"272 284 OFFCURVE",
"325 325 QCURVE",
"335 332 OFFCURVE",
"349 358 OFFCURVE",
"348 369 QCURVE",
"347 376 OFFCURVE",
"322 394 OFFCURVE",
"309 397 QCURVE SMOOTH",
"275 406 OFFCURVE",
"250 431 OFFCURVE",
"253 459 QCURVE SMOOTH",
"259 513 OFFCURVE",
"263 535 QCURVE",
"265 553 OFFCURVE",
"277 645 OFFCURVE",
"280 683 QCURVE SMOOTH",
"282 709 OFFCURVE",
"282 723 QCURVE SMOOTH",
"282 775 OFFCURVE",
"258 812 QCURVE SMOOTH",
"212 880 OFFCURVE",
"101 902 QCURVE",
"93 904 OFFCURVE",
"67 896 OFFCURVE",
"60 894 QCURVE",
"62 889 OFFCURVE",
"67 868 OFFCURVE",
"73 862 QCURVE SMOOTH",
"74 861 OFFCURVE",
"101 845 QCURVE",
"116 838 OFFCURVE",
"127 830 QCURVE SMOOTH",
"146 817 OFFCURVE",
"166 800 OFFCURVE",
"167 791 QCURVE",
"172 757 OFFCURVE",
"172 709 QCURVE SMOOTH",
"172 672 OFFCURVE",
"170 654 QCURVE",
"169 636 OFFCURVE",
"159 591 OFFCURVE",
"158 584 QCURVE",
"146 530 OFFCURVE",
"146 503 QCURVE SMOOTH",
"146 425 OFFCURVE",
"212 362 QCURVE",
"164 295 OFFCURVE",
"164 230 QCURVE SMOOTH",
"164 215 OFFCURVE",
"165 207 QCURVE SMOOTH",
"173 146 OFFCURVE",
"179 22 QCURVE SMOOTH",
"181 -7 LINE SMOOTH",
"183 -43 OFFCURVE",
"156 -93 OFFCURVE",
"117 -108 QCURVE",
"111 -110 OFFCURVE",
"93 -124 OFFCURVE",
"85 -130 QCURVE",
"101 -138 OFFCURVE",
"108 -143 QCURVE",
"123 -152 OFFCURVE",
"144 -161 OFFCURVE",
"154 -162 QCURVE SMOOTH",
"165 -163 LINE"
);
}
);
userData = {
assembly = "NPUSHB[ ]	/* 15 values pushed */
25 18 5 3 0 74 0 0 0 118 75 74 1 8 22 
CALL[ ]	/* CallFunction */";
};
width = 398;
}
);
note = braceright;
unicode = 007D;
},
{
glyphname = asciitilde;
lastChange = "2020-12-09 22:30:36 +0000";
layers = (
{
layerId = "D6A4831D-747C-4592-93C0-305F4CD57904";
paths = (
{
closed = 1;
nodes = (
"521 359 OFFCURVE",
"585 389 QCURVE SMOOTH",
"628 409 OFFCURVE",
"628 449 QCURVE",
"606 477 OFFCURVE",
"580 477 QCURVE SMOOTH",
"566 477 OFFCURVE",
"550 469 QCURVE",
"545 467 OFFCURVE",
"533 462 OFFCURVE",
"526 460 QCURVE SMOOTH",
"487 449 OFFCURVE",
"449 441 OFFCURVE",
"430 441 QCURVE SMOOTH",
"399 441 OFFCURVE",
"375 453 QCURVE",
"351 463 OFFCURVE",
"302 496 QCURVE SMOOTH",
"284 508 LINE SMOOTH",
"245 534 OFFCURVE",
"205 533 QCURVE SMOOTH",
"159 532 OFFCURVE",
"113 502 QCURVE SMOOTH",
"73 476 OFFCURVE",
"60 417 QCURVE",
"63 399 OFFCURVE",
"82 399 QCURVE SMOOTH",
"102 399 OFFCURVE",
"155 420 QCURVE SMOOTH",
"195 436 OFFCURVE",
"217 440 QCURVE",
"248 438 OFFCURVE",
"299 417 OFFCURVE",
"333 397 QCURVE SMOOTH",
"350 387 OFFCURVE",
"383 370 OFFCURVE",
"396 367 QCURVE SMOOTH",
"431 359 OFFCURVE",
"461 359 QCURVE SMOOTH"
);
}
);
userData = {
assembly = "PUSHB[ ]	/* 2 values pushed */
6 100 
WCVTP[ ]	/* WriteCVTInPixels */
NPUSHB[ ]	/* 55 values pushed */
33 1 3 4 1 76 0 4 2 3 2 4 3 128 0 1 0 5 0 1 5 128 0 3 0 5 3 89 0 2 0 0 1 2 0 105 0 3 3 5 97 0 5 3 5 81 36 39 37 36 35 20 6 8 28 
CALL[ ]	/* CallFunction */
PUSHB[ ]	/* 2 values pushed */
6 0 
WCVTP[ ]	/* WriteCVTInPixels */";
};
width = 678;
}
);
note = asciitilde;
unicode = 007E;
},
{
glyphname = exclamdown;
lastChange = "2020-12-09 22:30:36 +0000";
layers = (
{
layerId = "D6A4831D-747C-4592-93C0-305F4CD57904";
paths = (
{
closed = 1;
nodes = (
"142 -276 OFFCURVE",
"158 -228 OFFCURVE",
"166 -187 QCURVE SMOOTH",
"172 -157 LINE SMOOTH",
"181 -110 OFFCURVE",
"189 -78 QCURVE SMOOTH",
"194 -57 OFFCURVE",
"207 8 OFFCURVE",
"219 51 QCURVE SMOOTH",
"224 69 OFFCURVE",
"224 83 QCURVE SMOOTH",
"224 121 OFFCURVE",
"173 176 OFFCURVE",
"129 182 QCURVE",
"85 -48 OFFCURVE",
"64 -164 QCURVE",
"60 -192 OFFCURVE",
"60 -228 QCURVE SMOOTH",
"60 -261 OFFCURVE",
"86 -288 OFFCURVE",
"124 -298 QCURVE"
);
},
{
closed = 1;
nodes = (
"210 243 OFFCURVE",
"243 273 OFFCURVE",
"249 293 QCURVE",
"251 301 OFFCURVE",
"251 305 QCURVE SMOOTH",
"251 323 OFFCURVE",
"232 364 OFFCURVE",
"219 372 QCURVE",
"209 379 OFFCURVE",
"200 379 QCURVE SMOOTH",
"191 379 OFFCURVE",
"175 367 OFFCURVE",
"164 355 QCURVE",
"162 353 OFFCURVE",
"158 351 OFFCURVE",
"156 350 QCURVE",
"142 341 OFFCURVE",
"127 323 OFFCURVE",
"127 311 QCURVE SMOOTH",
"127 287 OFFCURVE",
"170 243 OFFCURVE",
"193 243 QCURVE SMOOTH"
);
}
);
userData = {
assembly = "NPUSHB[ ]	/* 11 values pushed */
19 1 0 1 1 76 31 24 2 0 73 
MPPEM[ ]	/* MeasurePixelPerEm */
PUSHB[ ]	/* 1 value pushed */
24 
LT[ ]	/* LessThan */
IF[ ]	/* If */
NPUSHB[ ]	/* 11 values pushed */
0 0 0 1 97 0 1 1 33 0 78 
ELSE[ ]	/* Else */
NPUSHB[ ]	/* 16 values pushed */
0 1 0 0 1 89 0 1 1 0 97 0 0 1 0 81 
EIF[ ]	/* EndIf */
PUSHB[ ]	/* 5 values pushed */
42 33 2 8 24 
CALL[ ]	/* CallFunction */";
};
width = 301;
}
);
leftKerningGroup = i;
note = exclamdown;
rightKerningGroup = i;
unicode = 00A1;
},
